<svg xmlns="http://www.w3.org/2000/svg" xmlns:xlink="http://www.w3.org/1999/xlink" version="1.1" style="" xml:space="preserve" width="511.995" height="511.995"><rect id="backgroundrect" width="100%" height="100%" x="0" y="0" fill="none" stroke="none"/>

















<g class="currentLayer" style=""><title>Layer 1</title><g id="svg_1" class="" fill="#ffffff" fill-opacity="1">
	<g id="svg_2" fill="#ffffff" fill-opacity="1">
		<path d="M437.126,74.939c-99.826-99.826-262.307-99.826-362.133,0C26.637,123.314,0,187.617,0,256.005    s26.637,132.691,74.993,181.047c49.923,49.923,115.495,74.874,181.066,74.874s131.144-24.951,181.066-74.874    C536.951,337.226,536.951,174.784,437.126,74.939z M409.08,409.006c-84.375,84.375-221.667,84.375-306.042,0    c-40.858-40.858-63.37-95.204-63.37-153.001s22.512-112.143,63.37-153.021c84.375-84.375,221.667-84.355,306.042,0    C493.435,187.359,493.435,324.651,409.08,409.006z" id="svg_3" fill="#ffffff" fill-opacity="1"/>
	</g>
</g><g id="svg_4" class="" fill="#ffffff" fill-opacity="1">
	<g id="svg_5" fill="#ffffff" fill-opacity="1">
		<path d="M341.525,310.827l-56.151-56.071l56.151-56.071c7.735-7.735,7.735-20.29,0.02-28.046    c-7.755-7.775-20.31-7.755-28.065-0.02l-56.19,56.111l-56.19-56.111c-7.755-7.735-20.31-7.755-28.065,0.02    c-7.735,7.755-7.735,20.31,0.02,28.046l56.151,56.071l-56.151,56.071c-7.755,7.735-7.755,20.29-0.02,28.046    c3.868,3.887,8.965,5.811,14.043,5.811s10.155-1.944,14.023-5.792l56.19-56.111l56.19,56.111    c3.868,3.868,8.945,5.792,14.023,5.792c5.078,0,10.175-1.944,14.043-5.811C349.28,331.117,349.28,318.562,341.525,310.827z" id="svg_6" fill="#ffffff" fill-opacity="1"/>
	</g>
</g><g id="svg_7">
</g><g id="svg_8">
</g><g id="svg_9">
</g><g id="svg_10">
</g><g id="svg_11">
</g><g id="svg_12">
</g><g id="svg_13">
</g><g id="svg_14">
</g><g id="svg_15">
</g><g id="svg_16">
</g><g id="svg_17">
</g><g id="svg_18">
</g><g id="svg_19">
</g><g id="svg_20">
</g><g id="svg_21">
</g></g></svg>