<svg xmlns="http://www.w3.org/2000/svg" width="743.52" height="561.121" viewBox="0 0 743.52 561.121">
  <g id="certificate" transform="translate(-133 -6202.693)">
    <g id="certificate-2" data-name="certificate" transform="translate(133 6202.693)">
      <path id="Path_2667" data-name="Path 2667" d="M692.07,342.716c0,86.306-50.6,162.659-128.167,209.138-49.733,29.806-110.559,47.332-176.235,47.332-87.493,0-154.234-33.067-204.438-83.721-46.274-46.677-78.495-108.3-99.964-172.749-95.844-287.749,64.264-366.251,304.4-256.47C540.565,156.152,692.07,201.076,692.07,342.716Z" transform="translate(-55.067 -38.747)" fill="#50cb88"/>
      <path id="Path_2668" data-name="Path 2668" d="M623.606,263.5V623.962c-49.733,29.806-110.559,47.332-176.235,47.332-87.493,0-154.234-33.067-204.438-83.721V263.5Z" transform="translate(-114.769 -110.172)" fill="#f2f2f2"/>
      <circle id="Ellipse_41" data-name="Ellipse 41" cx="17.055" cy="17.055" r="17.055" transform="translate(128.164 55.093)" fill="#f2f2f2"/>
      <circle id="Ellipse_42" data-name="Ellipse 42" cx="11.598" cy="11.598" r="11.598" transform="translate(283.026 108.988)" fill="#f2f2f2"/>
      <circle id="Ellipse_43" data-name="Ellipse 43" cx="11.598" cy="11.598" r="11.598" transform="translate(94.736 220.188)" fill="#f2f2f2"/>
      <path id="Path_2674" data-name="Path 2674" d="M820.235,659.74l-11.961,110.04H890.8l3.588-8.373,4.784,8.373h77.745s-5.98-113.628-16.745-117.216S820.235,659.74,820.235,659.74Z" transform="translate(-294.429 -233.579)" fill="#2f2e41"/>
      <circle id="Ellipse_47" data-name="Ellipse 47" cx="41.863" cy="41.863" r="41.863" transform="translate(554.512 100.826)" fill="#ffb8b8"/>
      <path id="Path_2675" data-name="Path 2675" d="M894.112,282.018s3.588,38.275,0,40.667,57.412,1.2,57.412,1.2-8.373-34.686,0-51.432Z" transform="translate(-321.659 -113.015)" fill="#ffb8b8"/>
      <path id="Path_2676" data-name="Path 2676" d="M887.157,331.586s30.777,4.793,33.33-4.78l15.71,21.525,1.2,215.295s-127.981,15.549-132.765-9.569S853.667,330.39,853.667,330.39l13.55-.877S884.765,331.586,887.157,331.586Z" transform="translate(-293.175 -130.29)" fill="#d0cde1"/>
      <path id="Path_2677" data-name="Path 2677" d="M844.9,316.375l-20.523,7.112L765.772,337.84l2.392,143.53s-50.235,143.53-27.51,154.295,55.02-14.353,64.589-32.294S848.3,336.643,848.3,331.859,844.9,316.375,844.9,316.375Z" transform="translate(-271.065 -126.975)" fill="#3f3d56"/>
      <path id="Path_2678" data-name="Path 2678" d="M971.911,316.375l8.106,7.112,57.412,26.314-28.706,144.726S1047,626.1,1032.645,633.272s-35.882,27.51-40.667,15.549S959.021,329.6,971.911,316.375Z" transform="translate(-345.368 -126.975)" fill="#3f3d56"/>
      <path id="Path_2679" data-name="Path 2679" d="M996.532,591.747s-53.824-22.726-55.02-2.392,61,34.686,61,28.706S996.532,591.747,996.532,591.747Z" transform="translate(-336.766 -211.038)" fill="#ffb8b8"/>
      <path id="Path_2680" data-name="Path 2680" d="M821.513,584.528s62.2,46.647,38.275,58.608-55.02-41.863-55.02-41.863Z" transform="translate(-293.315 -212.191)" fill="#ffb8b8"/>
      <path id="Path_2681" data-name="Path 2681" d="M924.922,157.275a2.309,2.309,0,0,1,2.222-1.319c-19.166-1.146-39.353,1.087-55.387,11.649-4.49,2.958-8.684,6.575-13.8,8.242l4.15,3.254-4.958,1.511,7.3,4.716a6.324,6.324,0,0,1-6.023,2.018c3.171.926,5.506,3.748,6.692,6.832a32.425,32.425,0,0,1,1.6,9.739c1.226-4.758,6.418-7.559,11.323-7.843s9.689,1.334,14.462,2.5a80,80,0,0,0,31.755,1.222c-3.586,7.2-.561,15.78,2.483,23.222l6.078,14.86c3.374.339,5.759-3.016,8.3-5.261,2.317-2.046-6.908,15.948-5.479,15.288,1.855-.856,21.436-22.474,22.353-24.3,4.183-8.333,6.693-17.627,6.316-26.943s-3.786-18.637-10.208-25.4c-4.36-4.589-10.391-5.393-14.835-9.207-1.749-1.5-1.756-2.674-4.16-3.549C934.309,158.213,925.054,156.982,924.922,157.275Z" transform="translate(-309.962 -75.909)" fill="#2f2e41"/>
      <path id="Path_2682" data-name="Path 2682" d="M755.85,351.427l-8.373-3.588L680.5,457.879s-11.961,28.706,9.569,41.863,71.765,52.628,71.765,52.628l28.706-44.255s-58.608-27.51-55.02-38.275,22.726-39.471,22.726-39.471Z" transform="translate(-252.77 -136.974)" fill="#3f3d56"/>
      <path id="Path_2683" data-name="Path 2683" d="M1034.462,361.865l15.549,2.392s64.589,126.785,49.039,150.707-78.942,57.412-78.942,57.412-1.2-39.471-11.961-53.824l37.079-14.353-20.333-78.942Z" transform="translate(-357.947 -141.431)" fill="#3f3d56"/>
    </g>
    <path id="Icon_awesome-award" data-name="Icon awesome-award" d="M23.192,86.595c-2.075-2.075-.993-1.49-6-2.83a17.229,17.229,0,0,1-6.073-3.181L.287,107.148a3.821,3.821,0,0,0,3.685,5.261l12.582-.48,8.654,9.141a3.82,3.82,0,0,0,6.311-1.184L43.948,89.41a17.137,17.137,0,0,1-20.756-2.815ZM91.41,107.148,80.576,80.584A17.19,17.19,0,0,1,74.5,83.765c-5.031,1.347-3.928.759-6,2.83A17.14,17.14,0,0,1,47.747,89.41l12.429,30.475a3.82,3.82,0,0,0,6.311,1.184l8.656-9.141,12.582.48a3.822,3.822,0,0,0,3.685-5.261ZM62.8,81.191c3.649-3.713,4.067-3.393,9.263-4.809a9.7,9.7,0,0,0,6.8-6.92c1.786-6.782,1.323-5.963,6.2-10.925a9.906,9.906,0,0,0,2.488-9.451c-1.784-6.777-1.786-5.831,0-12.615a9.906,9.906,0,0,0-2.488-9.451c-4.874-4.962-4.411-4.145-6.2-10.925a9.7,9.7,0,0,0-6.8-6.92C65.408,7.356,66.21,7.831,61.332,2.867A9.5,9.5,0,0,0,52.045.333c-6.655,1.815-5.726,1.817-12.393,0a9.5,9.5,0,0,0-9.287,2.534c-4.874,4.962-4.071,4.489-10.731,6.307a9.7,9.7,0,0,0-6.8,6.92c-1.784,6.779-1.323,5.963-6.2,10.925A9.9,9.9,0,0,0,4.151,36.47c1.784,6.772,1.786,5.827,0,12.613a9.912,9.912,0,0,0,2.488,9.454c4.874,4.962,4.411,4.143,6.2,10.925a9.7,9.7,0,0,0,6.8,6.92c5.344,1.457,5.743,1.227,9.26,4.809a9.49,9.49,0,0,0,11.878,1.39,9.474,9.474,0,0,1,10.156,0A9.487,9.487,0,0,0,62.8,81.191ZM23.321,42.019A22.531,22.531,0,1,1,45.849,64.948,22.731,22.731,0,0,1,23.321,42.019Z" transform="translate(320.21 6392.463)" fill="#3f3d56"/>
    <line id="Line_198" data-name="Line 198" x2="108" transform="translate(320.21 6547.5)" fill="none" stroke="#707070" stroke-width="3"/>
    <line id="Line_199" data-name="Line 199" x2="215.29" transform="translate(320.21 6567.5)" fill="none" stroke="#707070" stroke-width="3"/>
    <line id="Line_200" data-name="Line 200" x2="215.29" transform="translate(320.21 6587.5)" fill="none" stroke="#707070" stroke-width="3"/>
    <line id="Line_201" data-name="Line 201" x2="215.29" transform="translate(320.21 6607.5)" fill="none" stroke="#707070" stroke-width="3"/>
  </g>
</svg>
