<?xml version="1.0" encoding="utf-8"?>
<svg viewBox="-435.94 -554.402 933.57 973.847" xmlns="http://www.w3.org/2000/svg">
  <defs>
    <clipPath id="clip-path">
      <path id="Path_3179" data-name="Path 3179" d="M-4360,1114.1V2144.947h1003.812V1139.875Z" transform="translate(4360)" fill="none" stroke="#707070" stroke-width="1"/>
    </clipPath>
  </defs>
  <g id="Mask_Group_8" data-name="Mask Group 8" transform="matrix(1, 0, 0, 1, -434.126227, -1700.465479)" clip-path="url(#clip-path)">
    <path id="general_curved_bg" data-name="general curved bg" d="M-4451.617,1139.675s1103.981,68.839,1002,364.594-922.958,63.74-752.135,433.433-372.243,0-372.243,0l135.129-782.73Z" transform="translate(4360)" fill="rgba(225,235,255,0.51)"/>
  </g>
  <g id="cross_platform" data-name="cross platform" transform="matrix(1, 0, 0, 1, -428.45423, -307.964726)">
    <path id="Path_2766" data-name="Path 2766" d="M576.472,654.024H772.063c7.721,0,7.734-12,0-12H576.472C568.751,642.024,568.738,654.024,576.472,654.024Z" transform="translate(-139.946 -244.024)" fill="#e6e6e6"/>
    <path id="Path_2767" data-name="Path 2767" d="M523.665,393.255H328.732a7.777,7.777,0,0,0-7.767,7.767v38.725c9.723.228,16.035,8.252,17.564,17.993v35.107h.738a.444.444,0,0,1,.443.443v18.681a.444.444,0,0,1-.443.443h-.738V625.323c0,2.481-.025,7.007-.025,7.007H523.665a7.777,7.777,0,0,0,7.767-7.767V401.022a7.777,7.777,0,0,0-7.767-7.767Z" transform="translate(-139.946 -244.024)" fill="#536dfe"/>
    <path id="Path_2768" data-name="Path 2768" d="M885.845,265.834v211.9H544.914v-93.3a15.993,15.993,0,0,0-15.977-15.977H465V265.834Z" transform="translate(-139.946 -244.024)" fill="#536dfe"/>
    <path id="Path_2769" data-name="Path 2769" d="M906.9,507.607h-361.6V506.13H905.418V256.576A11.087,11.087,0,0,0,894.343,245.5H452.084a11.088,11.088,0,0,0-11.075,11.075V367.505h-1.477V256.576a12.566,12.566,0,0,1,12.552-12.552H894.343a12.566,12.566,0,0,1,12.552,12.552Z" transform="translate(-139.946 -244.024)" fill="#3f3d56"/>
    <path id="Path_2770" data-name="Path 2770" d="M872.632,552.645H545.295v-1.477H872.632a32.823,32.823,0,0,0,32.786-32.785V507.607H545.295V506.13H906.9v12.253a34.3,34.3,0,0,1-34.263,34.262Z" transform="translate(-139.946 -244.024)" fill="#3f3d56"/>
    <path id="Path_2771" data-name="Path 2771" d="M775.485,625c-18.248-17.522-30.252-40.384-34.111-72.356H606.885c-1.368,29.912-13.3,52.345-34.813,72.277L569.8,625c22.2-20.118,34.427-42.716,35.641-73.125l.028-.709H742.687l.076.653c3.79,32.513,16.045,55.523,34.743,73.062Z" transform="translate(-139.946 -244.024)" fill="#3f3d56"/>
    <path id="Path_2772" data-name="Path 2772" d="M528.58,655.548H321.407v-1.477H528.58a16,16,0,0,0,15.977-15.977V384.778A16,16,0,0,0,528.58,368.8H321.407a16,16,0,0,0-15.977,15.977v54.667h-1.477V384.778a17.473,17.473,0,0,1,17.453-17.453H528.58a17.473,17.473,0,0,1,17.453,17.454V638.095a17.473,17.473,0,0,1-17.453,17.453Z" transform="translate(-139.946 -244.024)" fill="#3f3d56"/>
    <path id="Path_2773" data-name="Path 2773" d="M424.993,386.007A5.007,5.007,0,1,1,430,381,5.007,5.007,0,0,1,424.993,386.007Zm0-8.856A3.849,3.849,0,1,0,428.842,381a3.849,3.849,0,0,0-3.849-3.849Z" transform="translate(-139.946 -244.024)" fill="#3f3d56"/>
    <path id="Path_2774" data-name="Path 2774" d="M424.993,649.888a6.388,6.388,0,1,1,6.388-6.389,6.389,6.389,0,0,1-6.388,6.389Zm0-11.3A4.912,4.912,0,1,0,429.9,643.5a4.912,4.912,0,0,0-4.912-4.912Z" transform="translate(-139.946 -244.024)" fill="#3f3d56"/>
    <path id="Path_2775" data-name="Path 2775" d="M319.326,655.976h-68.58A19.5,19.5,0,0,1,231.273,636.5V458.919a19.5,19.5,0,0,1,19.473-19.473h68.58A19.5,19.5,0,0,1,338.8,458.919V490.7a1.923,1.923,0,0,1,1.182,1.772v20.678a1.923,1.923,0,0,1-1.182,1.772V636.5a19.5,19.5,0,0,1-19.474,19.473Zm-68.58-215.054a18.017,18.017,0,0,0-18,18V636.5a18.017,18.017,0,0,0,18,18h68.58a18.017,18.017,0,0,0,18-18V513.592h.738a.444.444,0,0,0,.443-.443V492.471a.444.444,0,0,0-.443-.443h-.738V458.919a18.017,18.017,0,0,0-18-18Z" transform="translate(-139.946 -244.024)" fill="#3f3d56"/>
    <path id="Path_2776" data-name="Path 2776" d="M320.082,445.058H311.13a6.647,6.647,0,0,1-6.154,9.157H265.687a6.647,6.647,0,0,1-6.154-9.158h-8.361a13.991,13.991,0,0,0-13.991,13.991V636.372a13.991,13.991,0,0,0,13.991,13.991h68.91a13.991,13.991,0,0,0,13.991-13.991h0V459.049A13.991,13.991,0,0,0,320.082,445.058Z" transform="translate(-139.946 -244.024)" fill="#536dfe"/>
    <path id="Path_2777" data-name="Path 2777" d="M1059.18,655.687H140.825a.879.879,0,0,1,0-1.758h918.351a.879.879,0,1,1,0,1.758Z" transform="translate(-139.946 -244.024)" fill="#3f3d56"/>
    <path id="Path_2778" data-name="Path 2778" d="M775.941,655.273H571.424a15.5,15.5,0,1,1,0-31.01H775.941a15.5,15.5,0,0,1,0,31.01ZM571.424,625.74a14.028,14.028,0,0,0,0,28.057H775.941a14.028,14.028,0,1,0,0-28.056Z" transform="translate(-139.946 -244.024)" fill="#3f3d56"/>
    <path id="Path_2779" data-name="Path 2779" d="M784.495,293.2l5.728,11.976,48.917-16.394L830.686,271.1Z" fill="#ffb8b8"/>
    <path id="Path_2780" data-name="Path 2780" d="M907.5,547.254h41.721v16.12H922.391A14.887,14.887,0,0,1,907.5,548.487v-1.233Z" transform="matrix(-0.431, -0.902, 0.902, -0.431, 688.031, 1388.396)" fill="#2f2e41"/>
    <path id="Path_2781" data-name="Path 2781" d="M772.964,400.141l13.267-.448.558-51.644-15.552.918Z" fill="#ffb8b8"/>
    <path id="Path_2782" data-name="Path 2782" d="M910.2,639.762H951.92v16.12H925.085A14.887,14.887,0,0,1,910.2,640.995v-1.233Z" transform="translate(1722.172 1051.619) rotate(180)" fill="#2f2e41"/>
    <path id="Path_2783" data-name="Path 2783" d="M914,636.407a4.974,4.974,0,0,1-4.83-3.786c-7.268-29.2-34.311-176.333-10.4-205.23l.208-.252.316-.08c1.679-.425,33.325-10.223,51.894,5.071l.217.179,10.334,29.915L989.6,503.578a20.4,20.4,0,0,1-6.033,28.654l-36.582,23.085a5.009,5.009,0,0,1-5.753-.405,5.06,5.06,0,0,1-1.5-2.092l-7.688-19.22a5.03,5.03,0,0,1,2.407-6.329l17.139-8.57a3.674,3.674,0,0,0,1.83-2.5,2.959,2.959,0,0,0-1.029-2.543L932.5,496.5a3,3,0,0,0-4.956,2.385l4.932,130.2a5,5,0,0,1-4.217,5.128L914.8,636.343A5.048,5.048,0,0,1,914,636.407Z" transform="translate(-139.946 -244.024)" fill="#2f2e41"/>
    <path id="Path_2784" data-name="Path 2784" d="M948.322,437.437q-.169,0-.34-.013l-49.616-3.675a4.493,4.493,0,0,1-3.914-5.97,47.092,47.092,0,0,0,1.076-27.319c-3.232-12.742-3.308-36.433-3.066-49.421a8.753,8.753,0,0,1,8.281-8.522V342.5l1,.012c8.083.113,22.916.69,35.053,3.215a18.389,18.389,0,0,1,14.659,17.7c.275,12.058.315,28.379-1.053,37.657-1.154,7.827.978,22.858,2.352,31.122a4.5,4.5,0,0,1-4.433,5.231Z" transform="translate(-139.946 -244.024)" fill="#3f3d56"/>
    <path id="Path_2785" data-name="Path 2785" d="M966.034,484.734a10.025,10.025,0,0,1-3.811-14.892l-22.915-98.818h17.325l20.224,96.87a10.079,10.079,0,0,1-10.823,16.84Z" transform="translate(-139.946 -244.024)" fill="#ffb8b8"/>
    <path id="Path_2786" data-name="Path 2786" d="M857.5,381.729l27.435-25.952,10.336,14.47-25.839,22.738L903.323,419.9c.245-.017.489-.037.738-.037a10.853,10.853,0,1,1-10.746,12.3l-.107.107-35.269-30.567a13.471,13.471,0,0,1-.435-19.966Z" transform="translate(-139.946 -244.024)" fill="#ffb8b8"/>
    <path id="Path_2787" data-name="Path 2787" d="M941.134,377.356a4.47,4.47,0,0,1-4.053-2.554,52.813,52.813,0,0,1-4.468-14.57c-1.19-8.244,4.542-13.148,10.372-14.217,5.671-1.04,12.578,1.454,14.343,9.383a20.472,20.472,0,0,1,.342,2.032c.707,6.011,1.372,10.686,1.977,13.9a4.495,4.495,0,0,1-4.2,5.32l-14.086.7Q941.248,377.356,941.134,377.356Z" transform="translate(-139.946 -244.024)" fill="#3f3d56"/>
    <circle id="Ellipse_86" data-name="Ellipse 86" cx="30" cy="30" r="30" transform="translate(751.544 29.982)" fill="#2f2e41"/>
    <circle id="Ellipse_87" data-name="Ellipse 87" cx="24.561" cy="24.561" r="24.561" transform="translate(757.164 43.208)" fill="#ffb8b8"/>
    <path id="Path_2788" data-name="Path 2788" d="M878.078,365.4a4.47,4.47,0,0,1-1.262-4.621,52.812,52.812,0,0,1,6.55-13.76c4.693-6.882,12.233-6.624,17.252-3.473,4.883,3.065,8.291,9.57,4.235,16.608a20.444,20.444,0,0,1-1.121,1.73c-3.54,4.909-6.208,8.8-7.931,11.58a4.495,4.495,0,0,1-6.69,1.086l-10.861-9Q878.162,365.48,878.078,365.4Z" transform="translate(-139.946 -244.024)" fill="#3f3d56"/>
    <path id="Path_2789" data-name="Path 2789" d="M915.662,277.213c-6.037-3.6-7.344-12.572-3.747-18.612s10.865-9.191,17.891-9.4c10.037-.3,19.73,4.7,26.756,11.875s11.662,16.357,15.194,25.757,6.068,19.148,9.55,28.567c1.786,4.833,3.986,9.8,8.073,12.934s10.583,3.7,14.076-.083c-.013,6.061-4.66,11.571-10.423,13.447s-12.283.46-17.335-2.889c-8.765-5.808-13-16.411-15.416-26.644s-3.61-20.955-8.474-30.278c-2.015-3.863-4.776-7.532-8.661-9.5s-9.061-1.841-12.187,1.194c-1.448,1.406-2.385,3.323-4.028,4.495a8.046,8.046,0,0,1-7.036.733,23.8,23.8,0,0,1-6.362-3.59" transform="translate(-139.946 -244.024)" fill="#2f2e41"/>
    <path id="Path_2790" data-name="Path 2790" d="M896.02,295.2a29.383,29.383,0,0,0,42.121,5.258c2.385-1.94,4.6-4.614,4.45-7.685-.153-3.145-2.724-5.616-5.349-7.355a34.485,34.485,0,0,0-23.4-5.378c-4.675.628-9.364,2.332-12.675,5.692s-4.96,8.586-3.253,12.983" transform="translate(-139.946 -244.024)" fill="#2f2e41"/>
  </g>
</svg>