<?xml version="1.0" encoding="utf-8"?>
<svg viewBox="-44.511 -246.524 917.721 957.097" xmlns="http://www.w3.org/2000/svg">
  <defs>
    <clipPath id="clip-path">
      <path id="Path_3179" data-name="Path 3179" d="M-4360,1114.1V2144.947h1003.812V1139.875Z" transform="translate(4360)" fill="none" stroke="#707070" stroke-width="1"/>
    </clipPath>
  </defs>
  <g id="Mask_Group_8" data-name="Mask Group 8" transform="matrix(1, 0, 0, 1, -47.313213, -1399.202271)" clip-path="url(#clip-path)">
    <path id="general_curved_bg" data-name="general curved bg" d="M-4451.617,1139.675s1103.981,68.839,1002,364.594-922.958,63.74-752.135,433.433-372.243,0-372.243,0l135.129-782.73Z" transform="translate(4360)" fill="rgba(225,235,255,0.51)"/>
  </g>
  <g id="Interactive" transform="matrix(1, 0, 0, 1, -47.437309, -1395.645264)">
    <g id="Group_19" data-name="Group 19" transform="translate(31.459 1312.56)">
      <ellipse id="Ellipse_44" data-name="Ellipse 44" cx="82.031" cy="82.031" rx="82.031" ry="82.031" transform="translate(490.843 298.964)" fill="#2f2e41"/>
      <ellipse id="Ellipse_45" data-name="Ellipse 45" cx="82.031" cy="82.031" rx="82.031" ry="82.031" transform="translate(345.906 5.955)" fill="#6c63ff"/>
      <path id="Path_280" data-name="Path 280" d="M296.171,707.183,589.179,414.175H295.718v1.281H586.085l-290.82,290.82Z" transform="translate(79.128 -244.026)" fill="#3f3d56"/>
      <rect id="Rectangle_20" data-name="Rectangle 20" width="330.687" height="1.282" transform="translate(374.393 463.158)" fill="#3f3d56"/>
      <g id="Group_18" data-name="Group 18" transform="translate(104.11 0)">
        <path id="Path_314" data-name="Path 314" d="M317.824,610.712a12.772,12.772,0,0,1,10.64-16.439l61.028-71.313,14.234,14.945L342.937,606.28a12.841,12.841,0,0,1-25.115,4.432Z" transform="translate(-288.748 -404.445)" fill="#a0616a"/>
        <path id="Path_315" data-name="Path 315" d="M361.321,537a5.344,5.344,0,0,1,1.522-4.186L381.7,513.7a14.858,14.858,0,0,1,24.042,17.463L393.2,555a5.35,5.35,0,0,1-7.892,1.829l-21.818-15.944a5.344,5.344,0,0,1-2.17-3.888Z" transform="translate(-280.43 -407.352)" fill="#6c63ff"/>
        <ellipse id="Ellipse_53" data-name="Ellipse 53" cx="29.199" cy="29.199" rx="29.199" ry="29.199" transform="translate(95.962 27.494)" fill="#a0616a"/>
        <path id="Path_316" data-name="Path 316" d="M387.064,595.539a5.288,5.288,0,0,1-2.1-3.643,467.214,467.214,0,0,0-8.8-50.182,31.5,31.5,0,0,1,58.487-21.858c11.483,21.552,12.36,51.141,12.205,62.862a5.34,5.34,0,0,1-4.462,5.192l-51.234,8.624a5.41,5.41,0,0,1-.9.076,5.3,5.3,0,0,1-3.193-1.07Z" transform="translate(-277.779 -408.179)" fill="#2f2e41"/>
        <path id="Path_317" data-name="Path 317" d="M490.473,502.427a12.519,12.519,0,0,0-.284,1.95l-51.07,29.462-12.413-7.146-13.233,17.325L434.218,558.8a9.511,9.511,0,0,0,11.411-.278l52.661-41.545a12.479,12.479,0,1,0-7.817-14.554Z" transform="translate(-270.578 -410.142)" fill="#a0616a"/>
        <path id="Path_318" data-name="Path 318" d="M441.4,532.331l-16.506,21.39a5.35,5.35,0,0,1-8.088.443l-18.686-19.4a14.858,14.858,0,1,1,18.221-23.473l23.436,13.106a5.35,5.35,0,0,1,1.623,7.937Z" transform="translate(-274.563 -407.238)" fill="#6c63ff"/>
        <path id="Path_319" data-name="Path 319" d="M315.252,725.373h14.575l3.431-56.037-18.009-.181Z" transform="translate(-122.688 -275.062)" fill="#a0616a"/>
        <path id="Path_320" data-name="Path 320" d="M452.128,798.046h28.7a18.292,18.292,0,0,1,18.292,18.293v.594h-47Z" transform="translate(-263.28 -352.494)" fill="#2f2e41"/>
        <path id="Path_321" data-name="Path 321" d="M198.256,725.374h14.575l6.933-56.219H198.25Z" transform="translate(-144.788 -275.063)" fill="#a0616a"/>
        <path id="Path_322" data-name="Path 322" d="M335.128,798.046h28.7a18.292,18.292,0,0,1,18.292,18.293v.594h-47Z" transform="translate(-285.377 -352.494)" fill="#2f2e41"/>
        <path id="Path_323" data-name="Path 323" d="M355.231,816.707l-18.088-2.358a5.349,5.349,0,0,1-4.474-6.692L359.054,678a301.4,301.4,0,0,0,5.433-38.149c.77-10.43,3.823-25.18,14-36.211a152.933,152.933,0,0,0,11.562-14.284l7.987-11.06,53.2-8.46.036.658a308.316,308.316,0,0,0,32.259,121.475,137.2,137.2,0,0,1,14.389,54.654l3.015,58.791a5.358,5.358,0,0,1-1.549,4.045,5.289,5.289,0,0,1-4.037,1.572l-17.292-.786a5.359,5.359,0,0,1-4.977-4.173l-14.438-64.412a4.2,4.2,0,0,0-.731-1.591L412.6,679.654a2.973,2.973,0,0,0-5.183.8L360.968,813.164a5.379,5.379,0,0,1-5.056,3.583,5.263,5.263,0,0,1-.682-.044Z" transform="translate(-285.877 -395.593)" fill="#2f2e41"/>
        <path id="Path_324" data-name="Path 324" d="M386.153,459.7a129.5,129.5,0,0,0,5.117-21.572c.342-4.264-.751-8.852-3.856-11.794-5.811-5.506-15.682-2.883-21.762,2.327-8.783,7.53-13.163,19.1-14.819,30.554s-.927,23.094-1.326,34.656-2.052,23.451-7.947,33.408-16.834,17.6-28.371,16.749a19.967,19.967,0,0,1-12.5-5.3,14.493,14.493,0,0,1-4.353-12.585c-5.9,10.56-2.908,24.872,5.889,33.174s22.327,10.648,33.891,7.1,21.081-12.432,26.767-23.106,7.768-23.008,7.467-35.1c-.232-9.285-1.811-18.647-.241-27.8s7.3-18.45,16.333-20.606Z" transform="translate(-293.279 -423.272)" fill="#2f2e41"/>
        <path id="Path_325" data-name="Path 325" d="M412.784,469.338c1.54,5.145,7.432,8.319,12.732,7.448s9.658-5.235,11.269-10.359a21.326,21.326,0,0,0-1.667-15.634,24.346,24.346,0,0,0-13.926-12.409,19.99,19.99,0,0,0-18.176,2.9,6.685,6.685,0,0,0-4.671-4.886,12.773,12.773,0,0,0-7.01.1,28.884,28.884,0,0,0-16.076,11.7,47,47,0,0,0-7.286,18.781c-1.794,10.068-1.132,21.069,4.523,29.59s17.221,13.553,26.606,9.491c.586-2.992-.8-6-2.405-8.6s-3.5-5.117-4.121-8.106.565-6.637,3.453-7.613c2.464-.833,5.09.517,7.685.682a8.422,8.422,0,0,0,8.079-12.135Z" transform="translate(-279.341 -420.875)" fill="#2f2e41"/>
      </g>
      <rect id="Rectangle_23" data-name="Rectangle 23" width="104.11" height="1.245" transform="translate(0 463.194)" fill="#50cb88"/>
      <path id="Path_292" data-name="Path 292" d="M1047.024,661.279c10.968,17.906,7.2,40.18,7.2,40.18s-21.556-6.758-32.524-24.665-7.2-40.18-7.2-40.18S1036.054,643.373,1047.024,661.279Z" transform="translate(-1003.569 -238.205)" fill="#50cb88"/>
      <path id="Path_293" data-name="Path 293" d="M941.529,701.591l.606-.189c.218-.068,21.88-7.026,32.83-24.9s7.306-40.335,7.268-40.56l-.105-.623-.606.189c-.218.068-21.88,7.026-32.83,24.9h0c-10.949,17.878-7.306,40.334-7.268,40.559Zm39.706-64.823c.5,3.77,2.486,23.321-7.214,39.157s-28.02,22.947-31.6,24.216c-.5-3.77-2.486-23.321,7.214-39.156h0C959.328,645.152,977.651,638.037,981.235,636.768Z" transform="translate(-891.321 -237.622)" fill="#50cb88"/>
      <ellipse id="Ellipse_48" data-name="Ellipse 48" cx="12.119" cy="12.119" rx="12.119" ry="12.119" transform="translate(37.842 380.994)" fill="#50cb88"/>
    </g>
  </g>
</svg>