<svg xmlns="http://www.w3.org/2000/svg" width="891.477" height="479.452" viewBox="0 0 891.477 479.452">
  <g id="Group_313" data-name="Group 313" transform="translate(-952.523 -240)">
    <g id="Path_1689" data-name="Path 1689" transform="translate(1040 240)" fill="#fff">
      <path d="M 708.5 454.5 L 4.5 454.5 L 4.5 26 C 4.5 20.25718116760254 6.736363410949707 14.85799980163574 10.79718208312988 10.79718208312988 C 14.85799980163574 6.736363410949707 20.25718116760254 4.5 26 4.5 L 687 4.5 C 692.7427978515625 4.5 698.1420288085938 6.736363410949707 702.2028198242188 10.79718208312988 C 706.2636108398438 14.85799980163574 708.5 20.25718116760254 708.5 26 L 708.5 454.5 Z" stroke="none"/>
      <path d="M 26 9 C 16.626220703125 9 9 16.62619018554688 9 26 L 9 450 L 704 450 L 704 26 C 704 16.62619018554688 696.373779296875 9 687 9 L 26 9 M 26 0 L 687 0 C 701.359375 0 713 11.64059448242188 713 26 L 713 459 L 0 459 L 0 26 C 0 11.64059448242188 11.640625 0 26 0 Z" stroke="none" fill="#9fa2a5"/>
    </g>
    <path id="Icon_awesome-play-circle" data-name="Icon awesome-play-circle" d="M54.976.563a54.413,54.413,0,1,0,54.413,54.413A54.4,54.4,0,0,0,54.976.563ZM80.362,60.242,41.746,82.4a5.275,5.275,0,0,1-7.833-4.608V32.157a5.278,5.278,0,0,1,7.833-4.608L80.362,51.027A5.283,5.283,0,0,1,80.362,60.242Z" transform="translate(1341.438 414.438)" fill="#3a7cff"/>
    <g id="Group_142" data-name="Group 142">
      <path id="Path_1686" data-name="Path 1686" d="M54.813,610.224H946.29v18.868H54.813Z" transform="translate(897.71 79.725)" fill="#d8d8d8" fill-rule="evenodd"/>
      <path id="Path_1687" data-name="Path 1687" d="M54.813,632H946.29a10.505,10.505,0,0,1-10.374,10.635H65.19A10.509,10.509,0,0,1,54.813,632Z" transform="translate(897.71 76.817)" fill="#9fa2a5" fill-rule="evenodd"/>
      <path id="Path_1688" data-name="Path 1688" d="M507.359,610.224H629.492a20.084,20.084,0,0,1-18.071,11.321H525.43a20.084,20.084,0,0,1-18.071-11.321Z" transform="translate(826.328 79.725)" fill="#9fa2a5" fill-rule="evenodd"/>
    </g>
  </g>
</svg>
