<svg xmlns="http://www.w3.org/2000/svg" width="1490.032" height="1161.003" viewBox="0 0 1490.032 1161.003">
  <path id="laptop_curve_bg" data-name="laptop curve bg" d="M318.635,37.694C198.7,138.217,180.111,328.3,98.881,468.527,70.6,517.322,34.067,560.992,15,615.123c-43.766,123.9,16.468,264.449,97.089,362.858,38.443,46.949,83.347,89.959,137.677,109.739,41.78,15.22,86.578,15.85,130.555,16.25l770.465,7.93c86.02.87,181.6-2.28,243.45-68.69,42.63-45.732,59.94-112.518,74.64-176.266,18.05-78.331,34.42-163.4,6.32-238-32.09-85.358-113.24-133.73-163.65-207.385-81.81-119.332-79.93-299.824-184.11-395.089C1078.8-18,1014.62-35.432,952.083-44.15c-117.9-16.459-229.577,14.609-345.358,10.277C507.756-37.572,400.739-31.126,318.635,37.694Z" transform="translate(-0.292 49)" fill="#e7ecff" opacity="0.5"/>
</svg>
