<?xml version="1.0" encoding="utf-8"?>
<svg viewBox="-435.94 -554.402 933.57 973.847" xmlns="http://www.w3.org/2000/svg">
  <defs>
    <clipPath id="clip-path">
      <path id="Path_3179" data-name="Path 3179" d="M-4360,1114.1V2144.947h1003.812V1139.875Z" transform="translate(4360)" fill="none" stroke="#707070" stroke-width="1"/>
    </clipPath>
  </defs>
  <g id="Mask_Group_8" data-name="Mask Group 8" transform="matrix(-1, 0, 0, 1, 494.910896, -1700.465479)" clip-path="url(#clip-path)">
    <path id="general_curved_bg" data-name="general curved bg" d="M-4451.617,1139.675s1103.981,68.839,1002,364.594-922.958,63.74-752.135,433.433-372.243,0-372.243,0l135.129-782.73Z" transform="translate(4360)" fill="rgba(225,235,255,0.51)"/>
  </g>
  <g id="leaderboard" transform="matrix(1, 0, 0, 1, -498.180366, -7754.489373)">
    <g id="Group_164" data-name="Group 164">
      <circle id="Ellipse_48" data-name="Ellipse 48" cx="13" cy="13" r="13" transform="translate(195 7632.848)" fill="#536dfe"/>
      <circle id="Ellipse_49" data-name="Ellipse 49" cx="13" cy="13" r="13" transform="translate(252 7739.848)" fill="#536dfe"/>
      <circle id="Ellipse_50" data-name="Ellipse 50" cx="13" cy="13" r="13" transform="translate(208 7712.848)" fill="#536dfe"/>
      <path id="Path_2685" data-name="Path 2685" d="M667.777,800.745l-.747-.03c1.742-43.312,10.813-71.14,18.115-86.858,7.929-17.067,15.57-23.976,15.646-24.044l.5.559c-.075.067-7.627,6.908-15.493,23.859C678.533,729.883,669.512,757.6,667.777,800.745Z" transform="translate(-40.858 7169.118)" fill="#f2f2f2"/>
      <path id="Path_2686" data-name="Path 2686" d="M747.862,800.835l-.718-.209c8.641-29.66,28.99-48.387,29.2-48.573l.5.553a115.173,115.173,0,0,0-28.98,48.228Z" transform="translate(-40.858 7169.118)" fill="#f2f2f2"/>
      <path id="Path_2689" data-name="Path 2689" d="M446.375,588.11a26.738,26.738,0,0,1,.04,7.335c-.066.552-.151,1.094-.249,1.63v0a43.446,43.446,0,0,1-6.812,16.068c-.218.314-.342.477-.342.477l-.467-.357a44.872,44.872,0,0,1-9.514-10.443c-.227-.359-.455-.722-.673-1.1a28.627,28.627,0,0,1-3.836-10.3l-.008-.053c-.058-.389-.108-.778-.145-1.166a29.416,29.416,0,0,1,.867-10.156c.1-.413.213-.818.331-1.221a44.885,44.885,0,0,1,5.967-12.5c.218-.314.343-.477.343-.477s.167.12.467.356a44.878,44.878,0,0,1,9.294,10.108c.225.343.447.691.665,1.047a30.59,30.59,0,0,1,3.434,7.751c.133.477.252.964.354,1.453C446.2,587.08,446.3,587.592,446.375,588.11Z" transform="translate(-40.858 7169.118)" fill="#cfcce0"/>
      <path id="Path_2691" data-name="Path 2691" d="M585.724,405.958,580.705,489.6s-16.729,46.84,5.019,46.84,8.364-50.186,8.364-50.186l20.074-81.971Z" transform="translate(-40.858 7169.118)" fill="#ffb9b9"/>
      <path id="Path_2692" data-name="Path 2692" d="M747.992,395.92l5.019,83.643s16.729,46.84-5.019,46.84-8.364-50.186-8.364-50.186l-20.075-81.97Z" transform="translate(-40.858 7169.118)" fill="#ffb9b9"/>
      <path id="Path_2693" data-name="Path 2693" d="M647.62,750.569l3.346,41.822s-13.383,33.457,8.364,36.8q.326.05.646.1a17.255,17.255,0,0,0,19.338-20.126l-3.255-18.445s1.673-33.457-8.364-40.149S647.62,750.569,647.62,750.569Z" transform="translate(-40.858 7169.118)" fill="#2f2e41"/>
      <path id="Path_2694" data-name="Path 2694" d="M679.4,713.766s-3.346,10.037-1.673,20.074,3.346,38.476,3.346,38.476,0,30.112,11.71,30.112c4.182,0,7.724-3.627,10.55-8.291a42.452,42.452,0,0,0,4.306-33.149l-6.491-23.8v-18.4Z" transform="translate(-40.858 7169.118)" fill="#2f2e41"/>
      <path id="Path_2695" data-name="Path 2695" d="M617.508,407.631s-36.8,48.513-16.729,120.446,21.747,92.008,21.747,92.008l11.71,137.175s20.074,6.691,36.8-3.346l-5.019-132.156v-80.3l10.037,88.662v88.662s23.42,23.42,40.149,1.673l3.346-98.7S729.59,484.583,722.9,471.2s-21.747-60.223-21.747-60.223Z" transform="translate(-40.858 7169.118)" fill="#2f2e41"/>
      <path id="Path_2696" data-name="Path 2696" d="M650.823,181.915s-17.013-6.076-27.95,18.228-27.949,51.038-27.949,51.038l9.722,2.43s2.43-17.013,8.506-19.443l-2.43,21.874s72.912,25.519,105.722-2.43l-1.215-8.506s4.861,1.215,4.861,8.506l3.646-3.646s-3.646-7.291-14.582-17.013c-7.178-6.381-9.645-18.52-10.493-26.11a31.6,31.6,0,0,0-7.274-17.206C684.118,181.213,670.874,172.261,650.823,181.915Z" transform="translate(-40.858 7169.118)" fill="#2f2e41"/>
      <circle id="Ellipse_51" data-name="Ellipse 51" cx="31.785" cy="31.785" r="31.785" transform="translate(586.688 7367.639)" fill="#ffb9b9"/>
      <path id="Path_2697" data-name="Path 2697" d="M650.966,250.381,640.928,290.53l30.112,86.989,23.42-92.008s-21.747-15.056-16.729-35.13Z" transform="translate(-40.858 7169.118)" fill="#ffb9b9"/>
      <path id="Path_2698" data-name="Path 2698" d="M732.936,479.564s-48.513,18.4-58.55-10.037-8.364-50.186-8.364-50.186-15.056,58.551-40.149,58.551-38.476-8.364-38.476-8.364,18.4-58.551,35.13-68.588c0,0,.084-.2.234-.569.937-2.342,4.249-11.626,1.924-19.79a16.982,16.982,0,0,0-2.158-4.734c-6.692-10.037-13.383-13.383-11.71-38.476l-13.383-46.84,46.155-10.64,24.106,75.881,21.948-74.292,39.948,5.7s3.346,60.223-13.383,81.971a36.113,36.113,0,0,0-5.888,11.426c-2.911,9.234-2.225,18.954-.652,26.716h.017a73.879,73.879,0,0,0,4.851,15.39Z" transform="translate(-40.858 7169.118)" fill="#cfcce0"/>
      <path id="Path_2699" data-name="Path 2699" d="M719.553,288.857l10.037-1.673s4.182-.836,11.71,5.019c9.613,7.477,10.037,108.737,10.037,108.737l-31.784,1.672Z" transform="translate(-40.858 7169.118)" fill="#cfcce0"/>
      <path id="Path_2700" data-name="Path 2700" d="M605.8,293.875l-8.364-3.346s-3.346-1.673-5.019,8.364-10.037,113.755-10.037,113.755l35.13-1.673V335.7Z" transform="translate(-40.858 7169.118)" fill="#cfcce0"/>
      <path id="Path_2701" data-name="Path 2701" d="M622.566,234.934s9.722-13.367,18.228-15.8,9.722-14.582,9.722-14.582,21.874,24.3,35.241,25.519,1.215-29.165,1.215-29.165l-24.3-6.076-23.089,2.43-18.228,12.152Z" transform="translate(-40.858 7169.118)" fill="#2f2e41"/>
      <circle id="Ellipse_52" data-name="Ellipse 52" cx="10.037" cy="10.037" r="10.037" transform="translate(617.636 7549.146)" fill="#2f2e41"/>
      <path id="Path_2704" data-name="Path 2704" d="M266,741.252c-.229-.375-5.641-9.41-7.517-28.172-1.721-17.213-.614-46.227,14.433-86.7,28.506-76.671-6.569-138.533-6.928-139.149l1.73-1c.091.156,9.142,15.929,14.488,41.044A179.062,179.062,0,0,1,274.8,627.08c-28.457,76.54-7.3,112.773-7.084,113.131Z" transform="translate(-40.858 7169.118)" fill="#cfcce0"/>
      <path id="Path_2705" data-name="Path 2705" d="M254.858,483.731a14,14,0,1,1,14-14,14,14,0,0,1-14,14Zm0-26a12,12,0,1,0,12,12,12,12,0,0,0-12-12Z" transform="translate(-40.858 7169.118)" fill="#cfcce0"/>
      <circle id="Ellipse_56" data-name="Ellipse 56" cx="13" cy="13" r="13" transform="translate(242 7673.848)" fill="#cfcce0"/>
      <path id="Path_2706" data-name="Path 2706" d="M267.858,563.731a14,14,0,1,1,14-14,14,14,0,0,1-14,14Zm0-26a12,12,0,1,0,12,12,12,12,0,0,0-12-12Z" transform="translate(-40.858 7169.118)" fill="#cfcce0"/>
      <path id="Path_2707" data-name="Path 2707" d="M301.858,590.731a14,14,0,1,1,14-14,14,14,0,0,1-14,14Zm0-26a12,12,0,1,0,12,12,12,12,0,0,0-12-12Z" transform="translate(-40.858 7169.118)" fill="#cfcce0"/>
      <circle id="Ellipse_59" data-name="Ellipse 59" cx="13" cy="13" r="13" transform="translate(204 7774.848)" fill="#cfcce0"/>
      <path id="Path_2710" data-name="Path 2710" d="M273.858,741.731s-13-32,26-56Z" transform="translate(-40.858 7169.118)" fill="#cfcce0"/>
      <path id="Path_2711" data-name="Path 2711" d="M257.87,741.15s-5.916-34.029-51.708-33.738Z" transform="translate(-40.858 7169.118)" fill="#cfcce0"/>
      <rect id="Rectangle_937" data-name="Rectangle 937" width="210" height="2" transform="translate(107 7908.848)" fill="#cfcce0"/>
    </g>
    <g id="Group_163" data-name="Group 163" transform="translate(-932.158 -422.584)">
      <path id="Path_2722" data-name="Path 2722" d="M697.86,303.075H705.3s6.821,52.71,1.86,57.671-18.6,8.062-20.464,0,0-37.827,0-37.827Z" transform="translate(697.617 7624.036)" fill="#536dfe"/>
      <ellipse id="Ellipse_65" data-name="Ellipse 65" cx="45.269" cy="53.02" rx="45.269" ry="53.02" transform="translate(1301.529 7828.202)" fill="#2f2e41"/>
      <path id="Path_2723" data-name="Path 2723" d="M614.976,248.333s2.48,20.464-4.961,24.8,8.682,29.146,8.682,29.146l19.224,4.961,13.023-17.983-2.48-18.6s-14.883-14.883-8.062-28.526Z" transform="translate(721.59 7642.811)" fill="#ffc1c7"/>
      <path id="Path_2724" data-name="Path 2724" d="M614.976,248.333s2.48,20.464-4.961,24.8,8.682,29.146,8.682,29.146l19.224,4.961,13.023-17.983-2.48-18.6s-14.883-14.883-8.062-28.526Z" transform="translate(721.59 7642.811)" opacity="0.1"/>
      <path id="Path_2725" data-name="Path 2725" d="M576.257,569.1s-7.441,67.593,0,83.716,27.285,61.392,27.285,61.392l-6.2,13.022,16.743-3.721,6.821-13.023s-8.062-31.626-9.3-42.788-10.542-31.626-10.542-31.626l17.363-73.794Z" transform="translate(732.404 7544.184)" fill="#ffc1c7"/>
      <path id="Path_2726" data-name="Path 2726" d="M662.869,551.942s.62,68.213,4.961,78.794l-2.48,92.4,13.643,1.821s19.844-77.515,16.743-96.119.62-85.576.62-85.576Z" transform="translate(704.703 7550.043)" fill="#ffc1c7"/>
      <circle id="Ellipse_66" data-name="Ellipse 66" cx="23.565" cy="23.565" r="23.565" transform="translate(1323.233 7852.386)" fill="#ffc1c7"/>
      <path id="Path_2727" data-name="Path 2727" d="M691.818,479.883s-16.743,11.162-23.565,3.1-90.537,4.961-101.08,2.48,5.581-42.168,5.581-62.632c0-15.311,5.556-38.6,8.353-49.368.943-3.622,1.569-5.823,1.569-5.823s6.362-18.1,5.172-25.623a6.47,6.47,0,0,0-.465-1.656,3.4,3.4,0,0,0-.366-.626c-2.97-3.963-11.485-32.86-14.79-45.269a56,56,0,0,1-1.333-5.581c0-1.86,22.945-7.441,28.681-7.708s7.286,7.708,7.286,7.708c1.86,1.24,10.542,22.944,10.542,22.944l8.062-20.464s-.62-4.341-1.24-4.341,9.172-5.854,9.172-5.854,10.052,7.094,15.633,5.854,18.6,9.922,18.6,9.922-22.944,57.671-13.643,70.074S691.818,479.883,691.818,479.883Z" transform="translate(735.285 7630.784)" fill="#536dfe"/>
      <path id="Path_2728" data-name="Path 2728" d="M617.454,772.871s-10.542,10.542-10.542,11.782l-8.682-3.721s-3.721,13.643-4.341,15.5-11.162,18.6-21.7,26.045,0,16.743,9.3,14.883,32.866-22.945,32.866-22.945,16.123,0,21.7-12.4C636.058,802.016,621.174,771.631,617.454,772.871Z" transform="translate(733.994 7479.319)" fill="#2f2e41"/>
      <path id="Path_2729" data-name="Path 2729" d="M676.035,796.334s-15.931-11.575-16.957-.827-1.026,34.313-1.026,34.313-4.961,15.5,10.542,13.643,16.743-6.2,16.743-6.2L677.9,807.5V794.473Z" transform="translate(706.42 7473.743)" fill="#2f2e41"/>
      <path id="Path_2730" data-name="Path 2730" d="M590.86,345.655c-2.97-3.963-11.485-32.86-14.79-45.269h3.008s7.553,29.56,12.148,45.895a3.4,3.4,0,0,0-.366-.626Z" transform="translate(731.442 7624.864)" opacity="0.1"/>
      <path id="Path_2731" data-name="Path 2731" d="M635.742,407.754s-8.682.62-40.308-5.581a63.227,63.227,0,0,1-6.53-1.618c.943-3.622,1.569-5.823,1.569-5.823s6.362-18.1,5.172-25.623c1.482,5.209,2.586,8.725,2.89,8.88,1.24.62,40.928,7.441,46.509,9.922S635.742,407.754,635.742,407.754Z" transform="translate(727.489 7603.693)" opacity="0.1"/>
      <path id="Path_2732" data-name="Path 2732" d="M672.727,307.322s17.1-2.11,18.164.663,5.4,29.576,7.261,33.012,2.481,24.741-4.961,25.428-17.363-6.872-15.5-13.058S672.727,307.322,672.727,307.322Z" transform="translate(701.666 7622.964)" opacity="0.1"/>
      <path id="Path_2733" data-name="Path 2733" d="M657.7,389.167s26.045,3.1,30.386,0,22.324-3.1,18.6,5.581-35.967,9.3-35.967,9.3h-18.6Z" transform="translate(708.016 7598.095)" fill="#ffc1c7"/>
      <path id="Path_2734" data-name="Path 2734" d="M575.077,294.112h-4.341s-8.682,1.86-7.441,29.146-7.441,45.269,24.185,51.47,40.308,5.581,40.308,5.581,14.883-17.363,9.3-19.844-45.269-9.3-46.509-9.922S575.077,294.112,575.077,294.112Z" transform="translate(735.443 7626.797)" fill="#536dfe"/>
      <path id="Path_2735" data-name="Path 2735" d="M683.451,293.652s-10.866-40.765-19.548-40.765-18.6,1.86-11.162,9.922,16.743,16.743,17.363,21.084a58.426,58.426,0,0,0,3.1,10.542Z" transform="translate(708.629 7639.497)" fill="#ffc1c7"/>
      <path id="Path_2736" data-name="Path 2736" d="M676.312,307.322s17.1-2.11,18.164.663,5.4,29.576,7.261,33.012,2.481,24.741-4.961,25.428-17.363-6.872-15.5-13.058S676.312,307.322,676.312,307.322Z" transform="translate(700.561 7622.964)" fill="#536dfe"/>
      <circle id="Ellipse_67" data-name="Ellipse 67" cx="22.324" cy="22.324" r="22.324" transform="translate(1318.272 7831.302)" fill="#2f2e41"/>
    </g>
    <g id="Group_165" data-name="Group 165" transform="translate(-1052.979 450.414)">
      <path id="Path_2746" data-name="Path 2746" d="M899.152,420.156l-3.471,10.412s-21.692,25.163-6.074,28.634,17.354-26.9,17.354-26.9l4.339-8.677Z" transform="translate(905.703 6757.668)" fill="#ffb8b8"/>
      <path id="Path_2747" data-name="Path 2747" d="M927.309,245.715s-5.206-.868-6.942,19.957-2.6,57.268-2.6,57.268l-19.957,51.194,25.163,7.809,12.148-58.135Z" transform="translate(901.841 6806.294)" fill="#575a89"/>
      <path id="Path_2748" data-name="Path 2748" d="M840.515,555.2l-2.6,16.486H861.34l-.868-16.486Z" transform="translate(977.355 6806.576)" fill="#ffb8b8"/>
      <path id="Path_2750" data-name="Path 2750" d="M928.592,376.549,908.635,491.085l5.206,104.123h26.9V500.629l26.031-48.591,20.824,60.738L992.8,614.3l29.5-5.206-6.939-98.917s-5.206-131.889-10.412-133.625S928.592,376.549,928.592,376.549Z" transform="translate(898.823 6770.039)" fill="#2f2e41"/>
      <path id="Path_2751" data-name="Path 2751" d="M911.024,688.855s0-8.677-6.942-3.471-15.619,14.75-15.619,14.75-32.972,18.222-9.545,20.825A49.219,49.219,0,0,0,917.1,708.811l2.6,2.6s13.883-2.6,13.883-6.074a66.99,66.99,0,0,0-.868-8.677s-1.825-14.718-3.949-11.7S914.495,694.061,911.024,688.855Z" transform="translate(909.449 6684.201)" fill="#2f2e41"/>
      <path id="Path_2752" data-name="Path 2752" d="M1037.237,723.076s-15.618-7.809-19.089-.868-6.074,20.825-6.074,20.825-11.283,21.693,8.675,19.957,19.089-13.015,19.089-15.618-.868-8.677,0-11.28S1037.237,723.076,1037.237,723.076Z" transform="translate(870.875 6674.274)" fill="#2f2e41"/>
      <circle id="Ellipse_82" data-name="Ellipse 82" cx="24.295" cy="24.295" r="24.295" transform="translate(1849.541 6969.145)" fill="#ffb8b8"/>
      <path id="Path_2753" data-name="Path 2753" d="M896.525,60.753l-.868,31.237,31.237-2.6V60.753Z" transform="translate(961.259 6944.401)" fill="#ffb8b8"/>
      <path id="Path_2754" data-name="Path 2754" d="M1000.453,198.8s-14.751,9.545-19.089,11.28-13.883-6.942-13.883-6.942-2.6,1.735-2.6,3.471-1.735,8.677-1.735,8.677L942.32,283.833l1.735,48.591s63.341,6.074,70.283-1.735-3.471-119.741-3.471-119.741Z" transform="translate(889.433 6819.371)" fill="#d0cde1"/>
      <path id="Path_2755" data-name="Path 2755" d="M1004.838,224.062s-23.428,8.677-31.237.868C973.6,224.93,984.879,227.533,1004.838,224.062Z" transform="translate(880.714 6812.329)" opacity="0.1"/>
      <path id="Path_2756" data-name="Path 2756" d="M1072.31,404.947c-9.544,6.074-40.781,13.883-40.781,13.883s-3.41-73.45-15.619-85.034c-12.139-11.532-31.957-94.665-14.135-109.121a2.661,2.661,0,0,1,.252-.208l11.28-26.031s1.735-2.6,5.206.868a94.741,94.741,0,0,1,7.809,9.545l.495.2,23.8,9.345-9.545,42.517S1081.86,398.873,1072.31,404.947Z" transform="translate(874.844 6819.733)" fill="#575a89"/>
      <path id="Path_2757" data-name="Path 2757" d="M1029.572,209.049l-6.568,24.1-18.473-8.469a2.683,2.683,0,0,1,.252-.208l11.28-26.031s1.735-2.6,5.206.868a94.759,94.759,0,0,1,7.809,9.545Z" transform="translate(872.092 6819.733)" opacity="0.1"/>
      <path id="Path_2758" data-name="Path 2758" d="M958.389,204.212l-2.6,29.5-.139,1.345-19.818,188.68s-17.354-6.074-23.428-13.015,13.883-84.166,13.883-84.166l1.735-97.182s15.393-10.837,21.684-16.79c1.475-1.388,2.447-2.508,2.612-3.167C953.183,205.947,958.389,204.212,958.389,204.212Z" transform="translate(898.094 6817.861)" fill="#575a89"/>
      <path id="Path_2759" data-name="Path 2759" d="M970.738,204.212l-2.6,29.5L968,235.058l-12.443-1.779,6.5-20.695c1.475-1.388,2.447-2.508,2.612-3.167C965.531,205.947,970.738,204.212,970.738,204.212Z" transform="translate(885.745 6817.861)" opacity="0.1"/>
      <path id="Path_2762" data-name="Path 2762" d="M966.906,155.169s0-21.426,5.207-26.3h6.248s7.289-10.713,16.661-6.817,24.992,10.713,23.951,21.426a58.655,58.655,0,0,1-4.289,17.635s-1.735,0-5.6-5.824c-5.169-7.782,6.769-5.356-8.851-8.278s-24.992-6.817-27.075-2.922S966.906,155.169,966.906,155.169Z" transform="translate(882.58 6841)" fill="#2f2e41"/>
      <path id="Path_2763" data-name="Path 2763" d="M982.645,130.913s.832-6.262,4.258-7.61Z" transform="translate(878.193 6840.415)" fill="#2f2e41"/>
      <path id="Path_2764" data-name="Path 2764" d="M982.4,132.286s-1.738-6.073.864-8.677Z" transform="translate(878.418 6840.33)" fill="#2f2e41"/>
      <path id="Path_2749" data-name="Path 2749" d="M945.514,579.792l-1.736,22.56,15.619,1.735V578.057Z" transform="translate(947.846 6800.205)" fill="#ffb8b8"/>
      <path id="Path_2760" data-name="Path 2760" d="M1037.281,406.923l-9.545,8.677s4.338,18.222,9.545,19.089c0,0,3.471-5.206,4.338-9.545s8.677-8.677,8.677-8.677Z" transform="translate(865.624 6761.357)" fill="#ffb8b8"/>
      <path id="Path_2761" data-name="Path 2761" d="M1050.239,224.062l11.28,1.735s37.311,63.342,32.972,85.9-39.046,61.606-39.046,61.606l-21.692-17.354,32.1-43.385-16.484-52.061Z" transform="translate(863.947 6812.329)" fill="#575a89"/>
    </g>
  </g>
</svg>