<svg xmlns="http://www.w3.org/2000/svg" width="106" height="106" viewBox="0 0 106 106">
  <g id="learners" transform="translate(-264 -882)">
    <circle id="Ellipse_10" data-name="Ellipse 10" cx="53" cy="53" r="53" transform="translate(264 882)" fill="#fff2f6"/>
    <path id="Icon_awesome-user-alt" data-name="Icon awesome-user-alt" d="M20.52,23.085A11.543,11.543,0,1,0,8.978,11.543,11.546,11.546,0,0,0,20.52,23.085ZM30.78,25.65H26.363a13.953,13.953,0,0,1-11.687,0H10.26A10.259,10.259,0,0,0,0,35.91v1.283A3.849,3.849,0,0,0,3.848,41.04H37.193a3.849,3.849,0,0,0,3.848-3.848V35.91A10.259,10.259,0,0,0,30.78,25.65Z" transform="translate(296.523 914.523)" fill="#fd5183"/>
  </g>
</svg>
