<?xml version="1.0" encoding="utf-8"?>
<svg viewBox="205.438 -354.378 922.856 970.792" xmlns="http://www.w3.org/2000/svg">
  <defs>
    <clipPath id="clip-path">
      <path id="Path_3179" data-name="Path 3179" d="M-4360,1114.1V2144.947h1003.812V1139.875Z" transform="translate(4360)" fill="none" stroke="#707070" stroke-width="1"/>
    </clipPath>
  </defs>
  <g id="Mask_Group_8" data-name="Mask Group 8" transform="matrix(-1, 0, 0, 1, 1126.520264, -1495.072876)" clip-path="url(#clip-path)">
    <path id="general_curved_bg" data-name="general curved bg" d="M-4451.617,1139.675s1103.981,68.839,1002,364.594-922.958,63.74-752.135,433.433-372.243,0-372.243,0l135.129-782.73Z" transform="translate(4360)" fill="rgba(225,235,255,0.51)"/>
  </g>
  <g id="Level_system" data-name="Level system" transform="matrix(1, 0, 0, 1, 194.744095, -143.841522)">
    <path id="Path_1798" data-name="Path 1798" d="M1192.372,1359.861c6.809-16.072,34.29-7,34.29-7s15.149,31.8,20.605,33.277-7.615-29.73-7.615-29.73c10.934.448,36.624,17.407,36.624,17.407s-6.4,33.833-.739,33.9,4.139-30.245,4.139-30.245c10.016,4.56,18.1,18.061,18.1,18.061,9.474,21.5-18.63,32.512-18.63,32.512s-1.966,11.772,3.489,26.33h0a40.866,40.866,0,0,1,2.4,7.212l-2.849-.39c-.125-.793-.282-1.568-.448-2.311h0a.111.111,0,0,0,0-.036c-.134-.448-.327-1.129-.573-1.935h0c-.641-1.819-1.052-3.136-1.3-4.112h0c-1.877-5.7-4.676-13.165-6.983-14.966a5.648,5.648,0,0,0,.788-1.223l-.788,1.223c-6.3,9.761-30.908,8.166-44.1,3.525s-6.75-7.651,1.406-12.856,23.253-1.478,28.108-3.292-1.42-5.151-10.567-5.693-14.908,7.875-29.716,7.266-22.191-29.6-22.191-29.6c9.667,4.511,28.525,1.424,29.7-1.958s-25.676-6.719-29.712-8.314S1185.581,1375.928,1192.372,1359.861Z" transform="translate(-629.345 -963.593)" fill="#50cb88" opacity="0.77"/>
    <path id="Path_2016" data-name="Path 2016" d="M1179.789,905.512s-2.876-5.089-6.173-6.661c-1.967-.936-8.323-3.136-10.451-1.94-4.851,2.724-1.648,11.3.972,13.264,3.431,2.571,15.651,5.25,15.651,5.25Z" transform="translate(-783.62 -766.655)" fill="#ffb27d"/>
    <path id="Path_2017" data-name="Path 2017" d="M806.558,606.555s30.012-1.209,34.272,36.96c3.619,32.252,63.375,7.378,44.422,57.305-13.438,35.387-67.272,21.568-74.887,15.647s-49.274-9-53.753-18.393c-12.542-26.276,5.823-28.668,9.631-40.888S759.439,606.814,806.558,606.555Z" transform="translate(-309.866 -606.55)" fill="#163560"/>
    <path id="Path_2018" data-name="Path 2018" d="M998.851,846.384s29.156,17.062,41.793,14.657a12.691,12.691,0,0,0,4.341-1.931h0c7.324-4.73,16.256-16.672,21.8-24.749,3.171-4.632,5.232-7.991,5.232-7.991l1.268-51.612-3.2-4.659s-10.75,1.595-18.518,9.084-10.594,56.75-18.948,58.568c-5.823,1.272-33.775-4.775-33.775-4.775S996.132,840.261,998.851,846.384Z" transform="translate(-604.092 -696.839)" fill="#9fc1f4"/>
    <path id="Path_2019" data-name="Path 2019" d="M1012.108,909.408c7.324-4.73,16.256-16.672,21.8-24.749.157-12.135-1.451-25.174-9.375-23.253-14.433,3.5-4.547,17.147-5.192,27.916C1018.7,899.925,1012.3,909.121,1012.108,909.408Z" transform="translate(-571.207 -747.141)" fill="#80a7e0"/>
    <path id="Path_2026" data-name="Path 2026" d="M933.159,671.071s8.807-6.974,12.852-14.155c2.889-5.129,7.2-26.375-14.186-30.59a29.294,29.294,0,0,0-12.99.318c-5.47,1.438-14.11,5.649-13.17,25.837l-.242,6.621Z" transform="translate(-437.936 -617.148)" fill="#163560"/>
    <path id="Path_2027" data-name="Path 2027" d="M880.187,867.251l51.576-2.24,5.635-.228,10.11-41.291,1.958-8.009L934.787,773.7c-31.481-2.5-49.274,1.792-49.274,1.792a143.953,143.953,0,0,0-12.121,31.8C868.6,826.072,880.187,867.251,880.187,867.251Z" transform="translate(-424.101 -698.395)" fill="#9fc1f4"/>
    <path id="Path_2028" data-name="Path 2028" d="M960.6,750.457c-1.115-2.535-3.713-15.087-2.97-21.367l-1.2.045-20.18.784s-.1,4.883-.6,9.407v.117a50.963,50.963,0,0,0-.417,10.88c.143,2.24,7.391,3.9,15.826,3.7C954.048,753.978,961.336,752.132,960.6,750.457Z" transform="translate(-463.448 -674.199)" fill="#ffb27d"/>
    <path id="Path_2029" data-name="Path 2029" d="M945.13,729.946s-.1,4.883-.6,9.407c11.127,1.021,17.882-6.146,20.78-10.213Z" transform="translate(-472.332 -674.227)" fill="#e8945b"/>
    <path id="Path_2030" data-name="Path 2030" d="M923.045,681.135s25.443,9.407,31.047-6.549,12.663-25.457-3.346-32.126-21.322-1.7-24.489,3.162S916.568,678.281,923.045,681.135Z" transform="translate(-456.741 -624.591)" fill="#ffb27d"/>
    <path id="Path_2031" data-name="Path 2031" d="M910.63,634.479s.448,21.161,10.24,27.692,15.459,5.286,15.459,5.286a32.3,32.3,0,0,1-3.655-21.5C932.691,645.978,919.051,627.429,910.63,634.479Z" transform="translate(-428.165 -621.086)" fill="#163560"/>
    <path id="Path_2032" data-name="Path 2032" d="M983.223,635.166s-3.74-1.393-9.452,3.525c-2.616,2.24-8.48,13.062-8.48,13.062s-.824-14.563,7.615-19.678C981.884,626.655,983.223,635.166,983.223,635.166Z" transform="translate(-499.535 -619.645)" fill="#163560"/>
    <path id="Path_2033" data-name="Path 2033" d="M991.11,713.3a11.951,11.951,0,0,1-7.212-.022c-2.508-.9-2.508-4.058-2.508-4.058a10.359,10.359,0,0,1,4.659.9,20.183,20.183,0,0,1,5.062,3.185Z" transform="translate(-514.643 -663.218)" fill="#fff"/>
    <path id="Path_2034" data-name="Path 2034" d="M921.54,771.01s12.278-2.468,16.493-10.28c0,0,5.8.833,7.942,3.176,0,0-6.719,12.816-19.584,14.563C926.391,778.468,921.939,774.343,921.54,771.01Z" transform="translate(-442.699 -691.666)" fill="#fff"/>
    <path id="Path_2035" data-name="Path 2035" d="M982.319,762.42a12.093,12.093,0,0,0-5.734,3.431s-2.629,6.173,4.748,12.757c0,0,3.973-6.271,8.094-6.665C989.446,771.943,981.772,768.055,982.319,762.42Z" transform="translate(-510.604 -692.599)" fill="#fff"/>
    <path id="Path_2036" data-name="Path 2036" d="M975.8,783.278a1.268,1.268,0,1,0-1.268,1.268A1.268,1.268,0,0,0,975.8,783.278Z" transform="translate(-495.686 -703.414)" fill="#163560"/>
    <circle id="Ellipse_11" data-name="Ellipse 11" cx="1.268" cy="1.268" r="1.268" transform="translate(470.376 96.007)" fill="#163560"/>
    <circle id="Ellipse_12" data-name="Ellipse 12" cx="1.268" cy="1.268" r="1.268" transform="translate(466.658 116.478)" fill="#163560"/>
    <path id="Path_2037" data-name="Path 2037" d="M1003,919.568a1.268,1.268,0,1,0-1.268,1.268A1.268,1.268,0,0,0,1003,919.568Z" transform="translate(-535.07 -778.654)" fill="#163560"/>
    <path id="Path_2038" data-name="Path 2038" d="M734.17,776.712l7.387-8.892s22.491,1.384,32.986,14.563,31.24,41.385,36.673,55.4,14.258,49.13,14.258,49.13-3.355,4.085-13.532,3.454c0,0-20.363-45.511-23.862-47.845S751.03,811.7,751.03,811.7Z" transform="translate(-238.266 -695.581)" fill="#9fc1f4"/>
    <path id="Path_2039" data-name="Path 2039" d="M876.891,917.391c.448,1.2,2.159,1.949,4.385,2.405l5.635-.219,10.11-41.291s-8.135-8.789-11.646-5.29,4.081,22.742,0,28.767S875.194,912.988,876.891,917.391Z" transform="translate(-373.615 -753.189)" fill="#80a7e0"/>
    <path id="Path_2040" data-name="Path 2040" d="M1045.373,1443.546h41.592s.994-6.339-1.178-11.15c-2.083-4.614-11.911-18.952-12.206-22.486-2.643,2.723-3.077,4.865-9.089,4.058-.094.152,1.792,9.147,2.28,11.328.533,2.383-3.584,7.579-5.725,9.12C1058.332,1436.379,1046.211,1435.68,1045.373,1443.546Z" transform="translate(-639.385 -1050.052)" fill="#233862"/>
    <path id="Path_2041" data-name="Path 2041" d="M824.333,1567.516h41.591s.994-6.338-1.178-11.149c-2.078-4.614-5.322-7.463-5.617-11-2.643,2.724-5.89,4.479-11.906,3.664-.735,1.192-4.753,7.584-7.216,9.353C837.292,1560.34,825.17,1559.641,824.333,1567.516Z" transform="translate(-319.332 -1124.833)" fill="#233862"/>
    <path id="Path_2042" data-name="Path 2042" d="M912.186,1124.481c10.02,32,21.627,65.574,21.627,65.574l17.237-1.792s-3.583-80.979-15.651-101.871c-.6-1.039.269-2.432,2.24-4.121h0c7.275-6.2,29.564-16.327,49.139-27.02,15.8-8.632,29.811-17.635,32.7-25.232,7.427-19.575-28.857-42.429-28.857-42.429H962.562s-46.407,48.951-60.719,80.522C897,1078.84,904.791,1100.87,912.186,1124.481Z" transform="translate(-507.708 -816.906)" fill="#fd5183"/>
    <path id="Path_2043" data-name="Path 2043" d="M824.344,985.846s70.278,185.7,73.015,253.535c0,0,8.959,3.789,18.289-6.719,0,0,2.912-83.873-3.7-98.646s4.17-119.954-26.684-149.586Z" transform="translate(-369.472 -815.162)" fill="#fd5183"/>
    <path id="Path_2044" data-name="Path 2044" d="M894.31,963.71s5.375,4.251,16.045,4.479c12.748.255,44.346-3.252,44.346-3.252A26.15,26.15,0,0,1,956.045,973s-25.185,6.352-46.931,4.381a55.066,55.066,0,0,1-13.989-2.961C895.107,974.407,892.241,968.982,894.31,963.71Z" transform="translate(-440.235 -803.723)" fill="#233862"/>
    <rect id="Rectangle_903" data-name="Rectangle 903" width="672.323" height="3.758" rx="1.879" transform="translate(172.353 498.268)" fill="#233862"/>
    <path id="Path_1794" data-name="Path 1794" d="M410.47,1613.378s47.507-74.925,120.22-64.128c0,0,14.082,2.289,14.027,17.335s-27.075,7.535-45.6,8.371S433.908,1588.306,410.47,1613.378Z" transform="translate(247.74 -1113.231)" fill="#50cb88" opacity="0.77"/>
    <path id="Path_1795" data-name="Path 1795" d="M506.831,1572.709s15.753-86.333,77.628-98.088c0,0,12.046-2.084,16.507,12.371s-19.563,15.463-34.245,21.9S518.181,1541.524,506.831,1572.709Z" transform="translate(147.783 -1072.561)" fill="#50cb88" opacity="0.77"/>
    <path id="Path_2020" data-name="Path 2020" d="M762.51,1039.67a28.13,28.13,0,0,0-1.214,4.856c-.143,1.72-1.021,8.018-.632,8.018s1.872-.094,2.15-3.35,1.2-3.382,1.151-3.731-.385-5.792-.385-5.792Z" transform="translate(-188.584 -845.658)" fill="#ffb27d"/>
    <path id="Path_2025" data-name="Path 2025" d="M738.191,1032.83a38.418,38.418,0,0,0-1.42,9.877c.072,3.924,1.474,8.255,3.216,8.883,3.042,1.084,8.161-2.522,8.959-4.229,1.6-3.5-2.24-13.51-2.24-13.51Z" transform="translate(-163.292 -841.882)" fill="#ffb27d"/>
    <rect id="Rectangle_904" data-name="Rectangle 904" width="72" height="56" transform="translate(487.562 441.86)" fill="#6c63ff"/>
    <rect id="Rectangle_905" data-name="Rectangle 905" width="73" height="106" transform="translate(386.562 391.86)" fill="#6c63ff"/>
    <rect id="Rectangle_906" data-name="Rectangle 906" width="73" height="175" transform="translate(279.562 322.86)" fill="#6c63ff"/>
    <text id="_1" data-name="1" transform="translate(517.562 480.86)" fill="#fff" font-size="30" font-family="Montserrat-Bold, Montserrat" font-weight="700" style="white-space: pre;"><tspan x="0" y="0">1</tspan></text>
    <text id="_2" data-name="2" transform="translate(414.562 456.86)" fill="#fff" font-size="30" font-family="Montserrat-Bold, Montserrat" font-weight="700" style="white-space: pre;"><tspan x="0" y="0">2</tspan></text>
    <text id="_3" data-name="3" transform="translate(307.562 420.86)" fill="#fff" font-size="30" font-family="Montserrat-Bold, Montserrat" font-weight="700" style="white-space: pre;"><tspan x="0" y="0">3</tspan></text>
  </g>
</svg>