<svg width="529" height="193" viewBox="0 0 529 193" fill="none" xmlns="http://www.w3.org/2000/svg">
<path d="M481.5 176.487C488.956 176.487 495 170.249 495 162.553C495 154.858 488.956 148.62 481.5 148.62C474.044 148.62 468 154.858 468 162.553C468 170.249 474.044 176.487 481.5 176.487Z" fill="#E6FFF2"/>
<path d="M484.842 160.66C485.501 160.99 486.001 161.42 486.343 161.952C486.698 162.484 486.875 163.099 486.875 163.795C486.875 164.619 486.641 165.341 486.172 165.961C485.703 166.569 485.045 167.044 484.196 167.386C483.347 167.716 482.366 167.88 481.251 167.88C480.136 167.88 479.155 167.716 478.306 167.386C477.47 167.044 476.818 166.569 476.349 165.961C475.893 165.341 475.665 164.619 475.665 163.795C475.665 163.099 475.836 162.484 476.178 161.952C476.533 161.42 477.033 160.99 477.679 160.66C477.185 160.356 476.805 159.976 476.539 159.52C476.273 159.052 476.14 158.52 476.14 157.924C476.14 157.152 476.355 156.48 476.786 155.91C477.217 155.34 477.818 154.903 478.591 154.599C479.364 154.283 480.25 154.124 481.251 154.124C482.264 154.124 483.157 154.283 483.93 154.599C484.715 154.903 485.323 155.34 485.754 155.91C486.185 156.48 486.4 157.152 486.4 157.924C486.4 158.52 486.267 159.052 486.001 159.52C485.735 159.976 485.349 160.356 484.842 160.66ZM481.251 156.385C480.63 156.385 480.13 156.537 479.75 156.841C479.383 157.133 479.199 157.538 479.199 158.057C479.199 158.564 479.383 158.963 479.75 159.254C480.117 159.546 480.618 159.691 481.251 159.691C481.884 159.691 482.391 159.546 482.771 159.254C483.151 158.963 483.341 158.564 483.341 158.057C483.341 157.538 483.151 157.133 482.771 156.841C482.391 156.537 481.884 156.385 481.251 156.385ZM481.251 165.619C482.024 165.619 482.632 165.448 483.075 165.106C483.531 164.752 483.759 164.283 483.759 163.7C483.759 163.118 483.531 162.655 483.075 162.313C482.632 161.971 482.024 161.8 481.251 161.8C480.491 161.8 479.889 161.971 479.446 162.313C479.003 162.655 478.781 163.118 478.781 163.7C478.781 164.296 479.003 164.764 479.446 165.106C479.889 165.448 480.491 165.619 481.251 165.619Z" fill="#50CB88"/>
<path d="M16 0H513C517.243 0 521.313 1.7398 524.314 4.83665C527.314 7.93351 529 12.1338 529 16.5134V52.6364H0V16.5134C0 12.1338 1.68571 7.93351 4.68629 4.83665C7.68687 1.7398 11.7565 0 16 0V0Z" fill="#EAEDF4" fill-opacity="0.69"/>
<path d="M108.608 97.0645V78.8998C108.607 78.1033 108.404 77.3209 108.018 76.6313C107.631 75.9416 107.076 75.3689 106.408 74.9707L91.008 65.8883C90.3391 65.4897 89.5804 65.2799 88.808 65.2799C88.0356 65.2799 87.2769 65.4897 86.608 65.8883L71.208 74.9707C70.5381 75.3679 69.9814 75.9401 69.5938 76.6299C69.2062 77.3196 69.0014 78.1025 69 78.8998V97.0645C69.0006 97.861 69.2042 98.6434 69.5904 99.333C69.9765 100.023 70.5316 100.595 71.2 100.994L86.6 110.076C87.2689 110.475 88.0276 110.684 88.8 110.684C89.5724 110.684 90.3311 110.475 91 110.076L106.4 100.994C107.07 100.596 107.627 100.024 108.014 99.3345C108.402 98.6447 108.607 97.8619 108.608 97.0645V97.0645Z" fill="#FFF2F6"/>
<path d="M91.685 75.3911V96.3911H86.825V79.2911H82.625V75.3911H91.685Z" fill="#FD5183"/>
<path d="M460.608 96.8065V78.6418C460.607 77.8453 460.404 77.0629 460.018 76.3733C459.631 75.6836 459.076 75.1109 458.408 74.7127L443.008 65.6303C442.339 65.2317 441.58 65.0219 440.808 65.0219C440.036 65.0219 439.277 65.2317 438.608 65.6303L423.208 74.7127C422.538 75.1099 421.981 75.6821 421.594 76.3719C421.206 77.0616 421.001 77.8445 421 78.6418V96.8065C421.001 97.603 421.204 98.3854 421.59 99.0751C421.977 99.7647 422.532 100.337 423.2 100.736L438.6 109.818C439.269 110.217 440.028 110.426 440.8 110.426C441.572 110.426 442.331 110.217 443 109.818L458.4 100.736C459.07 100.338 459.627 99.7662 460.014 99.0765C460.402 98.3868 460.607 97.6039 460.608 96.8065V96.8065Z" fill="#E6FFF2"/>
<path d="M442.98 83.6356C444.82 83.9356 446.23 84.6256 447.21 85.7056C448.19 86.7656 448.68 88.0856 448.68 89.6656C448.68 90.8856 448.36 92.0156 447.72 93.0556C447.08 94.0756 446.1 94.8956 444.78 95.5156C443.48 96.1356 441.88 96.4456 439.98 96.4456C438.5 96.4456 437.04 96.2556 435.6 95.8756C434.18 95.4756 432.97 94.9156 431.97 94.1956L433.86 90.4756C434.66 91.0756 435.58 91.5456 436.62 91.8856C437.68 92.2056 438.76 92.3656 439.86 92.3656C441.08 92.3656 442.04 92.1356 442.74 91.6756C443.44 91.1956 443.79 90.5256 443.79 89.6656C443.79 87.9456 442.48 87.0856 439.86 87.0856H437.64V83.8756L441.96 78.9856H433.02V75.0856H447.72V78.2356L442.98 83.6356Z" fill="#50CB88"/>
<path d="M513 1.0321H16C7.71573 1.0321 1 7.96331 1 16.5134V176.487C1 185.037 7.71573 191.968 16 191.968H513C521.284 191.968 528 185.037 528 176.487V16.5134C528 7.96331 521.284 1.0321 513 1.0321Z" stroke="#6C63FF" stroke-width="2"/>
<path d="M284.608 96.8065V78.6418C284.607 77.8453 284.404 77.0629 284.018 76.3733C283.631 75.6836 283.076 75.1109 282.408 74.7127L267.008 65.6303C266.339 65.2317 265.58 65.0219 264.808 65.0219C264.036 65.0219 263.277 65.2317 262.608 65.6303L247.208 74.7127C246.538 75.1099 245.981 75.6821 245.594 76.3719C245.206 77.0616 245.001 77.8445 245 78.6418V96.8065C245.001 97.603 245.204 98.3854 245.59 99.0751C245.977 99.7647 246.532 100.337 247.2 100.736L262.6 109.818C263.269 110.217 264.028 110.426 264.8 110.426C265.572 110.426 266.331 110.217 267 109.818L282.4 100.736C283.07 100.338 283.627 99.7662 284.014 99.0765C284.402 98.3868 284.607 97.6039 284.608 96.8065V96.8065Z" fill="#E1EBFF"/>
<path d="M272.86 92.1256V96.0856H256.99V92.9356L265.09 85.2856C265.95 84.4656 266.53 83.7656 266.83 83.1856C267.13 82.5856 267.28 81.9956 267.28 81.4156C267.28 80.5756 266.99 79.9356 266.41 79.4956C265.85 79.0356 265.02 78.8056 263.92 78.8056C263 78.8056 262.17 78.9856 261.43 79.3456C260.69 79.6856 260.07 80.2056 259.57 80.9056L256.03 78.6256C256.85 77.4056 257.98 76.4556 259.42 75.7756C260.86 75.0756 262.51 74.7256 264.37 74.7256C265.93 74.7256 267.29 74.9856 268.45 75.5056C269.63 76.0056 270.54 76.7256 271.18 77.6656C271.84 78.5856 272.17 79.6756 272.17 80.9356C272.17 82.0756 271.93 83.1456 271.45 84.1456C270.97 85.1456 270.04 86.2856 268.66 87.5656L263.83 92.1256H272.86Z" fill="#3A7CFF"/>
<path d="M184.992 16.5209H188.88V30.1529H197.304V33.3209H184.992V16.5209ZM211.767 26.9129C211.767 26.9609 211.743 27.2969 211.695 27.9209H201.927C202.103 28.7209 202.519 29.3529 203.175 29.8169C203.831 30.2809 204.647 30.5129 205.623 30.5129C206.295 30.5129 206.887 30.4169 207.399 30.2249C207.927 30.0169 208.415 29.6969 208.863 29.2649L210.855 31.4249C209.639 32.8169 207.863 33.5129 205.527 33.5129C204.071 33.5129 202.783 33.2329 201.663 32.6729C200.543 32.0969 199.679 31.3049 199.071 30.2969C198.463 29.2889 198.159 28.1449 198.159 26.8649C198.159 25.6009 198.455 24.4649 199.047 23.4569C199.655 22.4329 200.479 21.6409 201.519 21.0809C202.575 20.5049 203.751 20.2169 205.047 20.2169C206.311 20.2169 207.455 20.4889 208.479 21.0329C209.503 21.5769 210.303 22.3609 210.879 23.3849C211.471 24.3929 211.767 25.5689 211.767 26.9129ZM205.071 23.0489C204.223 23.0489 203.511 23.2889 202.935 23.7689C202.359 24.2489 202.007 24.9049 201.879 25.7369H208.239C208.111 24.9209 207.759 24.2729 207.183 23.7929C206.607 23.2969 205.903 23.0489 205.071 23.0489ZM226.841 20.4089L221.393 33.3209H217.529L212.105 20.4089H215.969L219.545 29.1929L223.241 20.4089H226.841ZM240.665 26.9129C240.665 26.9609 240.641 27.2969 240.593 27.9209H230.825C231.001 28.7209 231.417 29.3529 232.073 29.8169C232.729 30.2809 233.545 30.5129 234.521 30.5129C235.193 30.5129 235.785 30.4169 236.297 30.2249C236.825 30.0169 237.313 29.6969 237.761 29.2649L239.753 31.4249C238.537 32.8169 236.761 33.5129 234.425 33.5129C232.969 33.5129 231.681 33.2329 230.561 32.6729C229.441 32.0969 228.577 31.3049 227.969 30.2969C227.361 29.2889 227.057 28.1449 227.057 26.8649C227.057 25.6009 227.353 24.4649 227.945 23.4569C228.553 22.4329 229.377 21.6409 230.417 21.0809C231.473 20.5049 232.649 20.2169 233.945 20.2169C235.209 20.2169 236.353 20.4889 237.377 21.0329C238.401 21.5769 239.201 22.3609 239.777 23.3849C240.369 24.3929 240.665 25.5689 240.665 26.9129ZM233.969 23.0489C233.121 23.0489 232.409 23.2889 231.833 23.7689C231.257 24.2489 230.905 24.9049 230.777 25.7369H237.137C237.009 24.9209 236.657 24.2729 236.081 23.7929C235.505 23.2969 234.801 23.0489 233.969 23.0489ZM243.158 15.5129H246.902V33.3209H243.158V15.5129ZM262.957 33.6089C261.629 33.6089 260.341 33.4329 259.093 33.0809C257.861 32.7129 256.869 32.2409 256.117 31.6649L257.437 28.7369C258.157 29.2649 259.013 29.6889 260.005 30.0089C260.997 30.3289 261.989 30.4889 262.981 30.4889C264.085 30.4889 264.901 30.3289 265.429 30.0089C265.957 29.6729 266.221 29.2329 266.221 28.6889C266.221 28.2889 266.061 27.9609 265.741 27.7049C265.437 27.4329 265.037 27.2169 264.541 27.0569C264.061 26.8969 263.405 26.7209 262.573 26.5289C261.293 26.2249 260.245 25.9209 259.429 25.6169C258.613 25.3129 257.909 24.8249 257.317 24.1529C256.741 23.4809 256.453 22.5849 256.453 21.4649C256.453 20.4889 256.717 19.6089 257.245 18.8249C257.773 18.0249 258.565 17.3929 259.621 16.9289C260.693 16.4649 261.997 16.2329 263.533 16.2329C264.605 16.2329 265.653 16.3609 266.677 16.6169C267.701 16.8729 268.597 17.2409 269.365 17.7209L268.165 20.6729C266.613 19.7929 265.061 19.3529 263.509 19.3529C262.421 19.3529 261.613 19.5289 261.085 19.8809C260.573 20.2329 260.317 20.6969 260.317 21.2729C260.317 21.8489 260.613 22.2809 261.205 22.5689C261.813 22.8409 262.733 23.1129 263.965 23.3849C265.245 23.6889 266.293 23.9929 267.109 24.2969C267.925 24.6009 268.621 25.0809 269.197 25.7369C269.789 26.3929 270.085 27.2809 270.085 28.4009C270.085 29.3609 269.813 30.2409 269.269 31.0409C268.741 31.8249 267.941 32.4489 266.869 32.9129C265.797 33.3769 264.493 33.6089 262.957 33.6089ZM285.06 20.4089L279.228 34.1129C278.636 35.6009 277.9 36.6489 277.02 37.2569C276.156 37.8649 275.108 38.1689 273.876 38.1689C273.204 38.1689 272.54 38.0649 271.884 37.8569C271.228 37.6489 270.692 37.3609 270.276 36.9929L271.644 34.3289C271.932 34.5849 272.26 34.7849 272.628 34.9289C273.012 35.0729 273.388 35.1449 273.756 35.1449C274.268 35.1449 274.684 35.0169 275.004 34.7609C275.324 34.5209 275.612 34.1129 275.868 33.5369L275.916 33.4169L270.324 20.4089H274.188L277.812 29.1689L281.46 20.4089H285.06ZM290.744 33.5129C289.672 33.5129 288.624 33.3849 287.6 33.1289C286.576 32.8569 285.76 32.5209 285.152 32.1209L286.4 29.4329C286.976 29.8009 287.672 30.1049 288.488 30.3449C289.304 30.5689 290.104 30.6809 290.888 30.6809C292.472 30.6809 293.264 30.2889 293.264 29.5049C293.264 29.1369 293.048 28.8729 292.616 28.7129C292.184 28.5529 291.52 28.4169 290.624 28.3049C289.568 28.1449 288.696 27.9609 288.008 27.7529C287.32 27.5449 286.72 27.1769 286.208 26.6489C285.712 26.1209 285.464 25.3689 285.464 24.3929C285.464 23.5769 285.696 22.8569 286.16 22.2329C286.64 21.5929 287.328 21.0969 288.224 20.7449C289.136 20.3929 290.208 20.2169 291.44 20.2169C292.352 20.2169 293.256 20.3209 294.152 20.5289C295.064 20.7209 295.816 20.9929 296.408 21.3449L295.16 24.0089C294.024 23.3689 292.784 23.0489 291.44 23.0489C290.64 23.0489 290.04 23.1609 289.64 23.3849C289.24 23.6089 289.04 23.8969 289.04 24.2489C289.04 24.6489 289.256 24.9289 289.688 25.0889C290.12 25.2489 290.808 25.4009 291.752 25.5449C292.808 25.7209 293.672 25.9129 294.344 26.1209C295.016 26.3129 295.6 26.6729 296.096 27.2009C296.592 27.7289 296.84 28.4649 296.84 29.4089C296.84 30.2089 296.6 30.9209 296.12 31.5449C295.64 32.1689 294.936 32.6569 294.008 33.0089C293.096 33.3449 292.008 33.5129 290.744 33.5129ZM307.478 32.6969C307.11 32.9689 306.654 33.1769 306.11 33.3209C305.582 33.4489 305.022 33.5129 304.43 33.5129C302.894 33.5129 301.702 33.1209 300.854 32.3369C300.022 31.5529 299.606 30.4009 299.606 28.8809V23.5769H297.614V20.6969H299.606V17.5529H303.35V20.6969H306.566V23.5769H303.35V28.8329C303.35 29.3769 303.486 29.8009 303.758 30.1049C304.046 30.3929 304.446 30.5369 304.958 30.5369C305.55 30.5369 306.054 30.3769 306.47 30.0569L307.478 32.6969ZM321.829 26.9129C321.829 26.9609 321.805 27.2969 321.757 27.9209H311.989C312.165 28.7209 312.581 29.3529 313.237 29.8169C313.893 30.2809 314.709 30.5129 315.685 30.5129C316.357 30.5129 316.949 30.4169 317.461 30.2249C317.989 30.0169 318.477 29.6969 318.925 29.2649L320.917 31.4249C319.701 32.8169 317.925 33.5129 315.589 33.5129C314.133 33.5129 312.845 33.2329 311.725 32.6729C310.605 32.0969 309.741 31.3049 309.133 30.2969C308.525 29.2889 308.221 28.1449 308.221 26.8649C308.221 25.6009 308.517 24.4649 309.109 23.4569C309.717 22.4329 310.541 21.6409 311.581 21.0809C312.637 20.5049 313.813 20.2169 315.109 20.2169C316.373 20.2169 317.517 20.4889 318.541 21.0329C319.565 21.5769 320.365 22.3609 320.941 23.3849C321.533 24.3929 321.829 25.5689 321.829 26.9129ZM315.133 23.0489C314.285 23.0489 313.573 23.2889 312.997 23.7689C312.421 24.2489 312.069 24.9049 311.941 25.7369H318.301C318.173 24.9209 317.821 24.2729 317.245 23.7929C316.669 23.2969 315.965 23.0489 315.133 23.0489ZM340.858 20.2169C342.474 20.2169 343.754 20.6969 344.698 21.6569C345.658 22.6009 346.138 24.0249 346.138 25.9289V33.3209H342.394V26.5049C342.394 25.4809 342.178 24.7209 341.746 24.2249C341.33 23.7129 340.73 23.4569 339.946 23.4569C339.066 23.4569 338.37 23.7449 337.858 24.3209C337.346 24.8809 337.09 25.7209 337.09 26.8409V33.3209H333.346V26.5049C333.346 24.4729 332.53 23.4569 330.898 23.4569C330.034 23.4569 329.346 23.7449 328.834 24.3209C328.322 24.8809 328.066 25.7209 328.066 26.8409V33.3209H324.322V20.4089H327.898V21.8969C328.378 21.3529 328.962 20.9369 329.65 20.6489C330.354 20.3609 331.122 20.2169 331.954 20.2169C332.866 20.2169 333.69 20.4009 334.426 20.7689C335.162 21.1209 335.754 21.6409 336.202 22.3289C336.73 21.6569 337.394 21.1369 338.194 20.7689C339.01 20.4009 339.898 20.2169 340.858 20.2169Z" fill="#081240"/>
<path d="M64.564 124.412H67.376V129.808C66.654 130.353 65.818 130.771 64.868 131.062C63.918 131.354 62.9617 131.499 61.999 131.499C60.6183 131.499 59.377 131.208 58.275 130.625C57.173 130.03 56.3053 129.213 55.672 128.174C55.0513 127.123 54.741 125.939 54.741 124.621C54.741 123.304 55.0513 122.126 55.672 121.087C56.3053 120.036 57.1793 119.219 58.294 118.636C59.4087 118.041 60.6627 117.743 62.056 117.743C63.2213 117.743 64.279 117.94 65.229 118.332C66.179 118.725 66.977 119.295 67.623 120.042L65.647 121.866C64.697 120.866 63.5507 120.365 62.208 120.365C61.3593 120.365 60.6057 120.543 59.947 120.897C59.2883 121.252 58.7753 121.752 58.408 122.398C58.0407 123.044 57.857 123.785 57.857 124.621C57.857 125.445 58.0407 126.179 58.408 126.825C58.7753 127.471 59.282 127.978 59.928 128.345C60.5867 128.7 61.334 128.877 62.17 128.877C63.0567 128.877 63.8547 128.687 64.564 128.307V124.412ZM72.8572 122.398C73.2119 121.904 73.6869 121.531 74.2822 121.277C74.8902 121.024 75.5869 120.897 76.3722 120.897V123.633C76.0429 123.608 75.8212 123.595 75.7072 123.595C74.8585 123.595 74.1935 123.836 73.7122 124.317C73.2309 124.786 72.9902 125.495 72.9902 126.445V131.271H70.0262V121.049H72.8572V122.398ZM82.2019 120.897C83.7853 120.897 85.0013 121.277 85.8499 122.037C86.6986 122.785 87.1229 123.918 87.1229 125.438V131.271H84.3489V129.998C83.7916 130.948 82.7529 131.423 81.2329 131.423C80.4476 131.423 79.7636 131.29 79.1809 131.024C78.6109 130.758 78.1739 130.391 77.8699 129.922C77.5659 129.454 77.4139 128.922 77.4139 128.326C77.4139 127.376 77.7686 126.629 78.4779 126.084C79.1999 125.54 80.3083 125.267 81.8029 125.267H84.1589C84.1589 124.621 83.9626 124.127 83.5699 123.785C83.1773 123.431 82.5883 123.253 81.8029 123.253C81.2583 123.253 80.7199 123.342 80.1879 123.519C79.6686 123.684 79.2253 123.912 78.8579 124.203L77.7939 122.132C78.3513 121.74 79.0163 121.436 79.7889 121.22C80.5743 121.005 81.3786 120.897 82.2019 120.897ZM81.9739 129.428C82.4806 129.428 82.9303 129.314 83.3229 129.086C83.7156 128.846 83.9943 128.497 84.1589 128.041V126.996H82.1259C80.9099 126.996 80.3019 127.395 80.3019 128.193C80.3019 128.573 80.4476 128.877 80.7389 129.105C81.0429 129.321 81.4546 129.428 81.9739 129.428ZM100.329 117.173V131.271H97.4978V130.093C96.7632 130.98 95.6992 131.423 94.3058 131.423C93.3432 131.423 92.4692 131.208 91.6838 130.777C90.9112 130.347 90.3032 129.732 89.8598 128.934C89.4165 128.136 89.1948 127.212 89.1948 126.16C89.1948 125.109 89.4165 124.184 89.8598 123.386C90.3032 122.588 90.9112 121.974 91.6838 121.543C92.4692 121.113 93.3432 120.897 94.3058 120.897C95.6105 120.897 96.6302 121.309 97.3648 122.132V117.173H100.329ZM94.8188 128.991C95.5662 128.991 96.1868 128.738 96.6808 128.231C97.1748 127.712 97.4218 127.022 97.4218 126.16C97.4218 125.299 97.1748 124.615 96.6808 124.108C96.1868 123.589 95.5662 123.329 94.8188 123.329C94.0588 123.329 93.4318 123.589 92.9378 124.108C92.4438 124.615 92.1968 125.299 92.1968 126.16C92.1968 127.022 92.4438 127.712 92.9378 128.231C93.4318 128.738 94.0588 128.991 94.8188 128.991ZM113.085 126.198C113.085 126.236 113.066 126.502 113.028 126.996H105.295C105.434 127.63 105.764 128.13 106.283 128.497C106.802 128.865 107.448 129.048 108.221 129.048C108.753 129.048 109.222 128.972 109.627 128.82C110.045 128.656 110.431 128.402 110.786 128.06L112.363 129.77C111.4 130.872 109.994 131.423 108.145 131.423C106.992 131.423 105.973 131.202 105.086 130.758C104.199 130.302 103.515 129.675 103.034 128.877C102.553 128.079 102.312 127.174 102.312 126.16C102.312 125.16 102.546 124.26 103.015 123.462C103.496 122.652 104.149 122.025 104.972 121.581C105.808 121.125 106.739 120.897 107.765 120.897C108.766 120.897 109.671 121.113 110.482 121.543C111.293 121.974 111.926 122.595 112.382 123.405C112.851 124.203 113.085 125.134 113.085 126.198ZM107.784 123.139C107.113 123.139 106.549 123.329 106.093 123.709C105.637 124.089 105.358 124.609 105.257 125.267H110.292C110.191 124.621 109.912 124.108 109.456 123.728C109 123.336 108.443 123.139 107.784 123.139ZM118.497 131.423C117.649 131.423 116.819 131.322 116.008 131.119C115.198 130.904 114.552 130.638 114.07 130.321L115.058 128.193C115.514 128.485 116.065 128.725 116.711 128.915C117.357 129.093 117.991 129.181 118.611 129.181C119.865 129.181 120.492 128.871 120.492 128.25C120.492 127.959 120.321 127.75 119.979 127.623C119.637 127.497 119.112 127.389 118.402 127.3C117.566 127.174 116.876 127.028 116.331 126.863C115.787 126.699 115.312 126.407 114.906 125.989C114.514 125.571 114.317 124.976 114.317 124.203C114.317 123.557 114.501 122.987 114.868 122.493C115.248 121.987 115.793 121.594 116.502 121.315C117.224 121.037 118.073 120.897 119.048 120.897C119.77 120.897 120.486 120.98 121.195 121.144C121.917 121.296 122.513 121.512 122.981 121.79L121.993 123.899C121.094 123.393 120.112 123.139 119.048 123.139C118.415 123.139 117.94 123.228 117.623 123.405C117.307 123.583 117.148 123.811 117.148 124.089C117.148 124.406 117.319 124.628 117.661 124.754C118.003 124.881 118.548 125.001 119.295 125.115C120.131 125.255 120.815 125.407 121.347 125.571C121.879 125.723 122.342 126.008 122.734 126.426C123.127 126.844 123.323 127.427 123.323 128.174C123.323 128.808 123.133 129.371 122.753 129.865C122.373 130.359 121.816 130.746 121.081 131.024C120.359 131.29 119.498 131.423 118.497 131.423Z" fill="#081240"/>
<path d="M240.564 124.67H243.376V130.066C242.654 130.611 241.818 131.029 240.868 131.32C239.918 131.612 238.962 131.757 237.999 131.757C236.618 131.757 235.377 131.466 234.275 130.883C233.173 130.288 232.305 129.471 231.672 128.432C231.051 127.381 230.741 126.197 230.741 124.879C230.741 123.562 231.051 122.384 231.672 121.345C232.305 120.294 233.179 119.477 234.294 118.894C235.409 118.299 236.663 118.001 238.056 118.001C239.221 118.001 240.279 118.198 241.229 118.59C242.179 118.983 242.977 119.553 243.623 120.3L241.647 122.124C240.697 121.124 239.551 120.623 238.208 120.623C237.359 120.623 236.606 120.801 235.947 121.155C235.288 121.51 234.775 122.01 234.408 122.656C234.041 123.302 233.857 124.043 233.857 124.879C233.857 125.703 234.041 126.437 234.408 127.083C234.775 127.729 235.282 128.236 235.928 128.603C236.587 128.958 237.334 129.135 238.17 129.135C239.057 129.135 239.855 128.945 240.564 128.565V124.67ZM248.857 122.656C249.212 122.162 249.687 121.789 250.282 121.535C250.89 121.282 251.587 121.155 252.372 121.155V123.891C252.043 123.866 251.821 123.853 251.707 123.853C250.859 123.853 250.194 124.094 249.712 124.575C249.231 125.044 248.99 125.753 248.99 126.703V131.529H246.026V121.307H248.857V122.656ZM258.202 121.155C259.785 121.155 261.001 121.535 261.85 122.295C262.699 123.043 263.123 124.176 263.123 125.696V131.529H260.349V130.256C259.792 131.206 258.753 131.681 257.233 131.681C256.448 131.681 255.764 131.548 255.181 131.282C254.611 131.016 254.174 130.649 253.87 130.18C253.566 129.712 253.414 129.18 253.414 128.584C253.414 127.634 253.769 126.887 254.478 126.342C255.2 125.798 256.308 125.525 257.803 125.525H260.159C260.159 124.879 259.963 124.385 259.57 124.043C259.177 123.689 258.588 123.511 257.803 123.511C257.258 123.511 256.72 123.6 256.188 123.777C255.669 123.942 255.225 124.17 254.858 124.461L253.794 122.39C254.351 121.998 255.016 121.694 255.789 121.478C256.574 121.263 257.379 121.155 258.202 121.155ZM257.974 129.686C258.481 129.686 258.93 129.572 259.323 129.344C259.716 129.104 259.994 128.755 260.159 128.299V127.254H258.126C256.91 127.254 256.302 127.653 256.302 128.451C256.302 128.831 256.448 129.135 256.739 129.363C257.043 129.579 257.455 129.686 257.974 129.686ZM276.329 117.431V131.529H273.498V130.351C272.763 131.238 271.699 131.681 270.306 131.681C269.343 131.681 268.469 131.466 267.684 131.035C266.911 130.605 266.303 129.99 265.86 129.192C265.416 128.394 265.195 127.47 265.195 126.418C265.195 125.367 265.416 124.442 265.86 123.644C266.303 122.846 266.911 122.232 267.684 121.801C268.469 121.371 269.343 121.155 270.306 121.155C271.61 121.155 272.63 121.567 273.365 122.39V117.431H276.329ZM270.819 129.249C271.566 129.249 272.187 128.996 272.681 128.489C273.175 127.97 273.422 127.28 273.422 126.418C273.422 125.557 273.175 124.873 272.681 124.366C272.187 123.847 271.566 123.587 270.819 123.587C270.059 123.587 269.432 123.847 268.938 124.366C268.444 124.873 268.197 125.557 268.197 126.418C268.197 127.28 268.444 127.97 268.938 128.489C269.432 128.996 270.059 129.249 270.819 129.249ZM289.085 126.456C289.085 126.494 289.066 126.76 289.028 127.254H281.295C281.434 127.888 281.764 128.388 282.283 128.755C282.802 129.123 283.448 129.306 284.221 129.306C284.753 129.306 285.222 129.23 285.627 129.078C286.045 128.914 286.431 128.66 286.786 128.318L288.363 130.028C287.4 131.13 285.994 131.681 284.145 131.681C282.992 131.681 281.973 131.46 281.086 131.016C280.199 130.56 279.515 129.933 279.034 129.135C278.553 128.337 278.312 127.432 278.312 126.418C278.312 125.418 278.546 124.518 279.015 123.72C279.496 122.91 280.149 122.283 280.972 121.839C281.808 121.383 282.739 121.155 283.765 121.155C284.766 121.155 285.671 121.371 286.482 121.801C287.293 122.232 287.926 122.853 288.382 123.663C288.851 124.461 289.085 125.392 289.085 126.456ZM283.784 123.397C283.113 123.397 282.549 123.587 282.093 123.967C281.637 124.347 281.358 124.867 281.257 125.525H286.292C286.191 124.879 285.912 124.366 285.456 123.986C285 123.594 284.443 123.397 283.784 123.397ZM294.497 131.681C293.649 131.681 292.819 131.58 292.008 131.377C291.198 131.162 290.552 130.896 290.07 130.579L291.058 128.451C291.514 128.743 292.065 128.983 292.711 129.173C293.357 129.351 293.991 129.439 294.611 129.439C295.865 129.439 296.492 129.129 296.492 128.508C296.492 128.217 296.321 128.008 295.979 127.881C295.637 127.755 295.112 127.647 294.402 127.558C293.566 127.432 292.876 127.286 292.331 127.121C291.787 126.957 291.312 126.665 290.906 126.247C290.514 125.829 290.317 125.234 290.317 124.461C290.317 123.815 290.501 123.245 290.868 122.751C291.248 122.245 291.793 121.852 292.502 121.573C293.224 121.295 294.073 121.155 295.048 121.155C295.77 121.155 296.486 121.238 297.195 121.402C297.917 121.554 298.513 121.77 298.981 122.048L297.993 124.157C297.094 123.651 296.112 123.397 295.048 123.397C294.415 123.397 293.94 123.486 293.623 123.663C293.307 123.841 293.148 124.069 293.148 124.347C293.148 124.664 293.319 124.886 293.661 125.012C294.003 125.139 294.548 125.259 295.295 125.373C296.131 125.513 296.815 125.665 297.347 125.829C297.879 125.981 298.342 126.266 298.734 126.684C299.127 127.102 299.323 127.685 299.323 128.432C299.323 129.066 299.133 129.629 298.753 130.123C298.373 130.617 297.816 131.004 297.081 131.282C296.359 131.548 295.498 131.681 294.497 131.681Z" fill="#081240"/>
<path d="M416.564 124.67H419.376V130.066C418.654 130.611 417.818 131.029 416.868 131.32C415.918 131.612 414.962 131.757 413.999 131.757C412.618 131.757 411.377 131.466 410.275 130.883C409.173 130.288 408.305 129.471 407.672 128.432C407.051 127.381 406.741 126.197 406.741 124.879C406.741 123.562 407.051 122.384 407.672 121.345C408.305 120.294 409.179 119.477 410.294 118.894C411.409 118.299 412.663 118.001 414.056 118.001C415.221 118.001 416.279 118.198 417.229 118.59C418.179 118.983 418.977 119.553 419.623 120.3L417.647 122.124C416.697 121.124 415.551 120.623 414.208 120.623C413.359 120.623 412.606 120.801 411.947 121.155C411.288 121.51 410.775 122.01 410.408 122.656C410.041 123.302 409.857 124.043 409.857 124.879C409.857 125.703 410.041 126.437 410.408 127.083C410.775 127.729 411.282 128.236 411.928 128.603C412.587 128.958 413.334 129.135 414.17 129.135C415.057 129.135 415.855 128.945 416.564 128.565V124.67ZM424.857 122.656C425.212 122.162 425.687 121.789 426.282 121.535C426.89 121.282 427.587 121.155 428.372 121.155V123.891C428.043 123.866 427.821 123.853 427.707 123.853C426.859 123.853 426.194 124.094 425.712 124.575C425.231 125.044 424.99 125.753 424.99 126.703V131.529H422.026V121.307H424.857V122.656ZM434.202 121.155C435.785 121.155 437.001 121.535 437.85 122.295C438.699 123.043 439.123 124.176 439.123 125.696V131.529H436.349V130.256C435.792 131.206 434.753 131.681 433.233 131.681C432.448 131.681 431.764 131.548 431.181 131.282C430.611 131.016 430.174 130.649 429.87 130.18C429.566 129.712 429.414 129.18 429.414 128.584C429.414 127.634 429.769 126.887 430.478 126.342C431.2 125.798 432.308 125.525 433.803 125.525H436.159C436.159 124.879 435.963 124.385 435.57 124.043C435.177 123.689 434.588 123.511 433.803 123.511C433.258 123.511 432.72 123.6 432.188 123.777C431.669 123.942 431.225 124.17 430.858 124.461L429.794 122.39C430.351 121.998 431.016 121.694 431.789 121.478C432.574 121.263 433.379 121.155 434.202 121.155ZM433.974 129.686C434.481 129.686 434.93 129.572 435.323 129.344C435.716 129.104 435.994 128.755 436.159 128.299V127.254H434.126C432.91 127.254 432.302 127.653 432.302 128.451C432.302 128.831 432.448 129.135 432.739 129.363C433.043 129.579 433.455 129.686 433.974 129.686ZM452.329 117.431V131.529H449.498V130.351C448.763 131.238 447.699 131.681 446.306 131.681C445.343 131.681 444.469 131.466 443.684 131.035C442.911 130.605 442.303 129.99 441.86 129.192C441.416 128.394 441.195 127.47 441.195 126.418C441.195 125.367 441.416 124.442 441.86 123.644C442.303 122.846 442.911 122.232 443.684 121.801C444.469 121.371 445.343 121.155 446.306 121.155C447.61 121.155 448.63 121.567 449.365 122.39V117.431H452.329ZM446.819 129.249C447.566 129.249 448.187 128.996 448.681 128.489C449.175 127.97 449.422 127.28 449.422 126.418C449.422 125.557 449.175 124.873 448.681 124.366C448.187 123.847 447.566 123.587 446.819 123.587C446.059 123.587 445.432 123.847 444.938 124.366C444.444 124.873 444.197 125.557 444.197 126.418C444.197 127.28 444.444 127.97 444.938 128.489C445.432 128.996 446.059 129.249 446.819 129.249ZM465.085 126.456C465.085 126.494 465.066 126.76 465.028 127.254H457.295C457.434 127.888 457.764 128.388 458.283 128.755C458.802 129.123 459.448 129.306 460.221 129.306C460.753 129.306 461.222 129.23 461.627 129.078C462.045 128.914 462.431 128.66 462.786 128.318L464.363 130.028C463.4 131.13 461.994 131.681 460.145 131.681C458.992 131.681 457.973 131.46 457.086 131.016C456.199 130.56 455.515 129.933 455.034 129.135C454.553 128.337 454.312 127.432 454.312 126.418C454.312 125.418 454.546 124.518 455.015 123.72C455.496 122.91 456.149 122.283 456.972 121.839C457.808 121.383 458.739 121.155 459.765 121.155C460.766 121.155 461.671 121.371 462.482 121.801C463.293 122.232 463.926 122.853 464.382 123.663C464.851 124.461 465.085 125.392 465.085 126.456ZM459.784 123.397C459.113 123.397 458.549 123.587 458.093 123.967C457.637 124.347 457.358 124.867 457.257 125.525H462.292C462.191 124.879 461.912 124.366 461.456 123.986C461 123.594 460.443 123.397 459.784 123.397ZM470.497 131.681C469.649 131.681 468.819 131.58 468.008 131.377C467.198 131.162 466.552 130.896 466.07 130.579L467.058 128.451C467.514 128.743 468.065 128.983 468.711 129.173C469.357 129.351 469.991 129.439 470.611 129.439C471.865 129.439 472.492 129.129 472.492 128.508C472.492 128.217 472.321 128.008 471.979 127.881C471.637 127.755 471.112 127.647 470.402 127.558C469.566 127.432 468.876 127.286 468.331 127.121C467.787 126.957 467.312 126.665 466.906 126.247C466.514 125.829 466.317 125.234 466.317 124.461C466.317 123.815 466.501 123.245 466.868 122.751C467.248 122.245 467.793 121.852 468.502 121.573C469.224 121.295 470.073 121.155 471.048 121.155C471.77 121.155 472.486 121.238 473.195 121.402C473.917 121.554 474.513 121.77 474.981 122.048L473.993 124.157C473.094 123.651 472.112 123.397 471.048 123.397C470.415 123.397 469.94 123.486 469.623 123.663C469.307 123.841 469.148 124.069 469.148 124.347C469.148 124.664 469.319 124.886 469.661 125.012C470.003 125.139 470.548 125.259 471.295 125.373C472.131 125.513 472.815 125.665 473.347 125.829C473.879 125.981 474.342 126.266 474.734 126.684C475.127 127.102 475.323 127.685 475.323 128.432C475.323 129.066 475.133 129.629 474.753 130.123C474.373 130.617 473.816 131.004 473.081 131.282C472.359 131.548 471.498 131.681 470.497 131.681Z" fill="#081240"/>
<path d="M48 176.229C55.4558 176.229 61.5 169.991 61.5 162.295C61.5 154.6 55.4558 148.362 48 148.362C40.5442 148.362 34.5 154.6 34.5 162.295C34.5 169.991 40.5442 176.229 48 176.229Z" fill="#FFF2F6"/>
<path d="M49.454 159.509C50.6193 159.699 51.5123 160.136 52.133 160.82C52.7537 161.492 53.064 162.328 53.064 163.328C53.064 164.101 52.8613 164.817 52.456 165.475C52.0507 166.121 51.43 166.641 50.594 167.033C49.7707 167.426 48.7573 167.622 47.554 167.622C46.6167 167.622 45.692 167.502 44.78 167.261C43.8807 167.008 43.1143 166.653 42.481 166.197L43.678 163.841C44.1847 164.221 44.7673 164.519 45.426 164.734C46.0973 164.937 46.7813 165.038 47.478 165.038C48.2507 165.038 48.8587 164.893 49.302 164.601C49.7453 164.297 49.967 163.873 49.967 163.328C49.967 162.239 49.1373 161.694 47.478 161.694H46.072V159.661L48.808 156.564H43.146V154.094H52.456V156.089L49.454 159.509Z" fill="#FD5183"/>
<path d="M88.5 176.229C95.9558 176.229 102 169.991 102 162.295C102 154.6 95.9558 148.362 88.5 148.362C81.0442 148.362 75 154.6 75 162.295C75 169.991 81.0442 176.229 88.5 176.229Z" fill="#FFF2F6"/>
<path d="M94.92 164.601H92.754V167.394H89.752V164.601H82.589V162.53L88.859 154.094H92.089L86.275 162.093H89.847V159.604H92.754V162.093H94.92V164.601Z" fill="#FD5183"/>
<path d="M129 148.362C131.67 148.362 134.28 149.179 136.5 150.71C138.72 152.241 140.451 154.418 141.472 156.963C142.494 159.509 142.761 162.311 142.241 165.014C141.72 167.716 140.434 170.199 138.546 172.148C136.658 174.096 134.252 175.423 131.634 175.961C129.015 176.498 126.301 176.223 123.834 175.168C121.367 174.113 119.259 172.328 117.775 170.036C116.292 167.745 115.5 165.051 115.5 162.295C115.5 158.6 116.922 155.056 119.454 152.443C121.986 149.83 125.42 148.362 129 148.362V148.362Z" fill="#FFF2F6"/>
<path d="M128.801 159.091C130.676 159.091 132.056 159.465 132.943 160.212C133.842 160.96 134.292 161.96 134.292 163.214C134.292 164.025 134.089 164.766 133.684 165.437C133.279 166.096 132.658 166.628 131.822 167.033C130.999 167.426 129.979 167.622 128.763 167.622C127.826 167.622 126.901 167.502 125.989 167.261C125.09 167.008 124.323 166.653 123.69 166.197L124.906 163.841C125.413 164.221 125.995 164.519 126.654 164.734C127.313 164.937 127.99 165.038 128.687 165.038C129.46 165.038 130.068 164.886 130.511 164.582C130.954 164.278 131.176 163.854 131.176 163.309C131.176 162.739 130.942 162.309 130.473 162.017C130.017 161.726 129.219 161.58 128.079 161.58H124.678L125.362 154.094H133.475V156.564H127.927L127.718 159.091H128.801Z" fill="#FD5183"/>
<path d="M243.5 175.455C250.956 175.455 257 169.216 257 161.521C257 153.826 250.956 147.588 243.5 147.588C236.044 147.588 230 153.826 230 161.521C230 169.216 236.044 175.455 243.5 175.455Z" fill="#E1EBFF"/>
<path d="M243.301 158.317C245.176 158.317 246.556 158.691 247.443 159.438C248.342 160.186 248.792 161.186 248.792 162.44C248.792 163.251 248.589 163.992 248.184 164.663C247.779 165.322 247.158 165.854 246.322 166.259C245.499 166.652 244.479 166.848 243.263 166.848C242.326 166.848 241.401 166.728 240.489 166.487C239.59 166.234 238.823 165.879 238.19 165.423L239.406 163.067C239.913 163.447 240.495 163.745 241.154 163.96C241.813 164.163 242.49 164.264 243.187 164.264C243.96 164.264 244.568 164.112 245.011 163.808C245.454 163.504 245.676 163.08 245.676 162.535C245.676 161.965 245.442 161.535 244.973 161.243C244.517 160.952 243.719 160.806 242.579 160.806H239.178L239.862 153.32H247.975V155.79H242.427L242.218 158.317H243.301Z" fill="#3A7CFF"/>
<path d="M286.5 147.588C289.17 147.588 291.78 148.405 294 149.936C296.22 151.467 297.951 153.643 298.972 156.189C299.994 158.735 300.261 161.537 299.741 164.24C299.22 166.942 297.934 169.425 296.046 171.374C294.158 173.322 291.752 174.649 289.134 175.187C286.515 175.724 283.801 175.449 281.334 174.394C278.867 173.339 276.759 171.554 275.275 169.262C273.792 166.971 273 164.277 273 161.521C273 157.826 274.422 154.282 276.954 151.669C279.486 149.056 282.92 147.588 286.5 147.588V147.588Z" fill="#E1EBFF"/>
<path d="M288.144 158.279C288.993 158.279 289.765 158.45 290.462 158.792C291.159 159.134 291.71 159.622 292.115 160.255C292.52 160.876 292.723 161.598 292.723 162.421C292.723 163.308 292.501 164.087 292.058 164.758C291.615 165.43 291.007 165.949 290.234 166.316C289.474 166.671 288.625 166.848 287.688 166.848C285.826 166.848 284.369 166.278 283.318 165.138C282.267 163.998 281.741 162.371 281.741 160.255C281.741 158.748 282.026 157.456 282.596 156.379C283.166 155.303 283.958 154.486 284.971 153.928C285.997 153.371 287.181 153.092 288.524 153.092C289.233 153.092 289.911 153.175 290.557 153.339C291.216 153.491 291.773 153.713 292.229 154.004L291.089 156.265C290.43 155.822 289.601 155.6 288.6 155.6C287.473 155.6 286.58 155.93 285.921 156.588C285.262 157.247 284.908 158.203 284.857 159.457C285.642 158.672 286.738 158.279 288.144 158.279ZM287.517 164.549C288.176 164.549 288.708 164.372 289.113 164.017C289.531 163.663 289.74 163.181 289.74 162.573C289.74 161.965 289.531 161.484 289.113 161.129C288.708 160.762 288.163 160.578 287.479 160.578C286.808 160.578 286.257 160.768 285.826 161.148C285.395 161.516 285.18 161.991 285.18 162.573C285.18 163.156 285.389 163.631 285.807 163.998C286.225 164.366 286.795 164.549 287.517 164.549Z" fill="#3A7CFF"/>
<path d="M401.5 176.487C408.956 176.487 415 170.249 415 162.553C415 154.858 408.956 148.62 401.5 148.62C394.044 148.62 388 154.858 388 162.553C388 170.249 394.044 176.487 401.5 176.487Z" fill="#E6FFF2"/>
<path d="M403.144 159.311C403.993 159.311 404.765 159.482 405.462 159.824C406.159 160.166 406.71 160.654 407.115 161.287C407.52 161.908 407.723 162.63 407.723 163.453C407.723 164.34 407.501 165.119 407.058 165.79C406.615 166.462 406.007 166.981 405.234 167.348C404.474 167.703 403.625 167.88 402.688 167.88C400.826 167.88 399.369 167.31 398.318 166.17C397.267 165.03 396.741 163.403 396.741 161.287C396.741 159.78 397.026 158.488 397.596 157.411C398.166 156.335 398.958 155.518 399.971 154.96C400.997 154.403 402.181 154.124 403.524 154.124C404.233 154.124 404.911 154.207 405.557 154.371C406.216 154.523 406.773 154.745 407.229 155.036L406.089 157.297C405.43 156.854 404.601 156.632 403.6 156.632C402.473 156.632 401.58 156.962 400.921 157.62C400.262 158.279 399.908 159.235 399.857 160.489C400.642 159.704 401.738 159.311 403.144 159.311ZM402.517 165.581C403.176 165.581 403.708 165.404 404.113 165.049C404.531 164.695 404.74 164.213 404.74 163.605C404.74 162.997 404.531 162.516 404.113 162.161C403.708 161.794 403.163 161.61 402.479 161.61C401.808 161.61 401.257 161.8 400.826 162.18C400.395 162.548 400.18 163.023 400.18 163.605C400.18 164.188 400.389 164.663 400.807 165.03C401.225 165.398 401.795 165.581 402.517 165.581Z" fill="#50CB88"/>
<path d="M441.5 176.487C448.956 176.487 455 170.249 455 162.553C455 154.858 448.956 148.62 441.5 148.62C434.044 148.62 428 154.858 428 162.553C428 170.249 434.044 176.487 441.5 176.487Z" fill="#E6FFF2"/>
<path d="M447.153 154.352V156.347L442.213 167.652H438.869L443.638 156.86H439.23V159.026H436.494V154.352H447.153Z" fill="#50CB88"/>
<path d="M352.5 72.762V168.23" stroke="#F0F1F3" stroke-width="2"/>
<path d="M177 72.762V168.23" stroke="#F0F1F3" stroke-width="2"/>
</svg>
