<svg xmlns="http://www.w3.org/2000/svg" viewBox="0 0 1524 466.03"><defs><style>.cls-1{fill:#50cb88;}.cls-2{fill:#b6e9cd;}.cls-3{fill:none;}</style></defs><g id="Layer_2" data-name="Layer 2"><polygon class="cls-1" points="0.35 77.77 135.05 0 135.05 155.54 0.35 77.77"/><polygon class="cls-2" points="135.4 310.29 270.11 232.51 270.11 388.06 135.4 310.29"/><polygon class="cls-2" points="0.35 388.25 135.05 310.48 135.05 466.03 0.35 388.25"/><polygon class="cls-1" points="270.45 233.01 135.75 310.79 135.75 155.24 270.45 233.01"/><polygon class="cls-2" points="134.71 155.74 0 233.51 0 77.97 134.71 155.74"/><polygon class="cls-1" points="134.71 310.98 0 388.75 0 233.21 134.71 310.98"/><polygon class="cls-1" points="270.45 388.25 135.75 466.03 135.75 310.48 270.45 388.25"/><polygon class="cls-3" points="0.35 233.01 135.05 155.24 135.05 310.79 0.35 233.01"/><path class="cls-1" d="M697.16,543.43c0,22-17.46,34.74-50.92,34.74H580.4V450.86h62.2c31.83,0,48.19,13.27,48.19,33.1a30.58,30.58,0,0,1-16.91,28C688.07,516.51,697.16,527.42,697.16,543.43ZM609.68,473v30H639c14.37,0,22.19-5.09,22.19-15.09S653.33,473,639,473Zm57.83,67.3c0-10.73-8.18-15.83-23.46-15.83H609.68V556h34.37C659.33,556,667.51,551.25,667.51,540.34Z" transform="translate(-238 -204.49)"/><path class="cls-1" d="M806.1,578.17,781.55,542.7h-27.1v35.47H725V450.86h55.11c34,0,55.29,17.64,55.29,46.19,0,19.1-9.64,33.1-26.19,40.19l28.56,40.93ZM778.45,474.86h-24v44.38h24c18,0,27.1-8.37,27.1-22.19C805.55,483.05,796.46,474.86,778.45,474.86Z" transform="translate(-238 -204.49)"/><path class="cls-1" d="M948,550.89H888.85l-11.28,27.28H847.38l56.74-127.31h29.1l56.93,127.31H959.23Zm-9.28-22.37-20.19-48.75L898.3,528.52Z" transform="translate(-238 -204.49)"/><path class="cls-1" d="M1008.88,450.86h29.46V578.17h-29.46Z" transform="translate(-238 -204.49)"/><path class="cls-1" d="M1190.75,450.86V578.17h-24.19l-63.47-77.3v77.3H1074V450.86h24.37l63.29,77.29V450.86Z" transform="translate(-238 -204.49)"/><path class="cls-1" d="M1226.39,450.86h29.47v103.3h63.83v24h-93.3Z" transform="translate(-238 -204.49)"/><path class="cls-1" d="M1389.71,533.06v45.11h-29.46V532.7L1311,450.86h31.28l34,56.56,34-56.56h28.92Z" transform="translate(-238 -204.49)"/><path class="cls-1" d="M1486.47,474.86h-40.74v-24h110.94v24h-40.74V578.17h-29.46Z" transform="translate(-238 -204.49)"/><path class="cls-1" d="M1583.4,450.86h29.47V578.17H1583.4Z" transform="translate(-238 -204.49)"/><path class="cls-1" d="M1640.51,514.51c0-38.37,29.46-65.84,69.11-65.84,22,0,40.38,8,52.38,22.55l-18.91,17.46c-8.55-9.82-19.28-14.91-32-14.91-23.83,0-40.74,16.73-40.74,40.74s16.91,40.74,40.74,40.74c12.73,0,23.46-5.09,32-15.09L1762,557.61c-12,14.74-30.37,22.74-52.56,22.74C1670,580.35,1640.51,552.89,1640.51,514.51Z" transform="translate(-238 -204.49)"/></g></svg>