<svg width="48" height="46" viewBox="0 0 48 46" fill="none" xmlns="http://www.w3.org/2000/svg">
<path d="M20.53 42.57L22.83 44.87C23.0598 45.1012 23.3331 45.2847 23.6341 45.4099C23.9351 45.5352 24.2579 45.5996 24.584 45.5996C24.91 45.5996 25.2328 45.5352 25.5338 45.4099C25.8348 45.2847 26.1081 45.1012 26.338 44.87L46.453 24.757C46.6842 24.5271 46.8677 24.2538 46.9929 23.9528C47.1182 23.6518 47.1826 23.329 47.1826 23.003C47.1826 22.6769 47.1182 22.3541 46.9929 22.0531C46.8677 21.7521 46.6842 21.4788 46.453 21.249L26.336 1.13396C26.1061 0.902724 25.8328 0.719213 25.5318 0.593989C25.2308 0.468764 24.908 0.404297 24.582 0.404297C24.2559 0.404297 23.9331 0.468764 23.6321 0.593989C23.3311 0.719213 23.0578 0.902724 22.828 1.13396L20.528 3.43396C20.2946 3.66812 20.1103 3.94647 19.9858 4.25273C19.8613 4.55899 19.7991 4.887 19.803 5.21757C19.8068 5.54814 19.8765 5.87463 20.008 6.17793C20.1396 6.48124 20.3303 6.75526 20.569 6.98396L33.042 18.857H3.29997C2.97354 18.8567 2.65028 18.9209 2.34875 19.046C2.04722 19.171 1.77336 19.3544 1.54292 19.5856C1.31247 19.8168 1.12997 20.0912 1.0059 20.3931C0.881838 20.6951 0.818649 21.0185 0.819966 21.345V24.657C0.819309 24.983 0.882985 25.3059 1.00735 25.6073C1.13171 25.9086 1.31431 26.1825 1.54469 26.4131C1.77507 26.6438 2.0487 26.8267 2.34991 26.9514C2.65111 27.0762 2.97396 27.1402 3.29997 27.14H33.042L20.572 39.02C20.3311 39.2474 20.1384 39.5209 20.0055 39.8243C19.8725 40.1278 19.802 40.4548 19.7981 40.7861C19.7942 41.1173 19.8569 41.4459 19.9827 41.7524C20.1084 42.0589 20.2945 42.3369 20.53 42.57Z" fill="white"/>
</svg>

