<svg width="48" height="46" viewBox="0 0 48 46" fill="none" xmlns="http://www.w3.org/2000/svg">
<path d="M27.469 42.569L25.169 44.869C24.9391 45.1002 24.6658 45.2837 24.3648 45.4089C24.0638 45.5342 23.741 45.5986 23.4149 45.5986C23.0889 45.5986 22.7661 45.5342 22.4651 45.4089C22.1641 45.2837 21.8908 45.1002 21.6609 44.869L1.54595 24.757C1.31471 24.5271 1.1312 24.2538 1.00598 23.9528C0.880751 23.6518 0.816284 23.329 0.816284 23.003C0.816284 22.6769 0.880751 22.3541 1.00598 22.0531C1.1312 21.7521 1.31471 21.4788 1.54595 21.249L21.6639 1.13396C21.8938 0.902724 22.1671 0.719213 22.4681 0.593989C22.7691 0.468764 23.0919 0.404297 23.4179 0.404297C23.744 0.404297 24.0668 0.468764 24.3678 0.593989C24.6688 0.719213 24.9421 0.902724 25.1719 1.13396L27.472 3.43396C27.7053 3.66812 27.8896 3.94647 28.0141 4.25273C28.1386 4.55899 28.2008 4.887 28.197 5.21757C28.1931 5.54814 28.1234 5.87463 27.9919 6.17793C27.8604 6.48124 27.6697 6.75526 27.431 6.98396L14.9579 18.857H44.699C45.0254 18.8562 45.3487 18.9199 45.6505 19.0444C45.9522 19.169 46.2263 19.3519 46.4572 19.5827C46.688 19.8136 46.8709 20.0877 46.9955 20.3894C47.12 20.6912 47.1837 21.0145 47.1829 21.341V24.657C47.1837 24.9834 47.12 25.3068 46.9955 25.6085C46.8709 25.9102 46.688 26.1844 46.4572 26.4152C46.2263 26.646 45.9522 26.8289 45.6505 26.9535C45.3487 27.078 45.0254 27.1418 44.699 27.141H14.9579L27.4279 39.021C27.6685 39.2484 27.8608 39.5219 27.9934 39.8252C28.1261 40.1284 28.1965 40.4553 28.2003 40.7863C28.2041 41.1173 28.1413 41.4457 28.0157 41.7519C27.8901 42.0582 27.7041 42.336 27.469 42.569Z" fill="#FD5183"/>
</svg>

