<svg xmlns="http://www.w3.org/2000/svg" width="106" height="106" viewBox="0 0 106 106">
  <g id="problems" transform="translate(-822 -862)">
    <circle id="Ellipse_10" data-name="Ellipse 10" cx="53" cy="53" r="53" transform="translate(822 862)" fill="#e1ebff"/>
    <path id="Icon_awesome-puzzle-piece" data-name="Icon awesome-puzzle-piece" d="M56.218,31.24c-4.494,0-6.44,3.419-8.881,3.419-6.491,0-.583-19.075-.583-19.075s-21.244,8.658-21.244-.357c0-3.878,3.927-5.006,3.927-9.306C29.438,2.08,26.4,0,22.786,0,19.036,0,15.6,2.045,15.6,6.1c0,4.477,3.432,6.415,3.432,8.848,0,7.535-19.036,3.1-19.036,3.1V54.114s19.333,4.442,19.333-3.1c0-2.432-4.329-4.341-4.329-8.817,0-4.054,3.166-6.1,6.881-6.1,3.644,0,6.687,2.08,6.687,5.922,0,4.3-3.927,5.429-3.927,9.306,0,6.581,14.035,2.785,19.614,2.785,0,0-3.758-13,2.8-13,3.892,0,5.024,3.913,9.341,3.913,3.857,0,5.944-3.031,5.944-6.662,0-3.7-2.052-7.121-6.121-7.121Z" transform="translate(850 882.294)" fill="#3a7cff"/>
  </g>
</svg>
