<?xml version="1.0" encoding="utf-8"?>
<svg viewBox="205.438 -354.378 922.856 970.792" xmlns="http://www.w3.org/2000/svg">
  <defs>
    <clipPath id="clip-path">
      <path id="Path_3179" data-name="Path 3179" d="M-4360,1114.1V2144.947h1003.812V1139.875Z" transform="translate(4360)" fill="none" stroke="#707070" stroke-width="1"/>
    </clipPath>
  </defs>
  <g id="Mask_Group_8" data-name="Mask Group 8" transform="matrix(1, 0, 0, 1, 209.483154, -1495.072876)" clip-path="url(#clip-path)">
    <path id="general_curved_bg" data-name="general curved bg" d="M-4451.617,1139.675s1103.981,68.839,1002,364.594-922.958,63.74-752.135,433.433-372.243,0-372.243,0l135.129-782.73Z" transform="translate(4360)" fill="rgba(225,235,255,0.51)"/>
  </g>
  <g id="recommendation" transform="matrix(1, 0, 0, 1, 322.634552, -176.380905)">
    <path id="Path_2305" data-name="Path 2305" d="M483.833,659.944a25.739,25.739,0,0,1-24.854-4.378c-8.705-7.307-11.435-19.344-13.656-30.49l-6.569-32.968,13.752,9.469c9.89,6.81,20,13.838,26.85,23.7s9.837,23.328,4.335,34" transform="translate(-182.935 -243.861)" fill="#e6e6e6"/>
    <path id="Path_2306" data-name="Path 2306" d="M488.092,709.262c1.392-10.139,2.823-20.408,1.847-30.655-.867-9.1-3.644-17.99-9.3-25.278a42.052,42.052,0,0,0-10.789-9.776c-1.079-.681-2.072,1.029-1,1.707a39.977,39.977,0,0,1,15.813,19.079c3.443,8.756,4,18.3,3.4,27.6-.359,5.625-1.119,11.213-1.885,16.795a1.024,1.024,0,0,0,.69,1.216.994.994,0,0,0,1.216-.69Z" transform="translate(-188.37 -253.264)" fill="#f2f2f2"/>
    <path id="Path_2307" data-name="Path 2307" d="M463.378,697.475A18.947,18.947,0,0,1,446.87,706c-8.357-.4-15.324-6.229-21.6-11.767l-18.55-16.378L419,677.263c8.829-.423,17.886-.817,26.295,1.906s16.165,9.275,17.7,17.979" transform="translate(-177.063 -259.419)" fill="#e6e6e6"/>
    <path id="Path_2308" data-name="Path 2308" d="M488.107,724.318c-6.7-11.854-14.47-25.029-28.355-29.24a31.644,31.644,0,0,0-11.927-1.232c-1.266.109-.95,2.061.314,1.952a29.4,29.4,0,0,1,19.033,5.035c5.367,3.653,9.545,8.731,13.082,14.117,2.166,3.3,4.107,6.738,6.048,10.172C486.921,726.221,488.734,725.429,488.107,724.318Z" transform="translate(-184.451 -262.492)" fill="#f2f2f2"/>
    <path id="Path_2309" data-name="Path 2309" d="M667.289,420.144,521.229,541.2a9,9,0,0,1-12.665-1.186l-61.571-74.29a9,9,0,0,1,1.186-12.665l146.06-121.055A9,9,0,0,1,606.9,333.19l61.571,74.29a9,9,0,0,1-1.186,12.665Z" transform="translate(-184.067 -195.792)" fill="#ccc"/>
    <path id="Path_2310" data-name="Path 2310" d="M663.1,418.168,520.4,536.44a4.639,4.639,0,0,1-6.524-.611L455.089,464.9a4.639,4.639,0,0,1,.611-6.524L598.4,340.1a4.639,4.639,0,0,1,6.524.611l58.788,70.932a4.639,4.639,0,0,1-.611,6.524Z" transform="translate(-185.735 -197.46)" fill="#fff"/>
    <path id="Path_2311" data-name="Path 2311" d="M711.511,461.921l-29.351-2.747,21.007-16.533,11.316,13.654a3.391,3.391,0,0,1,.394,3.807,3.493,3.493,0,0,1-.859,1.064A3.4,3.4,0,0,1,711.511,461.921Z" transform="translate(-227.564 -216.456)" fill="#ccc"/>
    <path id="Path_2312" data-name="Path 2312" d="M628.116,400.142l-72.191,59.832a4.361,4.361,0,0,1-5.566-6.715l72.191-59.832a4.361,4.361,0,0,1,5.566,6.715Z" transform="translate(-203.109 -207.248)" fill="#ccc"/>
    <path id="Path_2313" data-name="Path 2313" d="M590.129,406.522l-48.687,40.352a4.361,4.361,0,1,1-5.566-6.715l48.687-40.352a4.361,4.361,0,1,1,5.566,6.715Z" transform="translate(-200.454 -208.418)" fill="#ccc"/>
    <circle id="Ellipse_13" data-name="Ellipse 13" cx="13.628" cy="13.628" r="13.628" transform="translate(300.608 253.373)" fill="#6c63ff"/>
    <circle id="Ellipse_14" data-name="Ellipse 14" cx="4.361" cy="4.361" r="4.361" transform="translate(418.281 230.961)" fill="#e6e6e6"/>
    <circle id="Ellipse_15" data-name="Ellipse 15" cx="4.361" cy="4.361" r="4.361" transform="translate(430.033 221.221)" fill="#e6e6e6"/>
    <circle id="Ellipse_16" data-name="Ellipse 16" cx="4.361" cy="4.361" r="4.361" transform="translate(441.785 211.481)" fill="#e6e6e6"/>
    <path id="Path_2314" data-name="Path 2314" d="M461.2,547.543H471.21l4.763-38.618H461.2Z" transform="translate(-84.561 -93.312)" fill="#ffb8b8"/>
    <path id="Path_2315" data-name="Path 2315" d="M583.571,717.885h19.718a12.565,12.565,0,0,1,12.565,12.565v.408H583.572Z" transform="translate(-209.488 -266.922)" fill="#2f2e41"/>
    <path id="Path_2316" data-name="Path 2316" d="M417.2,547.543H427.21l4.763-38.618H417.2Z" transform="translate(-76.493 -93.312)" fill="#ffb8b8"/>
    <path id="Path_2317" data-name="Path 2317" d="M539.571,717.885h19.718a12.565,12.565,0,0,1,12.565,12.566v.408H539.572Z" transform="translate(-201.42 -266.922)" fill="#2f2e41"/>
    <path id="Path_2318" data-name="Path 2318" d="M551.844,671.113h0l-8.514,0a3.66,3.66,0,0,1-3.671-3.543l-.268-7.449c-2.152-59.567-4.378-121.161,9.406-148.847l.108-.218,45.634-1.652,9.162,84.042a36.44,36.44,0,0,1-.425,10.75l-12.111,63.82A3.674,3.674,0,0,1,587.409,671l-9.563-.31a3.676,3.676,0,0,1-3.513-4.037l7.512-59.027a20.174,20.174,0,0,0-.682-7.582l-9.343-32.661a1.225,1.225,0,0,0-2.391.168L555.484,667.943a3.69,3.69,0,0,1-3.64,3.169Z" transform="translate(-201.093 -228.697)" fill="#2f2e41"/>
    <circle id="Ellipse_17" data-name="Ellipse 17" cx="20.058" cy="20.058" r="20.058" transform="translate(336.151 156.568)" fill="#ffb8b8"/>
    <path id="Path_2319" data-name="Path 2319" d="M591.953,498.123h-41.5a3.675,3.675,0,0,1-3.637-4.206l2.05-14.043-12.041-33.118a24.372,24.372,0,0,1,19.607-32.475h0a24.279,24.279,0,0,1,25.333,13.732l2.645,5.627,11.16,60.138a3.675,3.675,0,0,1-3.613,4.345Z" transform="translate(-200.647 -211.213)" fill="#6c63ff"/>
    <path id="Path_2320" data-name="Path 2320" d="M494.933,539.991a8.773,8.773,0,0,0,6.08-12l32.341-73.067-18.5-4.66L488.88,523.552a8.821,8.821,0,0,0,6.053,16.439Z" transform="translate(-191.242 -217.853)" fill="#ffb8b8"/>
    <path id="Path_2321" data-name="Path 2321" d="M534.511,463.678l-17.994-8.423a3.934,3.934,0,0,1-1.612-5.734l10.935-16.515a10.925,10.925,0,1,1,19.761,9.321l-5.655,18.916a3.934,3.934,0,0,1-5.436,2.435Z" transform="translate(-196.778 -213.54)" fill="#6c63ff"/>
    <path id="Path_2322" data-name="Path 2322" d="M647.562,328.507a8.773,8.773,0,0,1-7.194,11.367l-46.2,65.2-13.476-13.5,49.648-59.84a8.821,8.821,0,0,1,17.22-3.22Z" transform="translate(-208.96 -194.395)" fill="#ffb8b8"/>
    <path id="Path_2323" data-name="Path 2323" d="M602.567,411a3.929,3.929,0,0,1-1.008,3.116l-13.352,14.544a10.925,10.925,0,1,1-18.126-12.2l8.585-17.85a3.934,3.934,0,0,1,5.751-1.552L600.866,408.2a3.929,3.929,0,0,1,1.7,2.8Z" transform="translate(-206.673 -207.974)" fill="#6c63ff"/>
    <path id="Path_2324" data-name="Path 2324" d="M578.187,366.357a20.628,20.628,0,0,0-.75-5.37c-3.232-11.941-15.161-19.109-27.133-17.31a25.886,25.886,0,0,0-7.161-1h0a25.823,25.823,0,0,0-25.517,21.859l-9.671,62.256h52.266l8.439-54.328a25.95,25.95,0,0,0,.22-6.1Z" transform="translate(-195.623 -198.127)" fill="#2f2e41"/>
    <path id="Path_2325" data-name="Path 2325" d="M634.63,733.959H462.317a.817.817,0,0,1,0-1.633H634.63a.817.817,0,0,1,0,1.633Z" transform="translate(-187.106 -269.57)" fill="#ccc"/>
    <path id="Path_2326" data-name="Path 2326" d="M884.382,243.333a8.212,8.212,0,0,1,8.972,8.836l26.71,11.756-12.741,8.224-23.411-12.424a8.257,8.257,0,0,1,.47-16.391Z" transform="translate(-263.263 -179.906)" fill="#a0616a"/>
    <circle id="Ellipse_18" data-name="Ellipse 18" cx="20.058" cy="20.058" r="20.058" transform="translate(708.803 8.647)" fill="#a0616a"/>
    <path id="Path_2327" data-name="Path 2327" d="M844.733,376.694H834.721l-4.763-38.618h14.776Z" transform="translate(-152.173 -61.986)" fill="#a0616a"/>
    <path id="Path_2328" data-name="Path 2328" d="M969.428,560.008H937.146V559.6a12.565,12.565,0,0,1,12.565-12.565h19.718Z" transform="translate(-274.316 -235.596)" fill="#2f2e41"/>
    <path id="Path_2329" data-name="Path 2329" d="M895.733,376.694H885.721l-4.763-38.618h14.776Z" transform="translate(-161.524 -61.986)" fill="#a0616a"/>
    <path id="Path_2330" data-name="Path 2330" d="M1020.432,560.008H988.15V559.6a12.565,12.565,0,0,1,12.565-12.565h19.718Z" transform="translate(-283.668 -235.596)" fill="#2f2e41"/>
    <path id="Path_2331" data-name="Path 2331" d="M1010.9,507.2a3.691,3.691,0,0,1-.448-.028l-14.656-1.8a3.669,3.669,0,0,1-3.221-3.459l-4.272-96.172a1.225,1.225,0,0,0-2.333-.452L975,441.856,972.743,500.6a3.673,3.673,0,0,1-4.1,3.507l-12.691-1.494a3.663,3.663,0,0,1-3.245-3.721l1.077-55.3,8.6-86.8.384.014,52.284,2.015-.471,144.711a3.676,3.676,0,0,1-3.676,3.663Z" transform="translate(-277.169 -200.716)" fill="#2f2e41"/>
    <path id="Path_2332" data-name="Path 2332" d="M1013.973,344.146h-.1l-52.657-1.38a3.675,3.675,0,0,1-3.545-4.169l10.118-74.471a36.041,36.041,0,0,1,15.255-25.146,31.193,31.193,0,0,1,25.4-4.53c18.38,4.657,29.406,24.393,24.579,43.995l-15.49,62.906a3.7,3.7,0,0,1-3.569,2.8Z" transform="translate(-278.074 -178.106)" fill="#3f3d56"/>
    <path id="Path_2333" data-name="Path 2333" d="M932.569,286.271a17.821,17.821,0,0,1-9.771-2.9l-30.708-20.147a3.674,3.674,0,0,1-.652-5.6l4.626-4.884a3.662,3.662,0,0,1,4.027-.888l34.3,13.659,31.775-22.691a13.193,13.193,0,1,1,13.431,22.6L940.327,284.5a17.754,17.754,0,0,1-7.758,1.775Z" transform="translate(-265.751 -179.368)" fill="#3f3d56"/>
    <path id="Path_2334" data-name="Path 2334" d="M1019.981,213.56c3.422.808,7.55,1.428,10-1.1a10.22,10.22,0,0,0,1.156-1.544l3.2-4.881c2.449-3.739,4.942-7.576,5.978-11.925a19.388,19.388,0,0,0-14.624-23.416c-4.774-1.069-9.445-2.908-14.326-2.572s-10.6.225-14.7-2.45c.256,1.193,1.635,6.462,1.635,6.462s-6.159,5.65-7.394,7.059a11.569,11.569,0,0,1,16.107,8.715c.35,2.144.144,4.523,1.418,6.283,1.212,1.674,3.385,2.26,5.212,3.227a12.71,12.71,0,0,1,5.591,15.553Z" transform="translate(-284.172 -165.674)" fill="#2f2e41"/>
    <path id="Path_2335" data-name="Path 2335" d="M957.925,355.262H791.664a7.892,7.892,0,0,1-7.883-7.883V262.816a7.892,7.892,0,0,1,7.883-7.883H957.925a7.892,7.892,0,0,1,7.883,7.883v84.563A7.892,7.892,0,0,1,957.925,355.262Z" transform="translate(-246.196 -182.039)" fill="#ccc"/>
    <path id="Path_2336" data-name="Path 2336" d="M957.3,350.817H794.862a4.065,4.065,0,0,1-4.061-4.061V266.014a4.066,4.066,0,0,1,4.061-4.061H957.3a4.065,4.065,0,0,1,4.061,4.061v80.742A4.065,4.065,0,0,1,957.3,350.817Z" transform="translate(-247.484 -183.327)" fill="#fff"/>
    <path id="Path_2337" data-name="Path 2337" d="M979.062,391.628,960.794,373.36l23.422.592v15.543a2.972,2.972,0,0,1-1.863,2.789,3.062,3.062,0,0,1-1.174.237,2.977,2.977,0,0,1-2.115-.892Z" transform="translate(-278.652 -203.753)" fill="#ccc"/>
    <path id="Path_2338" data-name="Path 2338" d="M951.157,310.211H868.982a3.822,3.822,0,1,1,0-7.644h82.175a3.822,3.822,0,1,1,0,7.644Z" transform="translate(-261.117 -190.773)" fill="#ccc"/>
    <path id="Path_2339" data-name="Path 2339" d="M924.4,290.32h-55.42a3.822,3.822,0,1,1,0-7.644H924.4a3.822,3.822,0,1,1,0,7.644Z" transform="translate(-261.117 -187.126)" fill="#ccc"/>
    <circle id="Ellipse_19" data-name="Ellipse 19" cx="11.944" cy="11.944" r="11.944" transform="translate(561.904 95.55)" fill="#6c63ff"/>
    <circle id="Ellipse_20" data-name="Ellipse 20" cx="3.822" cy="3.822" r="3.822" transform="translate(660.894 142.923)" fill="#e6e6e6"/>
    <circle id="Ellipse_21" data-name="Ellipse 21" cx="3.822" cy="3.822" r="3.822" transform="translate(674.271 142.923)" fill="#e6e6e6"/>
    <circle id="Ellipse_22" data-name="Ellipse 22" cx="3.822" cy="3.822" r="3.822" transform="translate(687.648 142.923)" fill="#e6e6e6"/>
    <path id="Path_2340" data-name="Path 2340" d="M993.858,358.578a8.212,8.212,0,0,1,10.485-6.974l16.973-23.739,5.443,14.155-16.952,20.373a8.257,8.257,0,0,1-15.948-3.814Z" transform="translate(-284.704 -195.412)" fill="#a0616a"/>
    <path id="Path_2341" data-name="Path 2341" d="M1015.979,342.411a3.676,3.676,0,0,1-3.419-1.7l-3.587-5.691a3.659,3.659,0,0,1,.137-4.123l21.725-29.851-14.12-36.4a13.123,13.123,0,0,1,7.2-16.937h0a13.192,13.192,0,0,1,18.026,9.519l8.761,42.771a17.872,17.872,0,0,1-5.431,16.7l-27.121,24.765a3.664,3.664,0,0,1-2.168.948Z" transform="translate(-287.381 -180.526)" fill="#3f3d56"/>
    <path id="Path_2342" data-name="Path 2342" d="M1034.63,564.959H862.317a.817.817,0,0,1,0-1.633H1034.63a.817.817,0,0,1,0,1.633Z" transform="translate(-260.446 -238.584)" fill="#ccc"/>
    <path id="Path_2343" data-name="Path 2343" d="M343.02,293.924H176.758a7.892,7.892,0,0,1-7.883-7.883V201.477a7.892,7.892,0,0,1,7.883-7.883H343.02a7.892,7.892,0,0,1,7.883,7.883v84.564A7.892,7.892,0,0,1,343.02,293.924Z" transform="translate(-133.453 -170.793)" fill="#ccc"/>
    <path id="Path_2344" data-name="Path 2344" d="M342.4,289.479H179.956a4.066,4.066,0,0,1-4.061-4.061V204.676a4.066,4.066,0,0,1,4.061-4.061H342.4a4.066,4.066,0,0,1,4.061,4.061v80.742A4.066,4.066,0,0,1,342.4,289.479Z" transform="translate(-134.74 -172.08)" fill="#fff"/>
    <path id="Path_2345" data-name="Path 2345" d="M364.156,330.29l-18.269-18.269,23.422.592v15.542a2.972,2.972,0,0,1-1.863,2.789,3.063,3.063,0,0,1-1.174.237,2.977,2.977,0,0,1-2.115-.892Z" transform="translate(-165.908 -192.507)" fill="#ccc"/>
    <path id="Path_2346" data-name="Path 2346" d="M336.251,248.872H254.076a3.822,3.822,0,0,1,0-7.644h82.175a3.822,3.822,0,0,1,0,7.644Z" transform="translate(-148.374 -179.527)" fill="#ccc"/>
    <path id="Path_2347" data-name="Path 2347" d="M309.5,228.981H254.076a3.822,3.822,0,0,1,0-7.644H309.5a3.822,3.822,0,1,1,0,7.644Z" transform="translate(-148.374 -175.88)" fill="#ccc"/>
    <circle id="Ellipse_23" data-name="Ellipse 23" cx="11.944" cy="11.944" r="11.944" transform="translate(59.742 45.457)" fill="#6c63ff"/>
    <circle id="Ellipse_24" data-name="Ellipse 24" cx="3.822" cy="3.822" r="3.822" transform="translate(158.731 92.831)" fill="#e6e6e6"/>
    <circle id="Ellipse_25" data-name="Ellipse 25" cx="3.822" cy="3.822" r="3.822" transform="translate(172.109 92.831)" fill="#e6e6e6"/>
    <circle id="Ellipse_26" data-name="Ellipse 26" cx="3.822" cy="3.822" r="3.822" transform="translate(185.486 92.831)" fill="#e6e6e6"/>
    <path id="Path_2348" data-name="Path 2348" d="M368.406,183.531a8.212,8.212,0,0,0-4.336,11.822l-19.126,22.042,15.034,1.992,15.858-21.236a8.257,8.257,0,0,0-7.429-14.619Z" transform="translate(-165.735 -168.855)" fill="#ffb8b8"/>
    <path id="Path_2349" data-name="Path 2349" d="M212.309,193.216a8.212,8.212,0,0,1-6.333,10.884l-4.759,28.792-11.129-10.3,6.226-25.762a8.257,8.257,0,0,1,16-3.612Z" transform="translate(-137.342 -169.715)" fill="#ffb8b8"/>
    <path id="Path_2350" data-name="Path 2350" d="M128.4,376.694h10.012l4.763-38.618H128.4Z" transform="translate(-23.542 -61.986)" fill="#ffb8b8"/>
    <path id="Path_2351" data-name="Path 2351" d="M250.772,547.035H270.49A12.565,12.565,0,0,1,283.055,559.6v.408H250.773Z" transform="translate(-148.469 -235.596)" fill="#2f2e41"/>
    <path id="Path_2352" data-name="Path 2352" d="M65.4,376.694H75.411l4.763-38.618H65.4Z" transform="translate(-11.991 -61.986)" fill="#ffb8b8"/>
    <path id="Path_2353" data-name="Path 2353" d="M187.772,547.035H207.49A12.565,12.565,0,0,1,220.055,559.6v.408H187.773Z" transform="translate(-136.918 -235.596)" fill="#2f2e41"/>
    <circle id="Ellipse_27" data-name="Ellipse 27" cx="20.058" cy="20.058" r="20.058" transform="translate(82.709 10.932)" fill="#ffb8b8"/>
    <path id="Path_2354" data-name="Path 2354" d="M236.4,504.4l-1.658-105.679a1.225,1.225,0,0,0-2.417-.265L205.134,501.829a3.72,3.72,0,0,1-3.733,2.825l-14.937-.639a3.676,3.676,0,0,1-3.489-4.133l23.069-132.835.047-.375,64.256,3.04.419.019L256.988,504.626a3.69,3.69,0,0,1-3.665,3.4H240.07A3.69,3.69,0,0,1,236.4,504.4Z" transform="translate(-136.033 -202.527)" fill="#2f2e41"/>
    <path id="Path_2355" data-name="Path 2355" d="M288.848,354.428,195.6,346.776a3.674,3.674,0,0,1-3.155-4.912l14.684-40.6.845-48.185A13.215,13.215,0,0,1,221.589,240.1l6.2-5.621h22.719l1.978,2.594,15.808,2.429a13.289,13.289,0,0,1,11.09,11.3l13.405,99.472a3.675,3.675,0,0,1-3.637,4.165C289.052,354.441,288.95,354.437,288.848,354.428Z" transform="translate(-137.735 -178.29)" fill="#2f2e41"/>
    <path id="Path_2356" data-name="Path 2356" d="M288.294,238.095l39.757-11.648,17.994-23.69a3.674,3.674,0,0,1,4.371-1.156l11.234,4.8a3.675,3.675,0,0,1,1.731,5.229l-13.447,23.075a20.578,20.578,0,0,1-9.517,8.512L293.654,263.89Z" transform="translate(-155.348 -172.207)" fill="#2f2e41"/>
    <path id="Path_2357" data-name="Path 2357" d="M193.3,258.332a17.039,17.039,0,0,1-7.026-15.169l1.745-23.117a3.684,3.684,0,0,1,3.665-3.4h.032l13.174.117a3.676,3.676,0,0,1,3.574,4.382l-2.444,12.471,17.444,7.371-14.689,28.577Z" transform="translate(-136.634 -175.02)" fill="#2f2e41"/>
    <path id="Path_2358" data-name="Path 2358" d="M257.419,173.167s-20.976-11.294-32.409,2.035,4.356,34.175,4.356,34.175l22.5,2.837s.817-15.293,6.173-15S280.028,178.218,257.419,173.167Z" transform="translate(-142.984 -166.229)" fill="#2f2e41"/>
    <path id="Path_2359" data-name="Path 2359" d="M298.63,563.959H126.317a.817.817,0,1,1,0-1.633H298.63a.817.817,0,0,1,0,1.633Z" transform="translate(-125.5 -238.4)" fill="#ccc"/>
  </g>
</svg>