<svg xmlns="http://www.w3.org/2000/svg" xmlns:xlink="http://www.w3.org/1999/xlink" width="926.181" height="690.29" viewBox="0 0 926.181 690.29">
  <defs>
    <linearGradient id="linear-gradient" x1="0.5" y1="1" x2="0.5" gradientUnits="objectBoundingBox">
      <stop offset="0" stop-color="gray" stop-opacity="0.251"/>
      <stop offset="0.54" stop-color="gray" stop-opacity="0.122"/>
      <stop offset="1" stop-color="gray" stop-opacity="0.102"/>
    </linearGradient>
  </defs>
  <g id="retry" transform="translate(-259.962 -3598.637)">
    <g id="study" transform="translate(259.962 3598.637)">
      <path id="Path_2398" data-name="Path 2398" d="M981.458,370.077c-.166.979-.332,1.959-.516,2.938-5.929,33.353-15.61,65.508-30,95.031q-.708,1.469-1.443,2.938a271.588,271.588,0,0,1-33.808,52.137c-7.171,8.649-14.989,16.86-24.285,22.789-13.03,8.308-28.263,11.683-43.235,14.447-15.557,2.877-31.315,5.247-47.039,7.87q-8.36,1.364-16.615,2.86c-15.19,2.746-30.266,5.92-44.984,10.127-18.2,5.247-35.854,12.007-52.469,21.582q-1.994,1.137-3.944,2.335c-1.3.787-2.623,1.592-3.891,2.414s-2.545,1.635-3.8,2.466l-1.941,1.312c-.638.42-1.268.875-1.9,1.294-1.871,1.277-3.717,2.623-5.562,3.918l-.07.052q-1.823,1.312-3.629,2.623c-6.812,5.046-13.476,10.328-20.113,15.627l-4.189,3.349q-3.244,2.571-6.489,5.133c-1.268,1.006-2.553,2-3.83,3-.927.726-1.845,1.452-2.79,2.169-4.731,3.647-9.523,7.214-14.412,10.625-1.163.813-2.344,1.627-3.5,2.422a184.419,184.419,0,0,1-31.079,17.122l-.14.061a123.305,123.305,0,0,1-16.51,5.693,98.848,98.848,0,0,1-9.724,2.107,85.944,85.944,0,0,1-26.366.455c-17.219-2.44-33.353-10.494-50.528-13.187-35.434-5.5-69.845,12.243-103.19,26.173q-12.243,5.125-24.757,9.619-8.29,2.991-16.659,5.693a524.5,524.5,0,0,1-104.528,22.361,241.543,241.543,0,0,1-44.38,1.2,149.909,149.909,0,0,1-16.615-2.16c-18.688-3.5-36.134-10.922-50.187-24.486-11.675-11.1-19.912-25.605-26.191-40.742q-3.787-9.121-6.672-18.662a208.129,208.129,0,0,1-6.795-30.458c-.341-2.326-.647-4.661-.875-7q-.682-6.008-1.014-12.068a209,209,0,0,1,6.218-63.838c5.955-23.078,15.889-45.176,20.262-68.472.184-.979.35-1.959.516-2.938q.875-5.247,1.329-10.686c2.2-28.491-6.323-56.378-13.056-84.31-.236-.979-.472-1.959-.7-2.938q-1.093-4.644-2.073-9.3c-6.235-29.54-7.94-61.153-2.4-90.632.175-.979.376-1.968.577-2.938,3.734-18.259,10.328-35.627,20.428-51.1,10.363-15.881,23.97-29.094,38.477-40.707q10.625-8.483,21.976-15.872,8.159-5.3,16.615-10.03c45.552-25.36,97.523-37.752,148.908-34.98q4.084.21,8.15.56,4.267.367,8.509.874c33.082,3.822,65.272,13.292,97.269,23.655q16.082,5.247,32.111,10.494,7.136,2.326,14.263,4.591c23.305,7.354,46.995,13.992,70.9,18.994q8.316,1.749,16.615,3.192a392.717,392.717,0,0,0,58.232,6q11.368.28,22.737-.236,5.745-.262,11.5-.77c39.623-3.393,77.83-14.77,116.193-25.456,5.544-1.548,11.1-3.087,16.615-4.574,7.293-1.959,14.6-3.856,21.923-5.605,45.631-10.957,86.295-4.661,128.716,17.936,9.619,5.133,19.239,11.325,25.185,20.909s7.389,21.451,8.491,32.872c1.557,16.248,2.623,32.723,2.965,49.269,0,.979,0,1.959.061,2.938A524.192,524.192,0,0,1,981.458,370.077Z" transform="translate(-70.452 -62.726)" fill="#6c63ff" opacity="0.1"/>
      <path id="Path_2399" data-name="Path 2399" d="M680.3,468.1h-2.982v2.938h3.376Zm-33.8,0a.188.188,0,0,0,0,.07l-.262,2.431v.437h25.885v-.175l1.845-2.763Zm-69.216,0V373.065h29.733c-.315-.262-.638-.525-.971-.77l-.437-.332c-.184-.149-.367-.289-.56-.42s-.647-.464-.988-.691-.551-.376-.875-.56l-.2-.131h-25.7v-5.2l-.691.332-.735.411h-.052l-.157.1-.455.3c-.157.1-.315.192-.464.3-.455.306-.875.638-1.355.979l-.437.35c-.3.227-.577.464-.875.7-1.163.953-2.309,1.95-3.5,2.868-.3.236-.595.463-.874.682a22.606,22.606,0,0,1-1.976,1.294,9.386,9.386,0,0,1-.875.481l-.49.227-.446.192h0a18.574,18.574,0,0,1-3.253,1.032v92.9h-44.6a1.346,1.346,0,0,0,.087.306c.245.874.49,1.749.726,2.623h43.794V572.895h.682l.778.052,1.417.1,2.291.227,1.032.122,1.137.14h.166c.656.087,1.32.192,1.994.3l.428.07.962.157,1.382.245h0l3.314-.175h0l.455.1a2.653,2.653,0,0,1,.56.114V471.034h68.918V470.6l.262-2.431a.2.2,0,0,1,0-.07Zm103.015,0h-2.982v2.938h3.375Zm-35.662,0-.3,2.938h28.8l1.959-2.938Zm-67.336,0V373.065h29.733c-.315-.262-.638-.525-.971-.77l-.437-.332c-.184-.149-.367-.289-.56-.42s-.647-.464-.988-.691-.551-.376-.875-.56l-.2-.131H577.283v-5.2l-.691.332-.735.411h-.052l-.157.1-.455.3c-.157.1-.315.192-.464.3-.455.306-.875.638-1.355.979l-.437.35c-.3.227-.577.464-.875.7-1.163.953-2.309,1.95-3.5,2.868-.3.236-.595.463-.874.682a22.606,22.606,0,0,1-1.976,1.294,9.386,9.386,0,0,1-.875.481l-.49.227-.446.192h0a18.574,18.574,0,0,1-3.253,1.032v92.9h-44.6a1.346,1.346,0,0,0,.087.306c.245.874.5,1.749.735,2.623h43.786v101.86l.682.044.778.052,1.417.1,2.291.227,1.032.122,1.137.14h.166c.656.087,1.32.192,1.994.3l.428.07.962.157,1.382.245h0l3.314-.175h0l.455.1a2.657,2.657,0,0,1,.56.114V471.034h67.082l.315-2.938ZM802.622,270.2H989.963c0-.979,0-1.959-.061-2.938H802.622V151.881c-5.562,1.487-11.115,3.026-16.615,4.574V267.261H582.25l-.516-.56.778-.874h0L658.3,182.654q-11.368.525-22.737.236l-58.276,63.925v-69.9q-8.343-1.443-16.615-3.192V243.6l-85.2-93.457c-10.695-3.5-21.39-7.057-32.111-10.494L559.164,266.7l-.516.56H346.086V115.974q-4.25-.481-8.509-.874-4.066-.359-8.15-.56V267.261H180.519V149.555q-8.474,4.722-16.615,10.03V267.261H82.917c-.2.971-.4,1.959-.577,2.938h81.494v99.928H86.852c.227.979.463,1.959.7,2.938h76.317V468.1H99.253c-.166.979-.332,1.959-.516,2.938h65.132V736.748a149.893,149.893,0,0,0,16.615,2.16V471.034H329.427V715.349q8.378-2.72,16.659-5.693V471.034H560.633V684.5a123.3,123.3,0,0,0,16.51-5.693l.14-.061V471.034H785.954v100.1q8.3-1.5,16.615-2.86V471.034H950.944q.734-1.469,1.443-2.938H802.622V373.065H982.443c.184-.979.35-1.959.516-2.938H802.622Zm-622.094,0h148.9v99.928H180.519Zm0,197.9V373.065h148.9V468.1ZM346.095,270.2H560.633v99.928H346.086Zm0,197.9V373.065H560.633V468.1Zm439.868,0H577.283V373.065H785.954Zm0-97.943H577.283V272.875l2.93-2.676H785.954ZM646.508,468.1a.193.193,0,0,0,0,.07l-.262,2.431v.437H672.13v-.175l1.845-2.763Zm33.8,0h-2.982v2.938H680.7Zm-103.015,0V373.065h29.733c-.315-.262-.638-.525-.971-.77l-.437-.332c-.184-.149-.367-.289-.56-.42s-.647-.464-.988-.691-.551-.376-.875-.56l-.2-.131h-25.71v-5.2l-.691.332-.735.411h-.052l-.157.1-.455.3c-.157.1-.315.192-.464.3-.455.306-.875.638-1.355.979l-.437.35c-.3.227-.577.464-.875.7-1.163.953-2.309,1.95-3.5,2.868-.3.236-.595.463-.874.682a22.606,22.606,0,0,1-1.976,1.294,9.386,9.386,0,0,1-.875.481l-.49.227-.446.192h0a18.574,18.574,0,0,1-3.253,1.032v92.9h-44.6a1.346,1.346,0,0,0,.087.306c.245.874.49,1.749.726,2.623h43.794V572.895h.682l.778.052,1.417.1,2.291.227,1.032.122,1.137.14h.166c.656.087,1.32.192,1.994.3l.428.07.962.157,1.382.245h0l3.314-.175h0l.455.1a2.653,2.653,0,0,1,.56.114V471.034h68.918V470.6l.262-2.431a.2.2,0,0,1,0-.07Z" transform="translate(-71.944 -62.776)" fill="#6c63ff" opacity="0.1"/>
      <path id="Path_2400" data-name="Path 2400" d="M275.689,212.964h1.329a3.183,3.183,0,0,1-1.583-2.562h0c0-2.029,2.484-3.682,5.518-3.682h38.609c3.034,0,5.518,1.653,5.518,3.682h0c0,2.02-2.484,3.682-5.518,3.682h-1.285a3.192,3.192,0,0,1,1.574,2.562c0,1.749-1.8,3.183-4.215,3.577h11.115c3.026,0,5.509,1.653,5.509,3.682s-2.484,3.673-5.509,3.673H288.1c-3.026,0-5.509-1.653-5.509-3.673,0-1.749,1.8-3.183,4.215-3.577H275.689c-3.026,0-5.509-1.653-5.509-3.682S272.646,212.964,275.689,212.964Z" transform="translate(-95.52 -74.346)" fill="#6c63ff" opacity="0.1"/>
      <path id="Path_2401" data-name="Path 2401" d="M754.209,253.034H755.5a3.192,3.192,0,0,1-1.583-2.571h0c0-2.02,2.484-3.673,5.518-3.673h38.609c3.034,0,5.518,1.653,5.518,3.673h0c0,2.029-2.484,3.682-5.518,3.682h-1.285a3.2,3.2,0,0,1,1.574,2.571c0,1.749-1.8,3.174-4.215,3.568h11.115c3.026,0,5.509,1.662,5.509,3.682s-2.484,3.682-5.509,3.682h-38.6c-3.026,0-5.509-1.653-5.509-3.682,0-1.749,1.8-3.183,4.215-3.568H754.209c-3.026,0-5.509-1.662-5.509-3.682S751.2,253.034,754.209,253.034Z" transform="translate(-155.58 -79.375)" fill="#6c63ff" opacity="0.1"/>
      <path id="Path_2402" data-name="Path 2402" d="M207.959,424.5h1.294a3.2,3.2,0,0,1-1.574-2.571h0c0-2.02,2.475-3.682,5.509-3.682H251.8c3.034,0,5.518,1.662,5.518,3.682h0c0,2.029-2.484,3.682-5.518,3.682h-1.286a3.2,3.2,0,0,1,1.574,2.571c0,1.749-1.8,3.174-4.215,3.568h11.115c3.034,0,5.509,1.653,5.509,3.682s-2.475,3.682-5.509,3.682H220.368c-3.026,0-5.509-1.662-5.509-3.682,0-1.749,1.81-3.183,4.215-3.577H207.959c-3.026,0-5.509-1.653-5.509-3.673S204.934,424.5,207.959,424.5Z" transform="translate(-87.02 -100.895)" fill="#6c63ff" opacity="0.1"/>
      <path id="Path_2403" data-name="Path 2403" d="M710.427,713.44q-3.244,2.571-6.489,5.133c-1.268,1.006-2.553,2-3.83,3-.927.726-1.845,1.452-2.79,2.169-4.731,3.647-9.523,7.215-14.411,10.625-1.163.813-2.344,1.627-3.5,2.422a184.426,184.426,0,0,1-31.079,17.122l-.14.061V713.44Z" transform="translate(-142.965 -137.945)" fill="#65617d"/>
      <path id="Path_2404" data-name="Path 2404" d="M773.32,500.7l.979-30.214c-.586-.455-1.181-.875-1.749-1.294a161.046,161.046,0,0,0-1.539-26.943c-3.953-30.214-29.619-30.869-36.86-24.634a17.491,17.491,0,0,1-3.122,2.151c.656-4.311,1.469-8.631,2.055-12.9,3.166-23.017-1.749-48.91-19.606-63.785-7.477-6.218-16.615-10.039-24.827-15.242-14.709-9.278-26.331-22.982-41.206-32.015s-35.767-12.418-48.744-.8c-5.028,4.495-8.273,10.73-13.432,15.067-9.619,8.08-24.617,8.614-33.012,17.638h0c-.42.455-.822.918-1.207,1.408-7,8.972-5.081,21.7-2.851,32.828,2.685,13.4,1.574,24.136,13.065,27.984.044.533.079,1.067.14,1.592a56.763,56.763,0,0,0,24.975,40.856l-1.863.665c-4.967,1.749-9.436,3.445-12.3,4.609-10.494,4.276-32.583,9.847-32.583,9.847s-.525,6.3-.429,15.583c-7.363,8-19.65,22.063-23.261,30.4-5.247,12.155-34.892,46.969-42.789,52.225S456.7,557.2,456.7,557.2s-12.505,6.9-18.425,7.556c-4.1.455-16.79-1.976-16.79-1.976S370.81,500.7,374.1,548.337s43.768,49.26,43.768,49.26l40.812-.656s22.055,2.956,31.928-5.247c8.43-7,52.119-45.377,66.155-62.788.324.359.647.708.988,1.049,0,0,5.588-7.223,6.253,0s-3.629,10.494-1.32,13.117,9.217,11.823,9.541,15.435-9.208,18.364,6.909,29.558c.254.175.525.341.822.507,2.877,6.55,12.024,12.96,12.024,12.96l49.365-.656,93.142,7.223s2.772-2.44,6.524-6.427c5.011,4.6,11.963,8.544,19.8,6.121,0,0,11.193-13.458,11.526-22.326,0,0-7.241-18.723-10.494-24.3s2.309-17.735,2.309-17.735,3.944-11.823,6.253-11.823.656-7.87.656-7.87a9.567,9.567,0,0,1-.988-8.867C772,509.895,773.32,500.7,773.32,500.7Z" transform="translate(-108.544 -84.497)" fill="url(#linear-gradient)"/>
      <path id="Path_2405" data-name="Path 2405" d="M752.394,511.264l-3.5,4.093h0l-14.132,16.458-18.46,1.119-29.549,1.819s-39.842-48.009-32.356-58.46c2.72-3.769,3.166-8.745,2.623-13.441-.07-.647-.166-1.294-.28-1.933a55.875,55.875,0,0,0-4.652-14.342l.979-.446.63-.289,34.84-15.9,8.622-3.935a23.275,23.275,0,0,0,2.361,6.8c.166.332.35.665.542.979,11.884,19.676,49.995,7.232,49.995,7.232Z" transform="translate(-143.454 -101.869)" fill="#ee8e9e"/>
      <path id="Path_2406" data-name="Path 2406" d="M816.993,487.847c-.262,11.911-2.2,17.053-2.2,17.053l-49.312,7.512-1.845-12.8-7.3-50.554,6.856-6.856a18.3,18.3,0,0,0,15.68-3.918c7.18-6.209,32.653-5.553,36.571,24.486a166.273,166.273,0,0,1,1.556,25.08Z" transform="translate(-156.537 -103.017)" fill="#ee8e9e"/>
      <path id="Path_2407" data-name="Path 2407" d="M808.365,647.575s11.1-13.388,11.43-22.2l-11.106-18.618-9.794-10.494L780.6,631.572S792.685,652.472,808.365,647.575Z" transform="translate(-159.584 -123.237)" fill="#dfe5ee"/>
      <path id="Path_2408" data-name="Path 2408" d="M808.365,647.575s11.1-13.388,11.43-22.2l-11.106-18.618-9.794-10.494L780.6,631.572S792.685,652.472,808.365,647.575Z" transform="translate(-159.584 -123.237)" opacity="0.1"/>
      <path id="Path_2409" data-name="Path 2409" d="M627.79,718.287c-.927.726-1.845,1.452-2.79,2.169-4.731,3.647-9.523,7.215-14.411,10.625-1.163.813-2.344,1.627-3.5,2.422H328.129l-82.534-2.956-66.374-.56-16.615-.874-82.9-4.372a208.127,208.127,0,0,1-6.83-30.485c-.341-2.326-.647-4.661-.875-7l90.571,5.019,16.615.936,148.908,8.308,16.659.927L559.3,714.43l16.51.927h.14Z" transform="translate(-70.647 -134.659)" fill="#d48a9b"/>
      <path id="Path_2410" data-name="Path 2410" d="M739.527,645.16c-18.2,5.247-35.854,12.007-52.469,21.582-1.32.761-2.623,1.539-3.944,2.335s-2.623,1.592-3.891,2.414-2.545,1.635-3.8,2.466l-1.941,1.312-1.9,1.294c-1.871,1.285-3.717,2.623-5.562,3.918l-.07.052q-1.823,1.312-3.629,2.624c-6.812,5.046-13.476,10.328-20.113,15.627q-2.1,1.679-4.206,3.349l-6.471,5.133c-1.268,1.006-2.554,2-3.83,3-.927.726-1.845,1.452-2.79,2.169L575.936,710.1h-.14l-16.51-.77L344.643,699.16l-16.659-.8-148.908-7.075-16.615-.8L72.729,686.27c-.341-2.326-.647-4.661-.874-7q-.682-6.008-1.014-12.068l91.611-32.356,16.615-5.885,15.094-5.334,27.5,1.434,63.567,3.262h0l42.78,2.247,16.659.875,10.643.56h0l2.545.14h0l89.565,4.678h0l.944.061h0l39.964,2.081h.717l4,.2h0l13.625.717,17.035.875h0l5.614.3h0l1.058.061,7.94.411h0l2.265.114h0l7.582.4h0l3.017.166h.726l7.092.376,10.984.577h.052l3.41.175h.367l2.038.114,5,.262h0l4.372.227h.044l4.906.254h.079l3.716.2h0l2.851.149,10.118.533h0l1.819.1h.63l.874.052h0l2.965.157h0l1.329.07h0l10.319.533h.944l15.234-.131h.1l57.917-.472H704.8l18.644-.149h2.781Z" transform="translate(-70.501 -126.673)" fill="#efc6cd"/>
      <path id="Path_2411" data-name="Path 2411" d="M388.305,648.214l5.387,28.657,146.459-2.2s11.018,3.183,10.774-5.632c0,0,22.291-21.066,135.2,3.428L642.773,638.42,524.28,644.786l-137.4-3.673Z" transform="translate(-110.168 -128.529)" fill="#6c63ff"/>
      <path id="Path_2412" data-name="Path 2412" d="M391.59,641.553l5.142,31.106s125.926-3.673,145.725-.245L527.494,644S451.353,636.9,391.59,641.553Z" transform="translate(-110.759 -128.724)" fill="#fff"/>
      <path id="Path_2413" data-name="Path 2413" d="M391.59,641.553l5.142,31.106s125.926-3.673,145.725-.245L527.494,644S451.353,636.9,391.59,641.553Z" transform="translate(-110.759 -128.724)" opacity="0.1"/>
      <path id="Path_2414" data-name="Path 2414" d="M393.74,641.439l5.072,28.928s124.326-3.411,143.915-.227l-14.753-26.418S452.751,637.11,393.74,641.439Z" transform="translate(-111.029 -128.723)" fill="#fff"/>
      <path id="Path_2415" data-name="Path 2415" d="M396.35,642.47l4.941,27.057s121.6-3.192,140.793-.21L527.655,644.6S454.075,638.387,396.35,642.47Z" transform="translate(-111.356 -128.863)" opacity="0.1"/>
      <path id="Path_2416" data-name="Path 2416" d="M397.47,641.343l4.967,27.109s121.6-3.192,140.793-.21l-14.464-24.748S455.2,637.294,397.47,641.343Z" transform="translate(-111.497 -128.723)" fill="#fff"/>
      <path id="Path_2417" data-name="Path 2417" d="M296.578,557.41s6.366,8.316-2.93,20.883-16.974,23.165-13.869,31c0,0,13.992-23.331,25.448-23.611S309.145,571.437,296.578,557.41Z" transform="translate(-96.637 -118.361)" fill="#6c63ff"/>
      <path id="Path_2418" data-name="Path 2418" d="M296.63,557.41a10.107,10.107,0,0,1,1.3,2.623c11.141,13.117,17.079,25.36,6.366,25.622-9.978.28-21.941,18.119-24.809,22.632q.149.507.341,1.023s13.992-23.331,25.448-23.611S309.2,571.437,296.63,557.41Z" transform="translate(-96.689 -118.361)" opacity="0.1"/>
      <path id="Path_2419" data-name="Path 2419" d="M312.409,569.271c0,2.921-.332,5.3-.735,5.3s-.735-2.379-.735-5.3.411-1.557.813-1.557S312.409,566.341,312.409,569.271Z" transform="translate(-100.636 -119.614)" fill="#ffd037"/>
      <path id="Path_2420" data-name="Path 2420" d="M316.54,573.24c-2.571,1.408-4.81,2.256-5,1.9s1.749-1.749,4.3-3.183,1.557-.385,1.749,0S319.111,571.841,316.54,573.24Z" transform="translate(-100.71 -120.095)" fill="#ffd037"/>
      <path id="Path_2421" data-name="Path 2421" d="M258.61,557.41s-6.366,8.316,2.938,20.883,16.965,23.165,13.869,31c0,0-14.036-23.331-25.456-23.611S246.044,571.437,258.61,557.41Z" transform="translate(-92.276 -118.361)" fill="#6c63ff"/>
      <path id="Path_2422" data-name="Path 2422" d="M258.61,557.41a10.5,10.5,0,0,0-1.3,2.623c-11.141,13.117-17.079,25.36-6.366,25.622,9.978.28,21.95,18.119,24.818,22.632a10.512,10.512,0,0,1-.341,1.023s-14.036-23.331-25.456-23.611S246.044,571.437,258.61,557.41Z" transform="translate(-92.276 -118.361)" opacity="0.1"/>
      <path id="Path_2423" data-name="Path 2423" d="M247.13,569.271c0,2.921.332,5.3.735,5.3s.735-2.379.735-5.3-.411-1.557-.813-1.557S247.13,566.341,247.13,569.271Z" transform="translate(-92.627 -119.614)" fill="#ffd037"/>
      <path id="Path_2424" data-name="Path 2424" d="M242.266,573.24c2.571,1.408,4.818,2.256,5.011,1.9s-1.749-1.749-4.3-3.183-1.557-.385-1.749,0S239.7,571.841,242.266,573.24Z" transform="translate(-91.821 -120.095)" fill="#ffd037"/>
      <path id="Path_2425" data-name="Path 2425" d="M309.173,603.353l-.315,2.623-.446,3.664-.184,1.53-.446,3.673-.192,1.53-.455,3.673-5.09,41.731c-.455,3.725-6.541,6.629-13.887,6.629H261.732c-7.346,0-13.423-2.9-13.878-6.629l-5.1-41.731-.446-3.673-.184-1.53-.455-3.673-.184-1.53-.446-3.664-.324-2.623c-.254-2.108,3.034-3.883,7.2-3.883h54.1C306.165,599.47,309.462,601.245,309.173,603.353Z" transform="translate(-91.821 -123.64)" fill="#65617d"/>
      <path id="Path_2426" data-name="Path 2426" d="M238.493,551.59l-.446,3.673H171.1l-.446-3.673Z" transform="translate(-21.429 -69.28)" fill="#9d9cb5"/>
      <path id="Path_2427" data-name="Path 2427" d="M237.954,557.54l-.446,3.673H171.825l-.455-3.673Z" transform="translate(-21.52 -70.027)" fill="#9d9cb5"/>
      <path id="Path_2428" data-name="Path 2428" d="M237.407,563.49l-.446,3.664H172.546l-.446-3.664Z" transform="translate(-21.611 -70.774)" fill="#9d9cb5"/>
      <path id="Path_2429" data-name="Path 2429" d="M408.944,599.189s-16.983-16.327-16.327,4.9S408.944,599.189,408.944,599.189Z" transform="translate(-110.885 -122.852)" fill="#ee8e9e"/>
      <path id="Path_2430" data-name="Path 2430" d="M559.036,548.21c-.376,1.644-2.2,4.372-5.055,7.792-14.726,17.735-56.623,54.594-64.835,61.433-9.794,8.168-31.674,5.247-31.674,5.247l-40.489.656s-40.165-1.635-43.436-48.971,47.021,14.368,47.021,14.368,12.593,2.414,16.659,1.959c5.877-.647,18.286-7.5,18.286-7.5s8.491-6.209,16.327-11.43,37.227-39.842,42.456-51.927c3.314-7.669,13.992-20.209,21.364-28.342,4.233-4.679,7.372-7.87,7.372-7.87S561.318,538.083,559.036,548.21Z" transform="translate(-108.475 -109.1)" fill="#ee8e9e"/>
      <path id="Path_2431" data-name="Path 2431" d="M582.325,548.2c-.376,1.644-2.2,4.372-5.055,7.792C562.4,540.859,559.3,510.654,558.95,491.45c4.233-4.679,7.372-7.87,7.372-7.87S584.607,538.078,582.325,548.2Z" transform="translate(-131.764 -109.095)" opacity="0.1"/>
      <path id="Path_2432" data-name="Path 2432" d="M748.887,518.2h0l-14.123,16.458L716.3,535.78,686.755,537.6S646.913,489.59,654.4,479.14c2.72-3.769,3.166-8.745,2.623-13.441-.07-.647-.166-1.294-.28-1.933a55.874,55.874,0,0,0-4.652-14.342l.979-.446.63-.289a62.7,62.7,0,0,1,3.2,13.388c.1.621.184,1.268.271,1.933.306,2.361.586,4.985.874,7.87,2.274,26.427,18.9,36.37,26.4,39.536a76.135,76.135,0,0,1,7.066,3.419,37.7,37.7,0,0,0,23.7,4.285c18.522-2.431,33.624-15.889,33.624-15.889l.079,13.248Z" transform="translate(-143.454 -104.716)" opacity="0.1"/>
      <path id="Path_2433" data-name="Path 2433" d="M738.01,620.3s-121.475-.332-137.487-11.43-6.524-25.8-6.856-29.392-7.18-12.733-9.462-15.356,1.959-5.877,1.3-13.056-6.2,0-6.2,0C556.44,527.875,561.337,469.1,561.337,469.1s21.862-5.544,32.356-9.8c2.842-1.154,7.267-2.8,12.243-4.574l1.845-.665c12.829-4.591,28.08-9.777,28.08-9.777s2.93-2.073,5.877,4.128c1.347,2.851,2.7,7.442,3.787,14.779.1.621.184,1.268.271,1.933.306,2.361.586,4.985.875,7.87,2.274,26.427,18.9,36.37,26.4,39.536a76.121,76.121,0,0,1,7.066,3.419,37.7,37.7,0,0,0,23.7,4.285c18.522-2.431,33.624-15.889,33.624-15.889l.079,13.249.227,39.807Z" transform="translate(-132.008 -104.121)" fill="#dfe5ee"/>
      <path id="Path_2434" data-name="Path 2434" d="M738.462,585.964,736.5,598.373s-48.333,12.077-67.266,15.671-59.763-.979-62.7,6.856,12.409,18.618,12.409,18.618l48.971-.656,92.416,7.188s35.268-31.027,23.839-52.583S738.462,585.964,738.462,585.964Z" transform="translate(-137.69 -121.38)" fill="#ee8e9e"/>
      <path id="Path_2435" data-name="Path 2435" d="M640.9,474.58s-22.212,18.286-17.962,27.109S640.9,474.58,640.9,474.58Z" transform="translate(-139.728 -107.965)" opacity="0.1"/>
      <path id="Path_2436" data-name="Path 2436" d="M609.136,512.29s-22.536,38.862-21.224,41.8,7.512,13.388,7.18,5.553S609.136,512.29,609.136,512.29Z" transform="translate(-135.392 -112.698)" opacity="0.1"/>
      <path id="Path_2437" data-name="Path 2437" d="M621,520.14s-5.247,24.162-10.45,34.289S621,520.14,621,520.14Z" transform="translate(-138.107 -113.683)" opacity="0.1"/>
      <path id="Path_2438" data-name="Path 2438" d="M695.117,433.823a56.492,56.492,0,0,1-42.937,29.051h-.1a56.4,56.4,0,0,1-39.754-10.406c13.117-4.74,29.925-10.441,29.925-10.441s2.93-2.073,5.877,4.128l44.092-20.113a23.374,23.374,0,0,0,2.9,7.783Z" transform="translate(-138.463 -101.873)" opacity="0.1"/>
      <path id="Path_2439" data-name="Path 2439" d="M698.664,393.657a56.238,56.238,0,0,1-7.433,28.036A56.9,56.9,0,0,1,682.81,432.9a56.256,56.256,0,0,1-34.245,16.93h-.114a55.152,55.152,0,0,1-6.279.359,56.492,56.492,0,0,1-56.134-50.127,54.846,54.846,0,0,1-.358-6.374,56.492,56.492,0,1,1,112.984,0Z" transform="translate(-135.119 -90.722)" fill="#ee8e9e"/>
      <path id="Path_2440" data-name="Path 2440" d="M756.153,520.042l5.247-7.87s28.736-34.289,56.842-12.409l-.979,30.047s-1.312,9.138-3.271,13.992a9.558,9.558,0,0,0,.979,8.824s1.635,7.87-.647,7.87-6.209,11.753-6.209,11.753-5.553,12.085-2.282,17.638,10.45,24.162,10.45,24.162-11.43-6.856-14.7-18.286c0,0-27.756-21.556-49.313-7.87Z" transform="translate(-156.028 -110.21)" opacity="0.1"/>
      <path id="Path_2441" data-name="Path 2441" d="M818.041,494.544c-.262,11.911-2.2,17.053-2.2,17.053l-49.312,7.512-1.845-12.8C771.134,499.572,794.605,478.164,818.041,494.544Z" transform="translate(-157.586 -109.713)" opacity="0.1"/>
      <path id="Path_2442" data-name="Path 2442" d="M756.153,518.042l5.247-7.87s28.736-34.289,56.842-12.409l-.979,30.048s-1.312,9.138-3.271,13.992a9.558,9.558,0,0,0,.979,8.824s1.635,7.87-.647,7.87-6.209,11.753-6.209,11.753-5.553,12.085-2.282,17.638,10.45,24.162,10.45,24.162-11.43-6.856-14.7-18.286c0,0-27.756-21.556-49.313-7.87Z" transform="translate(-156.028 -109.959)" fill="#dfe5ee"/>
      <path id="Path_2443" data-name="Path 2443" d="M803.251,496.61s-47.345,29.068-45.062,54.559C758.189,551.169,784.642,504.445,803.251,496.61Z" transform="translate(-156.761 -110.73)" opacity="0.1"/>
      <path id="Path_2444" data-name="Path 2444" d="M740.529,504.214l.227,39.807c-8.955.4-17.394-.761-24.066-6.559-4.644-4.04-7.346-9.619-8.745-15.653A55.449,55.449,0,0,1,706.809,507a.786.786,0,0,1,0-.149c.551-10.992,3.078-21.985,1.749-32.907S700.609,451.5,689.8,449.2c-2.134-.464-4.53-.63-6.051-2.195-1.679-1.749-1.6-4.469-1.417-6.891l.315-4.084c.079-1.049.114-2.09.114-3.131A40.078,40.078,0,0,0,650.4,393.6l-.35-.061c-3.043-.612-6.209-1.216-9.252-.516-5.789,1.338-9.532,6.952-14.866,9.619-10.232,5.107-27.293-.481-38.005-2.239-.7-.114-1.364-.245-2-.394a54.841,54.841,0,0,1-.359-6.375,56.492,56.492,0,1,1,105.551,28.036c.166.332.35.665.542.979,11.884,19.676,49.995,7.232,49.995,7.232l2.291,70.213Z" transform="translate(-135.105 -90.718)" opacity="0.1"/>
      <path id="Path_2445" data-name="Path 2445" d="M625.895,395.866c5.3-2.676,9.042-8.29,14.866-9.619,3.034-.7,6.2-.1,9.261.507l.35.07a40.113,40.113,0,0,1,32.207,42.439l-.315,4.084c-.192,2.414-.271,5.151,1.426,6.882,1.513,1.565,3.909,1.749,6.043,2.186,10.809,2.309,17.429,13.773,18.758,24.757s-1.242,22.011-1.749,33.047,1.522,23.218,9.864,30.467c13.117,11.368,33.056,4.9,50.414,3.857-7.678,0-13.432-7.923-13.852-15.583s2.991-14.954,6.253-21.862,6.532-14.342,5.807-21.985c-1-10.494-9.269-18.9-12.435-29-3.69-11.753-.131-24.372,1.539-36.589,3.139-22.877-1.749-48.63-19.457-63.418-7.416-6.183-16.484-9.987-24.634-15.164-14.6-9.261-26.121-22.842-40.882-31.849s-35.487-12.348-48.368-.8c-4.985,4.469-8.2,10.669-13.327,14.98-10.013,8.439-25.929,8.6-33.956,18.95-6.908,8.911-5.037,21.565-2.825,32.627,2.947,14.753,1.285,26.235,17.052,28.858C598.6,395.394,615.654,400.982,625.895,395.866Z" transform="translate(-133.008 -84.912)" fill="#603556"/>
      <path id="Path_2446" data-name="Path 2446" d="M755.792,533.21c-12.636,1.548-25.159,2.344-34.359-5.632-8.343-7.249-10.4-19.422-9.864-30.467s3.087-22.081,1.749-33.056-7.949-22.439-18.758-24.748c-2.134-.455-4.521-.621-6.043-2.186-1.688-1.749-1.618-4.477-1.425-6.891l.315-4.084a40.1,40.1,0,0,0-32.207-42.43l-.35-.07c-3.061-.6-6.226-1.207-9.261-.507-5.789,1.338-9.532,7-14.866,9.619-10.24,5.116-27.284-.472-38.014-2.23-15.741-2.58-14.1-14.079-17.052-28.858-1.653-8.255-3.113-17.4-.875-25.22a13.746,13.746,0,0,0-1.207,1.408c-6.908,8.911-5.037,21.565-2.825,32.627,2.947,14.753,1.286,26.235,17.053,28.858,10.721,1.749,27.774,7.346,38.014,2.23,5.3-2.676,9.042-8.29,14.866-9.619,3.034-.7,6.2-.1,9.261.507l.35.07A40.113,40.113,0,0,1,682.5,434.97l-.315,4.084c-.192,2.414-.271,5.151,1.425,6.882,1.513,1.565,3.909,1.749,6.043,2.186,10.809,2.309,17.429,13.773,18.758,24.757s-1.233,22.011-1.749,33.047,1.522,23.218,9.864,30.467c13.117,11.368,33.056,4.9,50.414,3.856C762.229,540.276,758.267,537.285,755.792,533.21Z" transform="translate(-132.992 -90.628)" opacity="0.1"/>
      <path id="Path_2447" data-name="Path 2447" d="M375.657,591.876l53.912-20.113a5.133,5.133,0,0,1,6.6,3.008h0a5.133,5.133,0,0,1-3.008,6.6l-53.912,20.113-11.561-1.154Z" transform="translate(-107.759 -120.122)" fill="#5c5c8e"/>
      <path id="Path_2448" data-name="Path 2448" d="M434.54,573.243h0a5.133,5.133,0,0,1-3.017,6.6l-53.947,20.183-8.675-.875-1.251,1.329,11.561,1.154,53.912-20.113a5.133,5.133,0,0,0,3.008-6.6h0a5.133,5.133,0,0,0-2.1-2.562,5.96,5.96,0,0,1,.507.883Z" transform="translate(-107.754 -120.238)" fill="#fff" opacity="0.1"/>
      <path id="Path_2449" data-name="Path 2449" d="M305.227,539.52l3.585,9.611-9.479-.953-2.073-.21,2.833-3.008Z" transform="translate(-37.32 -67.765)" fill="#efc8c4"/>
      <path id="Path_2450" data-name="Path 2450" d="M370.527,601a2.292,2.292,0,0,1,.56.6.875.875,0,0,1,0,.936,1.863,1.863,0,0,1-.516.376,1.749,1.749,0,0,0-.77,1.294l-2.081-.2Z" transform="translate(-107.763 -123.832)" fill="#727a9c"/>
      <path id="Path_2451" data-name="Path 2451" d="M570.227,660.5s46.7-9.8,125.052,2.623L664.584,640.6,608.74,629.17,569.23,639.664Z" transform="translate(-133.055 -127.368)" fill="#fff"/>
      <path id="Path_2452" data-name="Path 2452" d="M570.227,660.5s46.7-9.8,125.052,2.623L664.584,640.6,608.74,629.17,569.23,639.664Z" transform="translate(-133.055 -127.368)" opacity="0.1"/>
      <path id="Path_2453" data-name="Path 2453" d="M561.971,671.487s23.515-63.61,144.291.2l-43.348-27.9S559.068,615.1,547.07,648.165Z" transform="translate(-130.273 -127.754)" fill="#fff"/>
      <path id="Path_2454" data-name="Path 2454" d="M561.962,670.781S585.478,602.772,706.253,672L662.9,641.748s-103.881-34.315-115.9,1.6Z" transform="translate(-130.264 -127.09)" opacity="0.1"/>
      <path id="Path_2455" data-name="Path 2455" d="M561.971,670.77s23.515-69.015,144.291.219l-43.348-30.257S559.068,607.4,547.07,643.354Z" transform="translate(-130.273 -127.053)" fill="#fff"/>
      <path id="Path_2456" data-name="Path 2456" d="M561.966,670.385s23.515-76.7,144.291,1.181l-43.383-34.044s-103.846-34.979-115.844,5.387Z" transform="translate(-130.268 -126.651)" opacity="0.1"/>
      <path id="Path_2457" data-name="Path 2457" d="M561.966,670.2s23.515-77.637,144.291.245L662.874,636.4s-103.846-34.979-115.844,5.387Z" transform="translate(-130.268 -126.51)" fill="#fff"/>
      <path id="Path_2458" data-name="Path 2458" d="M976.471,668.71s-28.989,31.053-2.895,46.138c0,0,3.411,4.11,8.281,1.959,0,0-1.644-1.461,1.653-4.276a19.562,19.562,0,0,0,3.1-3.411,9.62,9.62,0,0,0,1.8-5.824h0s3.8-12.322-8.264-28.316c0,0-1.093-5.352-2.02-5.938l-2.2,7.459s5.536,1.408,7.617,5.623c0,0-7.293-5.728-8-4.53-.14.245-.988,4.014-.988,4.014s9.619,2.484,12.628,9.095c0,0-7.774-7.984-12.96-7.669l-.944,5.754s10.293,2.134,13.992,9.532c0,0-8.413-8.071-14.132-8.255l-.166,5.78s10,2.274,13.047,8.448c0,0-10.66-8.334-12.995-7.118,0,0,.166,5.326.875,6.716,0,0,7.136,1.749,8.588,5.544,0,0-7.713-4.818-8.378-4.084,0,0,2.073,6.874,4.958,9.8,0,0-4.582-4.014-6.017-9.427a12,12,0,0,0-1.452,6.707s-2.86-3.166.971-8.378c0,0-1.4-5.422-1.049-6.279,0,0-4.5,4.609-5.658,8.745,0,0-.874-5.177,5.649-10.24v-5.824s-6.279,5.78-7.573,9.357c0,0-.087-5.422,7.7-10.817l.875-5.658s-5.789,4.565-8.089,8.238c0,0,1-5.055,8.4-9.847l1.023-3.708s-4.163,3.411-5.247,4.495-1.5.874-1.5.874a18.365,18.365,0,0,1,7.171-6.944S976.952,668.911,976.471,668.71Z" transform="translate(-182.437 -132.33)" fill="#6c63ff" opacity="0.1"/>
      <path id="Path_2459" data-name="Path 2459" d="M1123,90.91s-38.731,17.49-20.472,41.442c0,0,1.565,5.116,6.882,5.011,0,0-.953-1.985,3.174-3.314a19.158,19.158,0,0,0,4.18-1.95,9.62,9.62,0,0,0,3.909-4.679h0s8.255-9.9,3.3-29.3c0,0,1.058-5.361.429-6.261l-4.915,6.034s4.565,3.428,4.862,8.124c0,0-4.512-8.1-5.632-7.258-.227.166-2.457,3.314-2.457,3.314s7.87,6,8.141,13.266c0,0-4.093-10.371-9.007-12.085l-3.087,4.95s8.675,5.938,9.252,14.193c0,0-4.652-10.686-9.855-13.065l-2.387,5.247s8.352,5.955,8.745,12.829c0,0-6.62-11.806-9.243-11.578,0,0-1.9,4.967-1.749,6.532,0,0,5.894,4.372,5.789,8.43,0,0-5.247-7.416-6.121-7,0,0-.743,7.136.8,10.957,0,0-2.685-5.474-1.915-11.019a11.967,11.967,0,0,0-3.926,5.632s-1.417-4.031,4.128-7.363c0,0,.8-5.535,1.452-6.191,0,0-5.938,2.51-8.579,5.85,0,0,1.181-5.116,9.165-7.267l2.274-5.352s-8.019,2.9-10.6,5.7c0,0,2.011-5.037,11.281-7l2.982-4.88s-7.1,1.985-10.642,4.477c0,0,2.877-4.267,11.552-5.842l2.37-3.026s-5.16,1.539-6.6,2.116-1.749.236-1.749.236a18.364,18.364,0,0,1,9.348-3.638S1123.315,91.26,1123,90.91Z" transform="translate(-199.375 -59.81)" fill="#6c63ff" opacity="0.1"/>
      <path id="Path_2460" data-name="Path 2460" d="M700.865,103.29s-58.189,16.615-29.9,41.346c0,0,2.51,5.247,10.564,5.247,0,0-1.5-2.029,4.722-3.262a36.982,36.982,0,0,0,6.279-1.854,11.2,11.2,0,0,0,5.789-4.626h0s12.243-9.794,4.206-29.54c0,0,1.46-5.387.481-6.314l-7.276,5.964s7,3.594,7.582,8.343c0,0-7.057-8.3-8.745-7.486-.341.166-3.638,3.279-3.638,3.279s12.138,6.279,12.689,13.633c0,0-6.471-10.59-13.992-12.453l-4.547,4.915s13.292,6.235,14.385,14.6c0,0-7.328-10.922-15.269-13.467l-3.5,5.247s12.8,6.244,13.642,13.2c0,0-10.345-12.112-14.315-11.963,0,0-2.737,4.985-2.492,6.567,0,0,9.042,4.617,9,8.675,0,0-8.168-7.643-9.514-7.241,0,0-.927,7.2,1.5,11.1,0,0-4.215-5.605-3.2-11.185,0,0-4.626,2.317-5.789,5.579,0,0-2.256-4.1,6.052-7.319,0,0,1.058-5.579,2.029-6.226,0,0-8.92,2.379-12.829,5.684,0,0,1.644-5.142,13.677-7.1l3.306-5.352s-12.068,2.728-15.9,5.483c0,0,2.912-5.037,16.9-6.786l4.372-4.853s-10.7,1.81-16,4.241c0,0,4.241-4.241,17.332-5.6l3.5-2.991s-7.774,1.417-9.943,1.959-2.623.192-2.623.192A34.446,34.446,0,0,1,693.4,109.5S701.373,103.657,700.865,103.29Z" transform="translate(-144.85 -61.364)" fill="#6c63ff" opacity="0.1"/>
      <path id="Path_2461" data-name="Path 2461" d="M900.827,837.713s29.3-30.773,3.349-46.112c0,0-3.375-4.145-8.264-2.046,0,0,1.635,1.478-1.688,4.268a19.734,19.734,0,0,0-3.139,3.376A9.557,9.557,0,0,0,889.231,803h0s-3.926,12.287,7.984,28.395c0,0,1.041,5.361,1.959,5.964l2.282-7.442s-5.527-1.46-7.564-5.693c0,0,7.232,5.789,7.949,4.6.149-.245,1.032-4,1.032-4s-9.619-2.623-12.54-9.217c0,0,7.7,8.063,12.89,7.792l1-5.745s-10.266-2.23-13.913-9.619c0,0,8.334,8.15,14.053,8.4l.219-5.789s-9.978-2.414-13-8.622c0,0,10.581,8.448,12.925,7.25,0,0-.114-5.317-.875-6.716,0,0-7.118-1.871-8.535-5.632,0,0,7.669,4.9,8.334,4.163,0,0-2-6.891-4.862-9.847,0,0,4.547,4.058,5.929,9.479a11.953,11.953,0,0,0,1.513-6.69s2.833,3.2-1.049,8.369c0,0,1.347,5.439.988,6.288,0,0,4.547-4.565,5.737-8.649,0,0,.875,5.186-5.745,10.179l-.087,5.824s6.331-5.719,7.661-9.287c0,0,0,5.431-7.809,10.747l-.874,5.649s5.833-4.512,8.168-8.159c0,0-1.049,5.037-8.491,9.759l-1.058,3.7s4.2-3.367,5.317-4.442,1.5-.874,1.5-.874a18.3,18.3,0,0,1-7.241,6.873S900.39,837.5,900.827,837.713Z" transform="translate(-173.14 -147.423)" fill="#6c63ff" opacity="0.1"/>
      <path id="Path_2462" data-name="Path 2462" d="M575.85,56.381s4.993,42.185,33.362,32.006c0,0,5.343.044,6.847-5.063,0,0-2.186.315-2.2-4.023a19.579,19.579,0,0,0-.6-4.574,9.549,9.549,0,0,0-3.279-5.133h0s-6.961-10.861-27-11.928c0,0-4.792-2.623-5.842-2.291l4.276,6.5s4.644-3.323,9.208-2.186c0,0-9.077,1.871-8.614,3.183.087.271,2.414,3.341,2.414,3.341s8.176-5.772,15.172-3.8c0,0-11.115.77-14.228,4.941L589.1,71.79s8.273-6.489,16.327-4.556c0,0-11.6,1.224-15.435,5.466l4.355,3.865s8.185-6.174,14.866-4.512c0,0-13.257,2.763-13.834,5.326,0,0,4.171,3.306,5.71,3.655,0,0,5.981-4.294,9.777-2.982,0,0-8.657,2.781-8.526,3.76,0,0,6.585,2.851,10.686,2.536,0,0-6.025.874-11.08-1.487a11.992,11.992,0,0,0,4.189,5.439s-4.267.131-5.78-6.121c0,0-5.037-2.431-5.466-3.244,0,0,.612,6.41,3,9.934,0,0-4.53-2.623-4.18-10.922l-4.372-3.787s.359,8.526,2.247,11.832c0,0-4.2-3.437-3.288-12.872l-3.752-4.311s-.254,7.363,1.058,11.491c0,0-3.209-4.023-2.09-12.768l-2.177-3.174s-.079,5.378,0,6.935-.3,1.705-.3,1.705a18.366,18.366,0,0,1-.682-10S576.287,56.172,575.85,56.381Z" transform="translate(-133.885 -55.347)" fill="#6c63ff" opacity="0.1"/>
      <path id="Path_2463" data-name="Path 2463" d="M812.172,735s-40.944-11.369-42.255,18.749c0,0-2.064,4.932,2.09,8.255,0,0,.533-2.134,4.556-.516a19.591,19.591,0,0,0,4.46,1.181,9.558,9.558,0,0,0,6-1.1h0s12.68-2.326,21.285-20.411c0,0,4.241-3.437,4.372-4.539l-7.634,1.5s1.312,5.562-1.469,9.357c0,0,1.749-9.112.324-9.182-.289,0-4.014.971-4.014.971s2.239,9.672-2.23,15.4c0,0,3.5-10.581.813-15.041l-5.544,1.828s2.868,10.109-1.976,16.825c0,0,3.271-11.185.787-16.344l-5.194,2.527s2.623,9.917-1.46,15.478c0,0,2.466-13.31.306-14.823,0,0-4.635,2.623-5.536,3.9,0,0,1.749,7.162-.944,10.179,0,0,.7-9.068-.254-9.313,0,0-5.142,5.011-6.4,8.929,0,0,1.443-5.92,5.579-9.689a12.01,12.01,0,0,0-6.62,1.81s1.487-4,7.87-3.008c0,0,4.163-3.751,5.081-3.83,0,0-6.121-1.872-10.336-1,0,0,4.18-3.183,11.692.28l5.177-2.623s-8.028-2.895-11.8-2.4c0,0,4.766-2.624,13.117,1.828l5.4-1.845s-6.716-3.017-11.036-3.367c0,0,4.941-1.443,12.61,2.9l3.76-.813s-4.95-2.116-6.427-2.623-1.469-.874-1.469-.874a18.364,18.364,0,0,1,9.471,3.148S812.2,735.479,812.172,735Z" transform="translate(-158.178 -140.386)" fill="#6c63ff" opacity="0.1"/>
    </g>
    <g id="Group_152" data-name="Group 152" transform="translate(387.875 3713.646)">
      <rect id="Rectangle_907" data-name="Rectangle 907" width="230.913" height="193.683" transform="translate(0 17.169)" fill="#fff"/>
      <ellipse id="Ellipse_31" data-name="Ellipse 31" cx="0.984" cy="1.968" rx="0.984" ry="1.968" transform="translate(285.361 186.96)" opacity="0.1"/>
      <rect id="Rectangle_908" data-name="Rectangle 908" width="230.913" height="193.683" transform="translate(14.432)" fill="none" stroke="#6c63ff" stroke-miterlimit="10" stroke-width="5"/>
      <path id="Path_2388" data-name="Path 2388" d="M513.15,212.739V200.351l-16.223,16.518,16.223,16.518V221c13.383,0,24.335,11.15,24.335,24.777a24.953,24.953,0,0,1-2.841,11.564l5.883,5.987a32.8,32.8,0,0,0,5.07-17.551C545.6,227.606,531,212.739,513.15,212.739Zm0,57.814c-13.384,0-24.335-11.151-24.335-24.778a24.97,24.97,0,0,1,2.839-11.562l-5.88-5.988a32.263,32.263,0,0,0-5.07,17.551c0,18.17,14.6,33.036,32.446,33.036V291.2l16.223-16.518L513.15,258.164Z" transform="translate(-383.262 -148.934)" fill="#6c63ff"/>
    </g>
  </g>
</svg>
