<svg xmlns="http://www.w3.org/2000/svg" xmlns:xlink="http://www.w3.org/1999/xlink" width="142" height="142" viewBox="0 0 142 142">
  <defs>
    <filter id="Ellipse_84" x="0" y="0" width="142" height="142" filterUnits="userSpaceOnUse">
      <feOffset dy="3" input="SourceAlpha"/>
      <feGaussianBlur stdDeviation="10" result="blur"/>
      <feFlood flood-color="#2580ea" flood-opacity="0.078"/>
      <feComposite operator="in" in2="blur"/>
      <feComposite in="SourceGraphic"/>
    </filter>
  </defs>
  <g id="twiter" transform="translate(-222 -8239)">
    <g transform="matrix(1, 0, 0, 1, 222, 8239)" filter="url(#Ellipse_84)">
      <circle id="Ellipse_84-2" data-name="Ellipse 84" cx="41" cy="41" r="41" transform="translate(30 27)" fill="#fff"/>
    </g>
    <path id="Icon_awesome-twitter" data-name="Icon awesome-twitter" d="M36.768,11.676c.026.364.026.728.026,1.092,0,11.1-8.451,23.9-23.9,23.9A23.735,23.735,0,0,1,0,32.894a17.374,17.374,0,0,0,2.028.1A16.821,16.821,0,0,0,12.455,29.41,8.414,8.414,0,0,1,4.6,23.585a10.592,10.592,0,0,0,1.586.13,8.883,8.883,0,0,0,2.21-.286,8.4,8.4,0,0,1-6.735-8.243v-.1a8.459,8.459,0,0,0,3.8,1.066A8.412,8.412,0,0,1,2.86,4.915,23.874,23.874,0,0,0,20.178,13.7a9.482,9.482,0,0,1-.208-1.924A8.407,8.407,0,0,1,34.506,6.033,16.536,16.536,0,0,0,39.837,4a8.376,8.376,0,0,1-3.692,4.629,16.837,16.837,0,0,0,4.837-1.3,18.055,18.055,0,0,1-4.212,4.342Z" transform="translate(273 8286.619)" fill="#2580ea"/>
  </g>
</svg>
