<svg xmlns="http://www.w3.org/2000/svg" viewBox="0 0 318.61 549"><defs><style>.cls-1{fill:#50cb88;}.cls-2{fill:#b6e9cd;}.cls-3{fill:none;}</style></defs><g id="Layer_2" data-name="Layer 2"><polygon class="cls-1" points="0.41 91.62 159.1 0 159.1 183.24 0.41 91.62"/><polygon class="cls-2" points="159.51 365.53 318.2 273.91 318.2 457.15 159.51 365.53"/><polygon class="cls-2" points="0.41 457.38 159.1 365.76 159.1 549 0.41 457.38"/><polygon class="cls-1" points="318.61 274.5 159.92 366.12 159.92 182.88 318.61 274.5"/><polygon class="cls-2" points="158.69 183.47 0 275.09 0 91.85 158.69 183.47"/><polygon class="cls-1" points="158.69 366.35 0 457.97 0 274.73 158.69 366.35"/><polygon class="cls-1" points="318.61 457.38 159.92 549 159.92 365.76 318.61 457.38"/><polygon class="cls-3" points="0.41 274.5 159.1 182.88 159.1 366.12 0.41 274.5"/></g></svg>