<svg width="20" height="20" viewBox="0 0 20 20" fill="none" xmlns="http://www.w3.org/2000/svg">
<path fill-rule="evenodd" clip-rule="evenodd" d="M2.5 4.58334C2.5 2.97251 3.80584 1.66667 5.41667 1.66667H7.91667C9.5275 1.66667 10.8333 2.97251 10.8333 4.58334V7.08334C10.8333 8.69417 9.5275 10 7.91667 10H5.41667C3.80584 10 2.5 8.69417 2.5 7.08334V4.58334ZM5.41667 2.50001C4.26607 2.50001 3.33333 3.43275 3.33333 4.58334V7.08334C3.33333 8.23393 4.26607 9.16667 5.41667 9.16667H7.91667C9.06726 9.16667 10 8.23393 10 7.08334V4.58334C10 3.43275 9.06726 2.50001 7.91667 2.50001H5.41667Z" fill="#B9C0DE"/>
<path fill-rule="evenodd" clip-rule="evenodd" d="M2.5 12.9167C2.5 11.7661 3.43274 10.8333 4.58333 10.8333H7.08333C8.23393 10.8333 9.16667 11.7661 9.16667 12.9167V15.4167C9.16667 16.5673 8.23393 17.5 7.08333 17.5H4.58333C3.43274 17.5 2.5 16.5673 2.5 15.4167V12.9167ZM4.58333 11.6667C3.89298 11.6667 3.33333 12.2263 3.33333 12.9167V15.4167C3.33333 16.107 3.89298 16.6667 4.58333 16.6667H7.08333C7.77369 16.6667 8.33333 16.107 8.33333 15.4167V12.9167C8.33333 12.2263 7.77369 11.6667 7.08333 11.6667H4.58333Z" fill="#B9C0DE"/>
<path fill-rule="evenodd" clip-rule="evenodd" d="M11.6667 3.75C11.6667 2.59941 12.5994 1.66667 13.75 1.66667H16.25C17.4006 1.66667 18.3334 2.59941 18.3334 3.75V6.25C18.3334 7.4006 17.4006 8.33334 16.25 8.33334H13.75C12.5994 8.33334 11.6667 7.4006 11.6667 6.25V3.75ZM13.75 2.50001C13.0597 2.50001 12.5 3.05965 12.5 3.75V6.25C12.5 6.94036 13.0597 7.5 13.75 7.5H16.25C16.9404 7.5 17.5 6.94036 17.5 6.25V3.75C17.5 3.05965 16.9404 2.50001 16.25 2.50001H13.75Z" fill="#B9C0DE"/>
<path fill-rule="evenodd" clip-rule="evenodd" d="M10 12.0833C10 10.4725 11.3058 9.16667 12.9167 9.16667H15.4167C17.0275 9.16667 18.3333 10.4725 18.3333 12.0833V14.5833C18.3333 16.1942 17.0275 17.5 15.4167 17.5H12.9167C11.3058 17.5 10 16.1942 10 14.5833V12.0833ZM12.9167 10C11.7661 10 10.8333 10.9327 10.8333 12.0833V14.5833C10.8333 15.7339 11.7661 16.6667 12.9167 16.6667H15.4167C16.5673 16.6667 17.5 15.7339 17.5 14.5833V12.0833C17.5 10.9327 16.5673 10 15.4167 10H12.9167Z" fill="#B9C0DE"/>
</svg>
