<svg width="40" height="40" viewBox="0 0 40 40" fill="none" xmlns="http://www.w3.org/2000/svg">
<g clip-path="url(#clip0_432_644)">
<path d="M19.2394 33.0834C19.305 33.1654 19.3883 33.2315 19.4829 33.277C19.5776 33.3224 19.6812 33.3459 19.7863 33.3458C19.8912 33.3457 19.9949 33.322 20.0895 33.2764C20.184 33.2308 20.2671 33.1645 20.3326 33.0824L28.8651 22.417C28.9474 22.3142 28.999 22.1902 29.014 22.0594C29.029 21.9285 29.0067 21.7961 28.9497 21.6774C28.8928 21.5586 28.8035 21.4584 28.6921 21.3881C28.5807 21.3179 28.4517 21.2805 28.32 21.2803L25.5085 21.2803C25.4165 21.2804 25.3253 21.2624 25.2403 21.2272C25.1553 21.1921 25.078 21.1405 25.013 21.0754C24.9479 21.0104 24.8963 20.9331 24.8612 20.8481C24.826 20.7631 24.808 20.6719 24.8081 20.5799L24.8091 11.2481C24.809 11.0626 24.7353 10.8847 24.6042 10.7535C24.473 10.6224 24.2951 10.5487 24.1096 10.5487L15.4634 10.5487C15.2779 10.5487 15.1 10.6224 14.9688 10.7535C14.8377 10.8847 14.764 11.0626 14.764 11.2481V20.5809C14.7639 20.7664 14.6902 20.9443 14.5591 21.0754C14.4279 21.2066 14.25 21.2803 14.0645 21.2803L11.254 21.2793C11.1221 21.2792 10.9929 21.3163 10.8812 21.3863C10.7695 21.4564 10.6799 21.5567 10.6227 21.6755C10.5655 21.7943 10.5431 21.9269 10.558 22.0579C10.5729 22.1889 10.6245 22.3131 10.7069 22.416L19.2394 33.0834ZM21.4247 33.9569C21.2281 34.2026 20.9786 34.4009 20.6949 34.5372C20.4112 34.6735 20.1005 34.7441 19.7858 34.7441C19.471 34.744 19.1604 34.6731 18.8767 34.5366C18.5931 34.4002 18.3438 34.2017 18.1473 33.9559L9.61477 23.2905C8.51568 21.9164 9.49408 19.8815 11.253 19.8815L13.3651 19.8805V11.2481C13.3655 10.692 13.5865 10.1587 13.9798 9.76547C14.373 9.37223 14.9063 9.15116 15.4624 9.15081H24.1087C24.6651 9.1509 25.1988 9.37199 25.5923 9.76547C25.9857 10.159 26.2068 10.6926 26.2069 11.2491L26.2079 19.8805L28.319 19.8805C30.0789 19.8815 31.0573 21.9164 29.9573 23.2895L21.4247 33.9569Z" fill="white"/>
</g>
<defs>
<clipPath id="clip0_432_644">
<rect width="27.981" height="27.981" fill="white" transform="translate(39.571 19.7855) rotate(135)"/>
</clipPath>
</defs>
</svg>
