<svg width="17" height="17" viewBox="0 0 17 17" fill="none" xmlns="http://www.w3.org/2000/svg">
<path fill-rule="evenodd" clip-rule="evenodd" d="M6.11019 1.27685C6.5009 0.88615 7.0308 0.666656 7.58333 0.666656C8.13587 0.666656 8.66577 0.88615 9.05647 1.27685C9.34747 1.56784 9.54349 1.93606 9.62458 2.33332H11.75C13.3608 2.33332 14.6667 3.63916 14.6667 5.24999V7.37541C15.0639 7.4565 15.4321 7.65252 15.7231 7.94352C16.1138 8.33422 16.3333 8.86412 16.3333 9.41666C16.3333 9.96919 16.1138 10.4991 15.7231 10.8898C15.4321 11.1808 15.0639 11.3768 14.6667 11.4579V13.5833C14.6667 15.1942 13.3608 16.5 11.75 16.5H9.25C9.01988 16.5 8.83333 16.3134 8.83333 16.0833C8.83333 15.7518 8.70164 15.4339 8.46722 15.1994C8.2328 14.965 7.91485 14.8333 7.58333 14.8333C7.25181 14.8333 6.93387 14.965 6.69945 15.1994C6.46503 15.4339 6.33333 15.7518 6.33333 16.0833C6.33333 16.3134 6.14679 16.5 5.91667 16.5H3.41667C1.80584 16.5 0.5 15.1942 0.5 13.5833V11.0833C0.5 10.8532 0.686548 10.6667 0.916667 10.6667C1.24819 10.6667 1.56613 10.535 1.80055 10.3005L2.09518 10.5952L1.80055 10.3005C2.03497 10.0661 2.16667 9.74818 2.16667 9.41666C2.16667 9.08514 2.03497 8.76719 1.80055 8.53277C1.56613 8.29835 1.24819 8.16666 0.916667 8.16666C0.686548 8.16666 0.5 7.98011 0.5 7.74999V5.24999C0.5 3.63916 1.80584 2.33332 3.41667 2.33332L5.54208 2.33332C5.62318 1.93605 5.8192 1.56784 6.11019 1.27685ZM7.58333 1.49999C7.25181 1.49999 6.93387 1.63169 6.69945 1.86611C6.46503 2.10053 6.33333 2.41847 6.33333 2.74999C6.33333 2.98011 6.14679 3.16666 5.91667 3.16666L3.41667 3.16666C2.26607 3.16666 1.33333 4.0994 1.33333 5.24999V7.37541C1.7306 7.4565 2.09881 7.65252 2.38981 7.94352C2.78051 8.33422 3 8.86412 3 9.41666C3 9.96919 2.78051 10.4991 2.38981 10.8898C2.09881 11.1808 1.7306 11.3768 1.33333 11.4579V13.5833C1.33333 14.7339 2.26607 15.6667 3.41667 15.6667H5.54208C5.62318 15.2694 5.8192 14.9012 6.11019 14.6102L6.40482 14.9048L6.11019 14.6102C6.5009 14.2195 7.0308 14 7.58333 14C8.13587 14 8.66577 14.2195 9.05647 14.6102C9.34747 14.9012 9.54349 15.2694 9.62458 15.6667H11.75C12.9006 15.6667 13.8333 14.7339 13.8333 13.5833V11.0833C13.8333 10.8532 14.0199 10.6667 14.25 10.6667C14.5815 10.6667 14.8995 10.535 15.1339 10.3005C15.3683 10.0661 15.5 9.74818 15.5 9.41666C15.5 9.08514 15.3683 8.76719 15.1339 8.53277C14.8995 8.29835 14.5815 8.16666 14.25 8.16666C14.0199 8.16666 13.8333 7.98011 13.8333 7.74999V5.24999C13.8333 4.0994 12.9006 3.16666 11.75 3.16666H9.25C9.01988 3.16666 8.83333 2.98011 8.83333 2.74999C8.83333 2.41847 8.70164 2.10053 8.46722 1.86611L8.76184 1.57148L8.46722 1.86611C8.2328 1.63169 7.91485 1.49999 7.58333 1.49999Z" fill="#B9C0DE"/>
</svg>
