<svg width="157" height="40" viewBox="0 0 157 40" fill="none" xmlns="http://www.w3.org/2000/svg">
<path d="M0.0310059 6.67511L11.9844 0V13.3502L0.0310059 6.67511Z" fill="#25C16C"/>
<path opacity="0.4" d="M12.0155 26.6326L23.9698 19.9567V33.3077L12.0155 26.6326Z" fill="#25C16C"/>
<path opacity="0.4" d="M0.0310059 33.324L11.9844 26.6489V40L0.0310059 33.324Z" fill="#25C16C"/>
<path d="M24 19.9996L12.0466 26.6755V13.3245L24 19.9996Z" fill="#25C16C"/>
<path opacity="0.4" d="M11.9543 13.3674L0 20.0425V6.69226L11.9543 13.3674Z" fill="#25C16C"/>
<path d="M11.9543 26.6919L0 33.367V20.0168L11.9543 26.6919Z" fill="#25C16C"/>
<path d="M24 33.324L12.0466 40V26.6489L24 33.324Z" fill="#25C16C"/>
<path d="M44.74 22.8C45.5533 22.9733 46.2067 23.38 46.7 24.02C47.1933 24.6467 47.44 25.3667 47.44 26.18C47.44 27.3533 47.0267 28.2867 46.2 28.98C45.3867 29.66 44.2467 30 42.78 30H36.24V15.96H42.56C43.9867 15.96 45.1 16.2867 45.9 16.94C46.7133 17.5933 47.12 18.48 47.12 19.6C47.12 20.4267 46.9 21.1133 46.46 21.66C46.0333 22.2067 45.46 22.5867 44.74 22.8ZM39.66 21.64H41.9C42.46 21.64 42.8867 21.52 43.18 21.28C43.4867 21.0267 43.64 20.66 43.64 20.18C43.64 19.7 43.4867 19.3333 43.18 19.08C42.8867 18.8267 42.46 18.7 41.9 18.7H39.66V21.64ZM42.18 27.24C42.7533 27.24 43.1933 27.1133 43.5 26.86C43.82 26.5933 43.98 26.2133 43.98 25.72C43.98 25.2267 43.8133 24.84 43.48 24.56C43.16 24.28 42.7133 24.14 42.14 24.14H39.66V27.24H42.18ZM57.0836 30L54.1636 24.7H53.3436V30H49.9236V15.96H55.6636C56.7703 15.96 57.7103 16.1533 58.4836 16.54C59.2703 16.9267 59.8569 17.46 60.2436 18.14C60.6303 18.8067 60.8236 19.5533 60.8236 20.38C60.8236 21.3133 60.5569 22.1467 60.0236 22.88C59.5036 23.6133 58.7303 24.1333 57.7036 24.44L60.9436 30H57.0836ZM53.3436 22.28H55.4636C56.0903 22.28 56.5569 22.1267 56.8636 21.82C57.1836 21.5133 57.3436 21.08 57.3436 20.52C57.3436 19.9867 57.1836 19.5667 56.8636 19.26C56.5569 18.9533 56.0903 18.8 55.4636 18.8H53.3436V22.28ZM72.2105 27.52H66.9705L66.1305 30H62.5505L67.6305 15.96H71.5905L76.6705 30H73.0505L72.2105 27.52ZM71.3305 24.88L69.5905 19.74L67.8705 24.88H71.3305ZM82.1366 15.96V30H78.7166V15.96H82.1366ZM97.675 30H94.255L88.535 21.34V30H85.115V15.96H88.535L94.255 24.66V15.96H97.675V30ZM104.074 27.36H108.554V30H100.654V15.96H104.074V27.36ZM122.725 15.96L117.865 25.36V30H114.445V25.36L109.585 15.96H113.465L116.185 21.84L118.885 15.96H122.725ZM134.703 15.96V18.7H130.983V30H127.563V18.7H123.843V15.96H134.703ZM140.34 15.96V30H136.92V15.96H140.34ZM142.738 22.96C142.738 21.5733 143.038 20.34 143.638 19.26C144.238 18.1667 145.071 17.32 146.138 16.72C147.218 16.1067 148.438 15.8 149.798 15.8C151.465 15.8 152.891 16.24 154.078 17.12C155.265 18 156.058 19.2 156.458 20.72H152.698C152.418 20.1333 152.018 19.6867 151.498 19.38C150.991 19.0733 150.411 18.92 149.758 18.92C148.705 18.92 147.851 19.2867 147.198 20.02C146.545 20.7533 146.218 21.7333 146.218 22.96C146.218 24.1867 146.545 25.1667 147.198 25.9C147.851 26.6333 148.705 27 149.758 27C150.411 27 150.991 26.8467 151.498 26.54C152.018 26.2333 152.418 25.7867 152.698 25.2H156.458C156.058 26.72 155.265 27.92 154.078 28.8C152.891 29.6667 151.465 30.1 149.798 30.1C148.438 30.1 147.218 29.8 146.138 29.2C145.071 28.5867 144.238 27.74 143.638 26.66C143.038 25.58 142.738 24.3467 142.738 22.96Z" fill="#25C16C"/>
</svg>
