<svg width="50" height="50" viewBox="0 0 50 50" fill="none" xmlns="http://www.w3.org/2000/svg">
<path d="M17.5002 6.66665H11.6668V0.833317H6.66684V6.66665H0.833511V11.6666H6.66684V17.5H11.6668V11.6666H17.5002V6.66665Z" fill="#E9686A"/>
<path d="M49.1667 6.66666V11.6667H32.5001V6.66666H49.1667Z" fill="#32B1CC"/>
<path d="M49.1666 36.6667V41.6667H32.4999V36.6667H49.1666Z" fill="#55B56A"/>
<path d="M40.8334 34.1667C42.2141 34.1667 43.3334 33.0474 43.3334 31.6667C43.3334 30.286 42.2141 29.1667 40.8334 29.1667C39.4527 29.1667 38.3334 30.286 38.3334 31.6667C38.3334 33.0474 39.4527 34.1667 40.8334 34.1667Z" fill="#55B56A"/>
<path d="M40.8334 49.1667C42.2141 49.1667 43.3334 48.0474 43.3334 46.6667C43.3334 45.286 42.2141 44.1667 40.8334 44.1667C39.4527 44.1667 38.3334 45.286 38.3334 46.6667C38.3334 48.0474 39.4527 49.1667 40.8334 49.1667Z" fill="#55B56A"/>
<path d="M40.8334 24.1667H25.8334V9.16672H24.1667V24.1667H9.16672V25.8334H24.1667V40.8334H25.8334V25.8334H40.8334V24.1667Z" fill="#195C85"/>
<path d="M18.3333 34.1667L14.1666 30L9.99997 34.1667L5.83331 30L1.66664 34.0733L5.83331 38.3333L1.66664 42.5L5.83331 46.6667L9.99997 42.5L14.1666 46.6667L18.3333 42.5L14.1666 38.3333L18.3333 34.1667Z" fill="#F49E21"/>
<path d="M5.83333 18.3333H12.5V12.5H18.3333V5.83333H12.5V0H5.83333V5.83333H0V12.5H5.83333V18.3333ZM1.66667 10.8333V7.5H7.5V1.66667H10.8333V7.5H16.6667V10.8333H10.8333V16.6667H7.5V10.8333H1.66667Z" fill="black"/>
<path d="M31.6669 12.5H50.0003V5.83334H31.6669V12.5ZM33.3336 7.50001H48.3336V10.8333H33.3336V7.50001Z" fill="black"/>
<path d="M31.6669 42.4999H50.0003V35.8333H31.6669V42.4999ZM33.3336 37.4999H48.3336V40.8333H33.3336V37.4999Z" fill="black"/>
<path d="M37.5 31.6666C37.5 33.5076 38.9924 34.9999 40.8333 34.9999C42.6743 34.9999 44.1667 33.5076 44.1667 31.6666C44.1667 29.8257 42.6743 28.3333 40.8333 28.3333C38.9924 28.3333 37.5 29.8257 37.5 31.6666ZM42.5 31.6666C42.5 32.5871 41.7538 33.3333 40.8333 33.3333C39.9128 33.3333 39.1667 32.5871 39.1667 31.6666C39.1667 30.7461 39.9128 29.9999 40.8333 29.9999C41.7538 29.9999 42.5 30.7461 42.5 31.6666Z" fill="black"/>
<path d="M44.1667 46.6667C44.1667 44.8257 42.6743 43.3333 40.8333 43.3333C38.9924 43.3333 37.5 44.8257 37.5 46.6667C37.5 48.5076 38.9924 50 40.8333 50C42.6743 50 44.1667 48.5076 44.1667 46.6667ZM39.1667 46.6667C39.1667 45.7462 39.9128 45 40.8333 45C41.7538 45 42.5 45.7462 42.5 46.6667C42.5 47.5872 41.7538 48.3333 40.8333 48.3333C39.9128 48.3333 39.1667 47.5872 39.1667 46.6667Z" fill="black"/>
<path d="M24.1667 9.16672V24.1667H9.16672V25.8334H24.1667V40.8334H25.8334V25.8334H40.8334V24.1667H25.8334V9.16672H24.1667Z" fill="black"/>
<path d="M5.83328 47.845L9.99995 43.6783L14.1666 47.845L19.5116 42.5L15.3449 38.3333L19.5116 34.1667L14.1666 28.8217L9.99995 32.9883L5.83995 28.8283L0.488281 34.06L4.66161 38.3267L0.488281 42.5L5.83328 47.845ZM2.84495 34.0833L5.82661 31.1667L9.99995 35.345L14.1666 31.1783L17.1549 34.1667L12.9883 38.3333L17.1549 42.5L14.1666 45.4883L9.99995 41.3217L5.83328 45.4883L2.84495 42.5L7.00495 38.34L2.84495 34.0833Z" fill="black"/>
</svg>
