<svg width="215" height="215" viewBox="0 0 215 215" fill="none" xmlns="http://www.w3.org/2000/svg">
<path fill-rule="evenodd" clip-rule="evenodd" d="M101.05 43C92.2631 43 85.14 50.1231 85.14 58.91V112.23C85.14 114.605 83.2148 116.53 80.84 116.53C78.4652 116.53 76.54 114.605 76.54 112.23V58.91C76.54 45.3735 87.5135 34.4 101.05 34.4C114.586 34.4 125.56 45.3735 125.56 58.91V61.0665C125.56 63.4414 123.635 65.3665 121.26 65.3665C118.885 65.3665 116.96 63.4414 116.96 61.0665V58.91C116.96 50.1231 109.837 43 101.05 43Z" fill="url(#paint0_linear_429_945)"/>
<mask id="mask0_429_945" style="mask-type:alpha" maskUnits="userSpaceOnUse" x="76" y="34" width="50" height="83">
<path fill-rule="evenodd" clip-rule="evenodd" d="M101.05 43C92.2631 43 85.14 50.1231 85.14 58.91V112.23C85.14 114.605 83.2148 116.53 80.84 116.53C78.4652 116.53 76.54 114.605 76.54 112.23V58.91C76.54 45.3735 87.5135 34.4 101.05 34.4C114.586 34.4 125.56 45.3735 125.56 58.91V61.0665C125.56 63.4414 123.635 65.3665 121.26 65.3665C118.885 65.3665 116.96 63.4414 116.96 61.0665V58.91C116.96 50.1231 109.837 43 101.05 43Z" fill="#4D94FF"/>
</mask>
<g mask="url(#mask0_429_945)">
<path d="M86.0075 50.31C86.0075 42.0599 94.4903 35.2765 105.351 34.4785C106.536 34.3915 107.5 33.4374 107.5 32.25V27.95C107.5 26.7626 106.535 25.7946 105.349 25.8509C88.0652 26.6714 74.39 37.3085 74.39 50.31V103.63C74.39 106.005 76.9906 107.93 80.1987 107.93C83.4068 107.93 86.0075 106.005 86.0075 103.63V50.31Z" fill="url(#paint1_linear_429_945)"/>
</g>
<path d="M144.48 127.065C144.48 150.932 125.132 170.28 101.265 170.28C77.398 170.28 58.05 150.932 58.05 127.065C58.05 103.198 77.398 83.85 101.265 83.85C125.132 83.85 144.48 103.198 144.48 127.065Z" fill="url(#paint2_linear_429_945)"/>
<mask id="mask1_429_945" style="mask-type:alpha" maskUnits="userSpaceOnUse" x="58" y="83" width="87" height="88">
<path d="M144.48 127.065C144.48 150.932 125.132 170.28 101.265 170.28C77.398 170.28 58.05 150.932 58.05 127.065C58.05 103.198 77.398 83.85 101.265 83.85C125.132 83.85 144.48 103.198 144.48 127.065Z" fill="url(#paint3_linear_429_945)"/>
</mask>
<g mask="url(#mask1_429_945)">
<path d="M146.2 125.775C146.2 149.642 126.852 168.99 102.985 168.99C79.118 168.99 59.77 149.642 59.77 125.775C59.77 101.908 79.118 82.56 102.985 82.56C126.852 82.56 146.2 101.908 146.2 125.775Z" fill="#4383FF"/>
<path d="M149.21 124.485C149.21 148.352 129.862 167.7 105.995 167.7C82.128 167.7 62.78 148.352 62.78 124.485C62.78 100.618 82.128 81.27 105.995 81.27C129.862 81.27 149.21 100.618 149.21 124.485Z" fill="url(#paint4_linear_429_945)"/>
</g>
<path d="M108.274 128.036C108.274 127.239 108.724 126.52 109.385 126.076C112.657 123.874 114.81 120.135 114.81 115.893C114.81 109.12 109.323 103.63 102.555 103.63C95.7867 103.63 90.3 109.12 90.3 115.893C90.3 119.937 92.2569 123.524 95.2751 125.758C95.8839 126.208 96.2913 126.898 96.2913 127.656V148.35C96.2913 149.537 97.2539 150.5 98.4413 150.5H106.124C107.311 150.5 108.274 149.537 108.274 148.35V128.036Z" fill="url(#paint5_linear_429_945)"/>
<g filter="url(#filter0_b_429_945)">
<path d="M118.25 129.43C118.25 124.68 122.1 120.83 126.85 120.83H169.85C174.6 120.83 178.45 124.68 178.45 129.43V172.43C178.45 177.18 174.6 181.03 169.85 181.03H126.85C122.1 181.03 118.25 177.18 118.25 172.43V129.43Z" fill="#B9CDFF" fill-opacity="0.5"/>
</g>
<path d="M147.579 130.993C147.894 130.353 148.806 130.353 149.121 130.993L154.468 141.828C154.594 142.081 154.836 142.257 155.116 142.298L167.073 144.036C167.779 144.138 168.06 145.005 167.55 145.502L158.898 153.936C158.695 154.134 158.602 154.419 158.65 154.698L160.693 166.606C160.813 167.309 160.076 167.845 159.445 167.513L148.75 161.89C148.5 161.759 148.2 161.759 147.95 161.89L137.255 167.513C136.624 167.845 135.887 167.309 136.007 166.606L138.05 154.698C138.097 154.419 138.005 154.134 137.802 153.936L129.15 145.502C128.64 145.005 128.921 144.138 129.627 144.036L141.584 142.298C141.864 142.257 142.106 142.081 142.231 141.828L147.579 130.993Z" fill="#4D7FFE"/>
<path fill-rule="evenodd" clip-rule="evenodd" d="M149.513 62.8797C149.761 62.4526 150.379 62.4526 150.627 62.8797L151.551 64.4647C151.581 64.5169 151.632 64.5539 151.691 64.5666L153.483 64.9548C153.967 65.0595 154.157 65.6464 153.828 66.015L152.606 67.3828C152.566 67.4278 152.546 67.4876 152.552 67.5477L152.737 69.3726C152.787 69.8644 152.288 70.2271 151.835 70.0278L150.157 69.2881C150.101 69.2638 150.039 69.2638 149.983 69.2881L148.305 70.0278C147.852 70.2271 147.353 69.8644 147.403 69.3726L147.588 67.5477C147.594 67.4876 147.574 67.4278 147.534 67.3828L146.312 66.015C145.983 65.6464 146.173 65.0595 146.656 64.9548L148.449 64.5666C148.508 64.5539 148.559 64.5169 148.589 64.4647L149.513 62.8797ZM150.256 63.0961C150.173 62.9537 149.967 62.9537 149.884 63.0961L148.961 64.6811C148.87 64.8376 148.717 64.9486 148.54 64.9869L146.747 65.3751C146.586 65.41 146.523 65.6056 146.633 65.7285L147.855 67.0963C147.975 67.2313 148.034 67.4108 148.016 67.591L147.831 69.4159C147.814 69.5798 147.981 69.7007 148.131 69.6343L149.81 68.8946C149.976 68.8216 150.164 68.8216 150.33 68.8946L152.009 69.6343C152.159 69.7007 152.326 69.5798 152.309 69.4159L152.124 67.591C152.106 67.4108 152.165 67.2313 152.285 67.0963L153.507 65.7285C153.617 65.6056 153.554 65.41 153.392 65.3751L151.6 64.9869C151.423 64.9486 151.27 64.8376 151.179 64.6811L150.256 63.0961Z" fill="#6F6CFF"/>
<path opacity="0.796364" fill-rule="evenodd" clip-rule="evenodd" d="M51.3972 27.9558C51.537 28.43 51.1134 28.8787 50.632 28.7664L46.6939 27.8476C46.6351 27.8339 46.5733 27.8455 46.5235 27.8797L43.1881 30.1661C42.7804 30.4456 42.2227 30.1814 42.1807 29.6888L41.8376 25.6595C41.8325 25.5994 41.8023 25.5442 41.7545 25.5074L38.5492 23.0418C38.1574 22.7403 38.2364 22.1283 38.6919 21.9362L42.4179 20.3648C42.4735 20.3413 42.5167 20.2955 42.5369 20.2387L43.8914 16.4284C44.057 15.9626 44.6635 15.8486 44.9869 16.2224L47.6328 19.2805C47.6723 19.3261 47.7292 19.3531 47.7895 19.3547L51.8319 19.4655C52.326 19.479 52.6219 20.0206 52.3663 20.4437L50.2756 23.9051C50.2444 23.9568 50.2363 24.0192 50.2534 24.0771L51.3972 27.9558ZM50.7297 28.3476C50.8902 28.3851 51.0314 28.2355 50.9848 28.0774L49.8409 24.1987C49.7897 24.025 49.8139 23.8378 49.9075 23.6828L51.9982 20.2214C52.0834 20.0803 51.9848 19.8998 51.8201 19.8953L47.7778 19.7845C47.5967 19.7796 47.4262 19.6988 47.3077 19.5618L44.6617 16.5038C44.5539 16.3792 44.3517 16.4172 44.2966 16.5724L42.9421 20.3827C42.8814 20.5533 42.7518 20.6906 42.585 20.761L38.859 22.3324C38.7071 22.3964 38.6808 22.6005 38.8114 22.7009L42.0166 25.1665C42.1602 25.277 42.2507 25.4426 42.266 25.6231L42.6092 29.6523C42.6232 29.8165 42.809 29.9046 42.945 29.8114L46.2804 27.525C46.4297 27.4226 46.6153 27.3877 46.7916 27.4289L50.7297 28.3476Z" fill="#6F6CFF"/>
<path opacity="0.73011" fill-rule="evenodd" clip-rule="evenodd" d="M40.0481 165.349C40.5283 165.467 40.7033 166.059 40.3643 166.418L38.3697 168.535C38.3283 168.579 38.3073 168.638 38.3117 168.698L38.5278 171.598C38.5645 172.091 38.0558 172.441 37.6089 172.229L34.9797 170.986C34.9251 170.961 34.8622 170.959 34.8064 170.982L32.1149 172.084C31.6574 172.271 31.168 171.895 31.2308 171.405L31.6005 168.52C31.6082 168.46 31.5903 168.4 31.5513 168.354L29.6719 166.134C29.3524 165.757 29.5586 165.176 30.0443 165.084L32.902 164.544C32.9613 164.533 33.0132 164.497 33.0449 164.446L34.5748 161.973C34.8348 161.552 35.4517 161.569 35.6891 162.002L37.0856 164.553C37.1146 164.606 37.1645 164.644 37.2231 164.659L40.0481 165.349ZM40.0513 166.123C40.1643 166.004 40.106 165.806 39.9459 165.767L37.121 165.076C36.9451 165.033 36.7953 164.918 36.7084 164.76L35.3119 162.209C35.2328 162.064 35.0272 162.059 34.9405 162.199L33.4106 164.672C33.3154 164.826 33.1597 164.933 32.9818 164.967L30.1242 165.506C29.9622 165.537 29.8935 165.731 30 165.857L31.8794 168.076C31.9965 168.214 32.05 168.395 32.027 168.575L31.6573 171.459C31.6364 171.623 31.7996 171.748 31.9521 171.686L34.6435 170.584C34.8111 170.515 34.9998 170.52 35.1635 170.598L37.7927 171.841C37.9416 171.911 38.1112 171.795 38.099 171.63L37.8829 168.73C37.8695 168.55 37.9326 168.372 38.0568 168.24L40.0513 166.123Z" fill="#6F6CFF"/>
<path opacity="0.902331" d="M189.939 113.608C190.157 113.856 190.026 114.246 189.703 114.313L185.744 115.134C185.625 115.158 185.523 115.231 185.461 115.335L183.395 118.812C183.227 119.095 182.816 119.091 182.652 118.805L180.648 115.293C180.588 115.188 180.487 115.113 180.369 115.086L176.425 114.196C176.103 114.123 175.979 113.731 176.201 113.487L178.922 110.495C179.003 110.406 179.043 110.287 179.032 110.167L178.66 106.14C178.63 105.812 178.965 105.573 179.265 105.708L182.951 107.372C183.061 107.421 183.187 107.422 183.298 107.375L187.013 105.777C187.316 105.647 187.646 105.891 187.61 106.219L187.167 110.238C187.154 110.358 187.192 110.478 187.272 110.569L189.939 113.608Z" fill="#6F6CFF"/>
<path opacity="0.370759" d="M22.0419 77.0931C22.1412 76.7789 22.5426 76.6886 22.7669 76.9301L24.4049 78.6931C24.4871 78.7815 24.6027 78.8313 24.7234 78.8304L27.1298 78.8111C27.4594 78.8085 27.6693 79.1623 27.509 79.4502L26.3384 81.5529C26.2797 81.6584 26.268 81.7837 26.3063 81.8982L27.0682 84.1809C27.1725 84.4935 26.9009 84.8025 26.5775 84.739L24.216 84.2755C24.0976 84.2523 23.9748 84.2799 23.8777 84.3516L21.9422 85.7817C21.6771 85.9775 21.2993 85.8146 21.2598 85.4874L20.9708 83.0983C20.9563 82.9785 20.8921 82.8702 20.7939 82.8001L18.8357 81.4012C18.5676 81.2096 18.6057 80.8 18.9047 80.6612L21.0876 79.6482C21.1971 79.5974 21.2802 79.5029 21.3166 79.3877L22.0419 77.0931Z" fill="#6F6CFF"/>
<path opacity="0.806242" d="M47.2419 122.342C47.076 122.627 46.6646 122.627 46.4987 122.342L44.4634 118.848C44.4026 118.744 44.3008 118.67 44.1828 118.644L40.2305 117.788C39.9084 117.719 39.7813 117.327 40.0009 117.082L42.6952 114.066C42.7756 113.976 42.8145 113.856 42.8023 113.736L42.3948 109.713C42.3616 109.385 42.6945 109.143 42.996 109.276L46.6966 110.907C46.807 110.955 46.9329 110.955 47.0434 110.907L50.7438 109.276C51.0454 109.143 51.3782 109.385 51.345 109.713L50.9378 113.736C50.9256 113.856 50.9645 113.976 51.045 114.066L53.7394 117.081C53.959 117.327 53.8319 117.718 53.5098 117.788L49.5576 118.644C49.4396 118.67 49.3378 118.744 49.277 118.848L47.2419 122.342Z" fill="#6F6CFF"/>
<path opacity="0.547916" d="M123.67 27.9128C123.343 27.9533 123.093 27.6259 123.22 27.3215L124.768 23.5858C124.814 23.4743 124.811 23.3484 124.76 23.2391L123.048 19.5756C122.908 19.277 123.143 18.9389 123.471 18.9649L127.503 19.283C127.623 19.2925 127.742 19.251 127.83 19.1686L130.785 16.4081C131.026 16.1832 131.42 16.3016 131.497 16.6221L132.44 20.5544C132.468 20.6718 132.544 20.7719 132.65 20.8304L136.189 22.7878C136.477 22.9473 136.486 23.3586 136.205 23.5307L132.757 25.6429C132.654 25.7059 132.582 25.8093 132.559 25.9279L131.791 29.8981C131.728 30.2216 131.34 30.3574 131.089 30.1433L128.015 27.5164C127.923 27.4379 127.803 27.4017 127.683 27.4165L123.67 27.9128Z" fill="#6F6CFF"/>
<path opacity="0.392959" d="M126.334 197.75C126.191 198.048 125.781 198.08 125.593 197.81L123.287 194.488C123.218 194.389 123.11 194.324 122.991 194.307L118.983 193.769C118.656 193.725 118.498 193.345 118.698 193.083L121.144 189.862C121.217 189.766 121.246 189.644 121.224 189.525L120.498 185.547C120.439 185.223 120.751 184.955 121.062 185.064L124.881 186.395C124.995 186.434 125.12 186.424 125.227 186.367L128.786 184.447C129.076 184.291 129.427 184.505 129.42 184.835L129.334 188.878C129.331 188.998 129.379 189.115 129.467 189.198L132.393 191.989C132.631 192.217 132.535 192.617 132.22 192.712L128.348 193.88C128.233 193.915 128.137 193.996 128.085 194.105L126.334 197.75Z" fill="#6F6CFF"/>
<defs>
<filter id="filter0_b_429_945" x="113.25" y="115.83" width="70.2" height="70.2" filterUnits="userSpaceOnUse" color-interpolation-filters="sRGB">
<feFlood flood-opacity="0" result="BackgroundImageFix"/>
<feGaussianBlur in="BackgroundImageFix" stdDeviation="2.5"/>
<feComposite in2="SourceAlpha" operator="in" result="effect1_backgroundBlur_429_945"/>
<feBlend mode="normal" in="SourceGraphic" in2="effect1_backgroundBlur_429_945" result="shape"/>
</filter>
<linearGradient id="paint0_linear_429_945" x1="118.68" y1="76.97" x2="71.81" y2="65.36" gradientUnits="userSpaceOnUse">
<stop stop-color="#93B0FF"/>
<stop offset="1" stop-color="#5694FF"/>
</linearGradient>
<linearGradient id="paint1_linear_429_945" x1="77.8752" y1="94.385" x2="86.5089" y2="43.9919" gradientUnits="userSpaceOnUse">
<stop stop-color="#70B5FF"/>
<stop offset="1" stop-color="#ADCCFF"/>
</linearGradient>
<linearGradient id="paint2_linear_429_945" x1="101.265" y1="83.85" x2="108.145" y2="176.085" gradientUnits="userSpaceOnUse">
<stop stop-color="#759CFF"/>
<stop offset="1" stop-color="#70BAFF"/>
</linearGradient>
<linearGradient id="paint3_linear_429_945" x1="101.265" y1="83.85" x2="101.265" y2="170.28" gradientUnits="userSpaceOnUse">
<stop stop-color="#AAB8FF"/>
<stop offset="1" stop-color="#61A0FF"/>
</linearGradient>
<linearGradient id="paint4_linear_429_945" x1="105.995" y1="81.27" x2="105.995" y2="167.7" gradientUnits="userSpaceOnUse">
<stop stop-color="#AAB8FF"/>
<stop offset="1" stop-color="#61A0FF"/>
</linearGradient>
<linearGradient id="paint5_linear_429_945" x1="90.3" y1="130.88" x2="111.003" y2="141.77" gradientUnits="userSpaceOnUse">
<stop stop-color="#0048FF"/>
<stop offset="1" stop-color="#5081FD"/>
</linearGradient>
</defs>
</svg>
