<svg width="17" height="15" viewBox="0 0 17 15" fill="none" xmlns="http://www.w3.org/2000/svg">
<path fill-rule="evenodd" clip-rule="evenodd" d="M12.5833 0.5C12.8135 0.5 13 0.686548 13 0.916667L13 2.58333C13 2.81345 12.8135 3 12.5833 3C12.3532 3 12.1667 2.81345 12.1667 2.58333L12.1667 0.916667C12.1667 0.686548 12.3532 0.5 12.5833 0.5Z" fill="#FF16A2"/>
<path fill-rule="evenodd" clip-rule="evenodd" d="M5.08333 0.5C5.31345 0.5 5.5 0.686548 5.5 0.916667L5.5 2.58333C5.5 2.81345 5.31345 3 5.08333 3C4.85321 3 4.66667 2.81345 4.66667 2.58333L4.66667 0.916667C4.66667 0.686548 4.85321 0.5 5.08333 0.5Z" fill="#FF16A2"/>
<path fill-rule="evenodd" clip-rule="evenodd" d="M0.5 5.08334C0.5 3.47251 1.80584 2.16667 3.41667 2.16667H13.4167C15.0275 2.16667 16.3333 3.47251 16.3333 5.08334V11.75C16.3333 13.3608 15.0275 14.6667 13.4167 14.6667H3.41667C1.80584 14.6667 0.5 13.3608 0.5 11.75V5.08334ZM3.41667 3.00001C2.26607 3.00001 1.33333 3.93275 1.33333 5.08334V11.75C1.33333 12.9006 2.26607 13.8333 3.41667 13.8333H13.4167C14.5673 13.8333 15.5 12.9006 15.5 11.75V5.08334C15.5 3.93275 14.5673 3.00001 13.4167 3.00001H3.41667Z" fill="#1657FF"/>
<path d="M10.5048 6.9097C10.472 7.09707 10.6115 7.25358 10.7794 7.25358C10.9473 7.25358 11.0782 7.09486 11.1298 6.91308C11.2627 6.44588 11.6672 6.12429 12.1736 6.12429C12.7501 6.12429 13.1205 6.57362 13.1205 7.13826C13.1205 7.61543 12.9633 7.92559 12.2819 8.73279L10.5928 10.7382C10.5376 10.8037 10.5068 10.8909 10.5068 10.9816C10.5068 11.1759 10.6452 11.3333 10.8159 11.3333H13.5538C13.7082 11.3333 13.8333 11.1909 13.8333 11.0152C13.8333 10.8395 13.7082 10.6971 13.5538 10.6971H11.3839C11.3762 10.6971 11.3699 10.69 11.3699 10.6812L12.5684 9.28153C13.4944 8.19995 13.7495 7.72677 13.7495 7.09452C13.7495 6.2237 13.1065 5.5 12.1736 5.5C11.3166 5.5 10.65 6.08185 10.5048 6.9097Z" fill="#FF16A2"/>
<path d="M5.08726 11.3333C6.40552 11.3333 7.16667 10.1948 7.16667 8.4108C7.16667 6.6385 6.4016 5.5 5.08726 5.5C3.77291 5.5 3 6.64632 3 8.41471C3 10.1987 3.76507 11.3333 5.08726 11.3333ZM5.08726 10.7191C4.20057 10.7191 3.71014 9.81925 3.71014 8.4108C3.71014 7.03365 4.21234 6.11815 5.08726 6.11815C5.96218 6.11815 6.45653 7.02582 6.45653 8.41471C6.45653 9.82316 5.97003 10.7191 5.08726 10.7191Z" fill="#FF16A2"/>
</svg>
