<svg width="18" height="11" viewBox="0 0 18 11" fill="none" xmlns="http://www.w3.org/2000/svg">
<path fill-rule="evenodd" clip-rule="evenodd" d="M0.666687 3.08333C0.666687 1.4725 1.97252 0.166664 3.58335 0.166664H8.58335C10.1942 0.166664 11.5 1.4725 11.5 3.08333V8.08333C11.5 9.69416 10.1942 11 8.58335 11H3.58335C1.97252 11 0.666687 9.69416 0.666687 8.08333V3.08333ZM3.58335 0.999997C2.43276 0.999997 1.50002 1.93274 1.50002 3.08333V8.08333C1.50002 9.23392 2.43276 10.1667 3.58335 10.1667H8.58335C9.73395 10.1667 10.6667 9.23392 10.6667 8.08333V3.08333C10.6667 1.93274 9.73395 0.999997 8.58335 0.999997H3.58335Z" fill="#B9C0DE"/>
<path fill-rule="evenodd" clip-rule="evenodd" d="M16.5 3.92012C16.5 2.92652 15.3968 2.33009 14.5655 2.87424L13.7321 3.41969C13.3793 3.65063 13.1667 4.04389 13.1667 4.46557V7.20895C13.1667 7.63063 13.3793 8.02389 13.7321 8.25482L14.5655 8.80028C15.3968 9.34443 16.5 8.748 16.5 7.7544V3.92012ZM14.1091 2.17699C15.4947 1.27007 17.3334 2.26412 17.3334 3.92012V7.7544C17.3334 9.4104 15.4947 10.4045 14.1091 9.49753L13.2758 8.95208C12.6877 8.56718 12.3334 7.91175 12.3334 7.20895V4.46557C12.3334 3.76277 12.6877 3.10734 13.2758 2.72244L14.1091 2.17699Z" fill="#B9C0DE"/>
</svg>
