<svg width="40" height="40" viewBox="0 0 40 40" fill="none" xmlns="http://www.w3.org/2000/svg">
<g clip-path="url(#clip0_432_634)">
<path d="M20.3316 6.48766C20.266 6.40568 20.1828 6.33952 20.0881 6.29409C19.9935 6.24865 19.8898 6.2251 19.7848 6.2252C19.6798 6.2253 19.5762 6.24903 19.4816 6.29463C19.387 6.34024 19.3039 6.40655 19.2385 6.48865L10.706 17.154C10.6236 17.2569 10.572 17.3808 10.5571 17.5117C10.5421 17.6425 10.5644 17.7749 10.6213 17.8937C10.6783 18.0124 10.7676 18.1127 10.879 18.1829C10.9904 18.2532 11.1193 18.2905 11.251 18.2907L14.0626 18.2907C14.1546 18.2906 14.2457 18.3086 14.3307 18.3438C14.4158 18.379 14.493 18.4305 14.5581 18.4956C14.6231 18.5607 14.6747 18.6379 14.7099 18.723C14.7451 18.808 14.7631 18.8991 14.763 18.9911L14.762 28.323C14.762 28.5085 14.8357 28.6863 14.9669 28.8175C15.098 28.9487 15.2759 29.0224 15.4614 29.0224L24.1077 29.0224C24.2932 29.0224 24.471 28.9487 24.6022 28.8175C24.7334 28.6863 24.8071 28.5085 24.8071 28.323V18.9901C24.8071 18.8046 24.8808 18.6268 25.012 18.4956C25.1431 18.3644 25.321 18.2907 25.5065 18.2907L28.317 18.2917C28.4489 18.2919 28.5781 18.2548 28.6898 18.1847C28.8015 18.1146 28.8911 18.0144 28.9483 17.8955C29.0055 17.7767 29.028 17.6442 29.0131 17.5131C28.9982 17.3821 28.9465 17.258 28.8641 17.155L20.3316 6.48766ZM18.1463 5.61413C18.343 5.36843 18.5924 5.1701 18.8761 5.03385C19.1598 4.89759 19.4705 4.8269 19.7853 4.82699C20.1 4.82709 20.4107 4.89797 20.6943 5.0344C20.9779 5.17082 21.2272 5.3693 21.4238 5.61512L29.9563 16.2805C31.0554 17.6546 30.077 19.6896 28.318 19.6896L26.2059 19.6905V28.323C26.2056 28.8791 25.9845 29.4123 25.5913 29.8056C25.198 30.1988 24.6648 30.4199 24.1087 30.4202H15.4624C14.9059 30.4201 14.3723 30.1991 13.9788 29.8056C13.5853 29.4121 13.3642 28.8784 13.3641 28.322L13.3631 19.6905L11.252 19.6905C9.49211 19.6896 8.51372 17.6546 9.61379 16.2815L18.1463 5.61413Z" fill="white"/>
</g>
<defs>
<clipPath id="clip0_432_634">
<rect width="27.981" height="27.981" fill="white" transform="translate(0 19.7855) rotate(-45)"/>
</clipPath>
</defs>
</svg>
