<svg width="582" height="411" viewBox="0 0 582 411" fill="none" xmlns="http://www.w3.org/2000/svg">
<path d="M581.551 410.152H0.162659V0.651965H581.551V410.152Z" fill="#F7F7EB"/>
<path d="M178.698 61.0786C181.041 61.0786 183.209 61.4624 185.202 62.23C187.209 62.9841 188.986 64.0345 190.535 65.3812L189.404 66.876C188.784 66.3508 188.097 65.8593 187.343 65.4014C186.589 64.9435 185.795 64.553 184.96 64.2298C184.125 63.8931 183.256 63.6305 182.354 63.442C181.452 63.24 180.543 63.139 179.627 63.139C177.661 63.139 175.917 63.4959 174.395 64.2096C172.873 64.9233 171.594 65.8997 170.557 67.1386C169.52 68.3775 168.732 69.8252 168.194 71.4816C167.655 73.138 167.386 74.9156 167.386 76.8144C167.386 78.6728 167.648 80.4235 168.173 82.0664C168.712 83.7094 169.493 85.1503 170.517 86.3893C171.554 87.6282 172.833 88.6113 174.355 89.3385C175.876 90.0522 177.62 90.4091 179.586 90.4091C180.529 90.4091 181.485 90.3148 182.455 90.1263C183.424 89.9377 184.36 89.6617 185.263 89.2981C186.165 88.9345 187.013 88.4901 187.808 87.9649C188.616 87.4397 189.33 86.8404 189.949 86.1671L191.1 87.6417C189.511 89.1499 187.666 90.3283 185.566 91.1767C183.465 92.0251 181.175 92.4493 178.698 92.4493C177.203 92.4493 175.769 92.2607 174.395 91.8837C173.021 91.5201 171.735 90.9949 170.537 90.3081C169.352 89.6213 168.268 88.8065 167.285 87.8639C166.315 86.9077 165.48 85.8506 164.78 84.6925C164.093 83.5343 163.554 82.2954 163.164 80.9756C162.787 79.6424 162.598 78.2554 162.598 76.8144C162.598 75.3735 162.787 73.9797 163.164 72.633C163.554 71.2863 164.093 70.0339 164.78 68.8758C165.48 67.7042 166.315 66.6403 167.285 65.6842C168.268 64.7281 169.352 63.9133 170.537 63.24C171.735 62.5532 173.021 62.0213 174.395 61.6442C175.769 61.2671 177.203 61.0786 178.698 61.0786ZM214.452 61.7048V63.6844H200.493V72.7946H214.028V74.7742H200.493V89.7627H214.452V91.7423H196.07V61.7048H214.452ZM229.945 61.7048C231.655 61.7048 233.13 61.8597 234.369 62.1694C235.621 62.4657 236.679 62.8629 237.54 63.3612C238.416 63.8595 239.116 64.4318 239.641 65.0782C240.18 65.7246 240.591 66.3912 240.873 67.078C241.17 67.7648 241.365 68.4516 241.459 69.1384C241.567 69.8117 241.621 70.4379 241.621 71.017C241.621 71.7577 241.5 72.5859 241.257 73.5016C241.028 74.4174 240.604 75.3062 239.985 76.168C239.379 77.0299 238.544 77.811 237.48 78.5112C236.416 79.198 235.063 79.6896 233.42 79.9858L242.106 91.7423H236.692L228.208 80.2888H224.936V91.7423H220.512V61.7048H229.945ZM224.936 63.6844V78.289H227.461C228.901 78.289 230.201 78.1611 231.359 77.9052C232.531 77.6359 233.527 77.2117 234.349 76.6326C235.184 76.0401 235.823 75.2792 236.268 74.35C236.712 73.4074 236.934 72.2694 236.934 70.9362C236.934 69.4279 236.665 68.2025 236.126 67.2598C235.588 66.3037 234.874 65.563 233.985 65.0378C233.11 64.5126 232.107 64.1557 230.975 63.9672C229.844 63.7787 228.686 63.6844 227.501 63.6844H224.936ZM263.194 61.7048V63.6844H255.922V91.7423H251.499V63.6844H244.166V61.7048H263.194ZM272.385 91.7423H267.941V61.7048H272.385V91.7423ZM298.343 61.7048V63.6844H284.405V72.7946H297.918V74.7742H284.405V91.7423H279.981V61.7048H298.343ZM308.544 91.7423H304.1V61.7048H308.544V91.7423ZM329.875 61.0786C332.218 61.0786 334.386 61.4624 336.379 62.23C338.386 62.9841 340.163 64.0345 341.712 65.3812L340.581 66.876C339.961 66.3508 339.275 65.8593 338.521 65.4014C337.766 64.9435 336.972 64.553 336.137 64.2298C335.302 63.8931 334.433 63.6305 333.531 63.442C332.629 63.24 331.72 63.139 330.804 63.139C328.838 63.139 327.094 63.4959 325.572 64.2096C324.051 64.9233 322.771 65.8997 321.734 67.1386C320.697 68.3775 319.91 69.8252 319.371 71.4816C318.832 73.138 318.563 74.9156 318.563 76.8144C318.563 78.6728 318.825 80.4235 319.351 82.0664C319.889 83.7094 320.67 85.1503 321.694 86.3893C322.731 87.6282 324.01 88.6113 325.532 89.3385C327.054 90.0522 328.798 90.4091 330.764 90.4091C331.706 90.4091 332.662 90.3148 333.632 90.1263C334.602 89.9377 335.538 89.6617 336.44 89.2981C337.342 88.9345 338.191 88.4901 338.985 87.9649C339.793 87.4397 340.507 86.8404 341.126 86.1671L342.278 87.6417C340.689 89.1499 338.844 90.3283 336.743 91.1767C334.642 92.0251 332.353 92.4493 329.875 92.4493C328.38 92.4493 326.946 92.2607 325.572 91.8837C324.199 91.5201 322.913 90.9949 321.714 90.3081C320.529 89.6213 319.445 88.8065 318.462 87.8639C317.492 86.9077 316.657 85.8506 315.957 84.6925C315.27 83.5343 314.732 82.2954 314.341 80.9756C313.964 79.6424 313.775 78.2554 313.775 76.8144C313.775 75.3735 313.964 73.9797 314.341 72.633C314.732 71.2863 315.27 70.0339 315.957 68.8758C316.657 67.7042 317.492 66.6403 318.462 65.6842C319.445 64.7281 320.529 63.9133 321.714 63.24C322.913 62.5532 324.199 62.0213 325.572 61.6442C326.946 61.2671 328.38 61.0786 329.875 61.0786ZM370.275 91.7423H365.609L363.952 87.8437H347.53L345.914 91.7423H343.47L354.479 65.563L352.863 61.7048H357.589L370.275 91.7423ZM348.358 85.8641H363.124L355.67 68.4112L348.358 85.8641ZM388.435 61.7048V63.6844H381.163V91.7423H376.739V63.6844H369.406V61.7048H388.435ZM411.564 61.7048V63.6844H397.606V72.7946H411.14V74.7742H397.606V89.7627H411.564V91.7423H393.182V61.7048H411.564Z" fill="#0C3254"/>
<path d="M232.467 125.056C231.93 125.056 231.412 124.988 230.915 124.851C230.422 124.715 229.958 124.524 229.524 124.28C229.094 124.031 228.702 123.734 228.345 123.387C227.994 123.041 227.691 122.657 227.438 122.238C227.184 121.813 226.986 121.359 226.845 120.876C226.708 120.388 226.64 119.881 226.64 119.354C226.64 118.836 226.708 118.336 226.845 117.853C226.986 117.37 227.184 116.918 227.438 116.499C227.691 116.079 227.994 115.696 228.345 115.349C228.702 115.003 229.094 114.708 229.524 114.464C229.958 114.22 230.422 114.029 230.915 113.893C231.412 113.756 231.93 113.688 232.467 113.688C232.999 113.688 233.511 113.756 234.004 113.893C234.497 114.024 234.958 114.215 235.387 114.464C235.817 114.708 236.207 115.003 236.559 115.349C236.915 115.696 237.218 116.079 237.466 116.499C237.72 116.918 237.915 117.37 238.052 117.853C238.194 118.336 238.264 118.836 238.264 119.354C238.264 119.881 238.194 120.388 238.052 120.876C237.915 121.359 237.72 121.813 237.466 122.238C237.218 122.657 236.915 123.041 236.559 123.387C236.207 123.734 235.817 124.031 235.387 124.28C234.958 124.524 234.497 124.715 234.004 124.851C233.511 124.988 232.999 125.056 232.467 125.056ZM232.467 124.346C233.13 124.346 233.716 124.217 234.224 123.958C234.736 123.699 235.165 123.346 235.512 122.897C235.858 122.448 236.119 121.921 236.295 121.315C236.476 120.705 236.566 120.051 236.566 119.354C236.566 118.661 236.478 118.011 236.302 117.406C236.127 116.801 235.866 116.277 235.519 115.832C235.178 115.388 234.751 115.039 234.238 114.786C233.726 114.527 233.135 114.398 232.467 114.398C231.788 114.398 231.193 114.527 230.68 114.786C230.173 115.039 229.746 115.388 229.399 115.832C229.058 116.277 228.799 116.801 228.623 117.406C228.453 118.011 228.367 118.661 228.367 119.354C228.367 120.051 228.455 120.705 228.631 121.315C228.806 121.921 229.065 122.448 229.407 122.897C229.753 123.346 230.183 123.699 230.695 123.958C231.208 124.217 231.798 124.346 232.467 124.346ZM246.851 113.958V114.676H241.8V117.977H246.697V118.695H241.8V124.844H240.197V113.958H246.851ZM260.796 124.844H259.105L258.505 123.431H252.554L251.968 124.844H251.082L255.072 115.357L254.486 113.958H256.199L260.796 124.844ZM252.854 122.714H258.205L255.504 116.389L252.854 122.714ZM266.946 113.732C267.795 113.732 268.58 113.871 269.303 114.149C270.03 114.422 270.674 114.803 271.235 115.291L270.825 115.832C270.601 115.642 270.352 115.464 270.079 115.298C269.805 115.132 269.517 114.991 269.215 114.873C268.912 114.751 268.598 114.656 268.271 114.588C267.944 114.515 267.614 114.478 267.282 114.478C266.57 114.478 265.938 114.608 265.386 114.866C264.835 115.125 264.371 115.479 263.995 115.928C263.62 116.377 263.334 116.901 263.139 117.502C262.944 118.102 262.846 118.746 262.846 119.434C262.846 120.108 262.941 120.742 263.132 121.337C263.327 121.933 263.61 122.455 263.981 122.904C264.357 123.353 264.82 123.709 265.372 123.973C265.923 124.231 266.555 124.361 267.268 124.361C267.609 124.361 267.956 124.327 268.307 124.258C268.659 124.19 268.998 124.09 269.325 123.958C269.652 123.826 269.959 123.665 270.247 123.475C270.54 123.285 270.799 123.067 271.023 122.823L271.44 123.358C270.864 123.904 270.196 124.331 269.435 124.639C268.673 124.946 267.844 125.1 266.946 125.1C266.404 125.1 265.884 125.032 265.386 124.895C264.889 124.763 264.423 124.573 263.988 124.324C263.559 124.075 263.166 123.78 262.81 123.438C262.458 123.092 262.156 122.709 261.902 122.289C261.653 121.869 261.458 121.42 261.316 120.942C261.18 120.459 261.111 119.956 261.111 119.434C261.111 118.912 261.18 118.407 261.316 117.919C261.458 117.431 261.653 116.977 261.902 116.557C262.156 116.133 262.458 115.747 262.81 115.401C263.166 115.054 263.559 114.759 263.988 114.515C264.423 114.266 264.889 114.073 265.386 113.936C265.884 113.8 266.404 113.732 266.946 113.732ZM281.359 124.844H279.756V118.695H274.844V124.844H273.241V113.958H274.844V117.977H279.756V113.958H281.359V124.844ZM285.788 124.844H284.178V113.958H285.788V124.844ZM295.202 113.958V114.676H290.144V117.977H295.049V118.695H290.144V124.126H295.202V124.844H288.541V113.958H295.202ZM296.029 113.958H297.713L301.293 122.838L305.026 113.958H305.853L301.695 123.856L302.105 124.844H300.378L296.029 113.958ZM313.884 113.958V114.676H308.825V117.977H313.73V118.695H308.825V124.126H313.884V124.844H307.222V113.958H313.884ZM321.116 118.336L324.52 114.412V113.958H326.124V124.844H324.52V115.532L320.677 119.968L316.856 115.518V124.844H316.109V114.647L315.524 113.958H317.398L321.116 118.336ZM335.538 113.958V114.676H330.479V117.977H335.384V118.695H330.479V124.126H335.538V124.844H328.876V113.958H335.538ZM345.845 124.844H344.615L338.583 116.389V124.844H337.836V115.342L336.863 113.958H338.824L345.091 122.758V113.958H345.845V124.844ZM354.475 113.958V114.676H351.84V124.844H350.237V114.676H347.58V113.958H354.475Z" fill="#0C3254"/>
<path d="M129.606 104.388H452.107" stroke="#E0C38F" stroke-width="1.33333" stroke-miterlimit="10"/>
<path d="M341.527 380.195H515.096C514.865 378.686 514.747 377.139 514.747 375.565C514.747 358.718 528.404 345.061 545.251 345.061C548.275 345.061 551.193 345.507 553.951 346.327V64.478C551.193 65.2966 548.275 65.7433 545.251 65.7433C528.404 65.7433 514.747 52.0873 514.747 35.238C514.747 33.6647 514.865 32.118 515.096 30.61H372.192" stroke="#E0C38F" stroke-width="1.33333" stroke-miterlimit="10"/>
<path d="M209.088 30.6092H66.6172C66.8479 32.1186 66.9679 33.6639 66.9679 35.2386C66.9679 52.0866 53.3092 65.7439 36.4612 65.7439C33.4399 65.7439 30.5199 65.2972 27.7639 64.4772V346.327C30.5199 345.508 33.4399 345.061 36.4612 345.061C53.3092 345.061 66.9679 358.717 66.9679 375.565C66.9679 377.139 66.8479 378.687 66.6172 380.195H240.192" stroke="#E0C38F" stroke-width="1.33333" stroke-miterlimit="10"/>
<path d="M68.0566 18.6107H248.947" stroke="#E0C38F" stroke-width="1.33333" stroke-miterlimit="10"/>
<path d="M332.768 18.6107H513.657" stroke="#E0C38F" stroke-width="1.33333" stroke-miterlimit="10"/>
<path d="M68.0566 394.167H260.947" stroke="#E0C38F" stroke-width="1.33333" stroke-miterlimit="10"/>
<path d="M320.768 394.167H513.657" stroke="#E0C38F" stroke-width="1.33333" stroke-miterlimit="10"/>
<path d="M567.303 62.9584V186.28" stroke="#E0C38F" stroke-width="1.33333" stroke-miterlimit="10"/>
<path d="M567.303 224.525V347.846" stroke="#E0C38F" stroke-width="1.33333" stroke-miterlimit="10"/>
<path d="M13.0813 62.9584V186.28" stroke="#E0C38F" stroke-width="1.33333" stroke-miterlimit="10"/>
<path d="M13.0813 224.525V347.846" stroke="#E0C38F" stroke-width="1.33333" stroke-miterlimit="10"/>
<path d="M123.023 104.749C123.023 106.913 121.271 108.666 119.105 108.666C116.944 108.666 115.191 106.913 115.191 104.749C115.191 102.587 116.944 100.833 119.105 100.833C121.271 100.833 123.023 102.587 123.023 104.749Z" fill="#DDB983"/>
<path d="M466.876 104.749C466.876 106.913 465.124 108.666 462.959 108.666C460.798 108.666 459.044 106.913 459.044 104.749C459.044 102.587 460.798 100.833 462.959 100.833C465.124 100.833 466.876 102.587 466.876 104.749Z" fill="#DDB983"/>
<path d="M108.326 105.25L104.058 100.983L88.9928 105.25L103.806 108.514L108.326 105.25Z" fill="#DDB983"/>
<path d="M474.325 104.247L478.593 108.514L493.659 104.247L478.845 100.983L474.325 104.247Z" fill="#DDB983"/>
<path d="M235.176 33.1327C234.466 38.9674 229.551 43.3461 223.524 43.3461C218.314 43.3461 214.09 39.1221 214.09 33.9114C214.09 29.7421 217.468 26.3634 221.638 26.3634C224.972 26.3634 227.676 29.0661 227.676 32.4007C227.676 35.0701 225.514 37.2314 222.844 37.2314C220.71 37.2314 218.982 35.5007 218.982 33.3674C218.982 31.6607 220.366 30.2754 222.072 30.2754C223.438 30.2754 224.546 31.3834 224.546 32.7501C224.546 33.8421 223.658 34.7274 222.567 34.7274C221.692 34.7274 220.982 34.0194 220.982 33.1447" stroke="#E0C38F" stroke-width="1.33333" stroke-miterlimit="10"/>
<path d="M255.774 31.1823C253.378 25.3369 246.697 22.5436 240.854 24.9383C236.178 26.8556 233.941 32.1996 235.858 36.8756C237.393 40.6156 241.666 42.4049 245.409 40.8716C248.401 39.6463 249.831 36.2236 248.606 33.2316C247.625 30.8369 244.887 29.6929 242.493 30.6743C240.578 31.4583 239.662 33.6489 240.447 35.5636C241.074 37.0969 242.825 37.8289 244.358 37.2009C245.585 36.6996 246.171 35.2983 245.669 34.0716C245.267 33.0916 244.145 32.6209 243.165 33.0236C242.381 33.3436 242.006 34.2423 242.327 35.0263" stroke="#E0C38F" stroke-width="1.33333" stroke-miterlimit="10"/>
<path d="M282.982 44.7513C274.009 49.7593 262.674 46.5459 257.665 37.5713C253.658 30.3913 256.23 21.3246 263.408 17.3166C269.152 14.1113 276.406 16.1686 279.612 21.9113C282.177 26.5059 280.529 32.3113 275.936 34.8753C272.261 36.9259 267.618 35.6099 265.565 31.9339C263.924 28.9939 264.977 25.2793 267.918 23.6379" stroke="#E0C38F" stroke-width="1.33333" stroke-miterlimit="10"/>
<path d="M282.982 44.7513C293.309 39.8966 294.51 24.0806 290.461 16.098C288.633 12.4953 286.002 11.374 283.372 12.6593C281.27 13.6886 280.4 16.226 281.429 18.33C282.25 20.0113 284.282 20.7086 285.964 19.8859C287.31 19.2259 287.868 17.6033 287.21 16.2566C286.681 15.1793 285.382 14.7326 284.306 15.2606" stroke="#E0C38F" stroke-width="1.33333" stroke-miterlimit="10"/>
<path d="M346.538 33.1327C347.249 38.9674 352.164 43.3461 358.19 43.3461C363.4 43.3461 367.625 39.1221 367.625 33.9114C367.625 29.7421 364.246 26.3634 360.077 26.3634C356.742 26.3634 354.038 29.0661 354.038 32.4007C354.038 35.0701 356.201 37.2314 358.869 37.2314C361.004 37.2314 362.733 35.5007 362.733 33.3674C362.733 31.6607 361.349 30.2754 359.642 30.2754C358.277 30.2754 357.169 31.3834 357.169 32.7501C357.169 33.8421 358.057 34.7274 359.148 34.7274C360.022 34.7274 360.732 34.0194 360.732 33.1447" stroke="#E0C38F" stroke-width="1.33333" stroke-miterlimit="10"/>
<path d="M325.941 31.1823C328.335 25.3369 335.018 22.5436 340.861 24.9383C345.537 26.8556 347.773 32.1996 345.857 36.8756C344.322 40.6156 340.049 42.4049 336.306 40.8716C333.314 39.6463 331.882 36.2236 333.109 33.2316C334.09 30.8369 336.827 29.6929 339.221 30.6743C341.135 31.4583 342.053 33.6489 341.267 35.5636C340.639 37.0969 338.89 37.8289 337.357 37.2009C336.13 36.6996 335.543 35.2983 336.046 34.0716C336.447 33.0916 337.569 32.6209 338.55 33.0236C339.334 33.3436 339.709 34.2423 339.387 35.0263" stroke="#E0C38F" stroke-width="1.33333" stroke-miterlimit="10"/>
<path d="M298.732 44.7513C307.704 49.7593 319.04 46.5459 324.048 37.5713C328.056 30.3913 325.484 21.3246 318.306 17.3166C312.563 14.1113 305.308 16.1686 302.102 21.9113C299.538 26.5059 301.186 32.3113 305.779 34.8753C309.454 36.9259 314.096 35.6099 316.15 31.9339C317.79 28.9939 316.738 25.2793 313.796 23.6379" stroke="#E0C38F" stroke-width="1.33333" stroke-miterlimit="10"/>
<path d="M298.732 44.7513C288.406 39.8966 287.204 24.0806 291.254 16.098C293.082 12.4953 295.712 11.374 298.342 12.6593C300.444 13.6886 301.315 16.226 300.286 18.33C299.464 20.0113 297.432 20.7086 295.75 19.8859C294.404 19.2259 293.847 17.6033 294.504 16.2566C295.032 15.1793 296.332 14.7326 297.408 15.2606" stroke="#E0C38F" stroke-width="1.33333" stroke-miterlimit="10"/>
<path d="M324.938 383.965C325.373 380.393 328.381 377.714 332.07 377.714C335.259 377.714 337.845 380.298 337.845 383.489C337.845 386.039 335.777 388.107 333.225 388.107C331.185 388.107 329.527 386.453 329.527 384.413C329.527 382.778 330.853 381.455 332.486 381.455C333.793 381.455 334.851 382.514 334.851 383.822C334.851 384.866 334.003 385.713 332.958 385.713C332.122 385.713 331.445 385.035 331.445 384.199C331.445 383.53 331.987 382.989 332.655 382.989C333.19 382.989 333.626 383.422 333.626 383.957" stroke="#E0C38F" stroke-width="1.33333" stroke-miterlimit="10"/>
<path d="M312.33 385.158C313.797 388.736 317.886 390.447 321.463 388.979C324.325 387.806 325.694 384.535 324.521 381.675C323.581 379.384 320.966 378.29 318.675 379.228C316.843 379.978 315.969 382.074 316.718 383.904C317.319 385.37 318.994 386.071 320.461 385.468C321.633 384.99 322.191 383.648 321.711 382.476C321.327 381.538 320.257 381.09 319.317 381.475C318.567 381.782 318.207 382.639 318.517 383.39C318.761 383.99 319.449 384.278 320.049 384.031C320.527 383.835 320.757 383.286 320.561 382.806" stroke="#E0C38F" stroke-width="1.33333" stroke-miterlimit="10"/>
<path d="M295.678 376.853C301.17 373.787 308.107 375.755 311.174 381.247C313.626 385.642 312.051 391.191 307.658 393.645C304.143 395.606 299.703 394.347 297.742 390.831C296.171 388.019 297.179 384.467 299.99 382.898C302.239 381.643 305.082 382.449 306.338 384.698C307.343 386.497 306.698 388.771 304.898 389.775" stroke="#E0C38F" stroke-width="1.33333" stroke-miterlimit="10"/>
<path d="M295.678 376.853C289.356 379.825 288.622 389.505 291.099 394.39C292.218 396.597 293.83 397.282 295.439 396.495C296.726 395.866 297.259 394.313 296.628 393.025C296.126 391.994 294.882 391.569 293.852 392.073C293.028 392.475 292.687 393.47 293.091 394.294C293.414 394.953 294.208 395.226 294.867 394.903" stroke="#E0C38F" stroke-width="1.33333" stroke-miterlimit="10"/>
<path d="M256.778 383.965C256.342 380.393 253.334 377.714 249.645 377.714C246.457 377.714 243.87 380.298 243.87 383.489C243.87 386.039 245.939 388.107 248.49 388.107C250.53 388.107 252.187 386.453 252.187 384.413C252.187 382.778 250.862 381.455 249.23 381.455C247.923 381.455 246.863 382.514 246.863 383.822C246.863 384.866 247.711 385.713 248.757 385.713C249.593 385.713 250.27 385.035 250.27 384.199C250.27 383.53 249.727 382.989 249.059 382.989C248.525 382.989 248.09 383.422 248.09 383.957" stroke="#E0C38F" stroke-width="1.33333" stroke-miterlimit="10"/>
<path d="M269.385 385.158C267.918 388.736 263.829 390.447 260.251 388.979C257.39 387.806 256.022 384.535 257.194 381.675C258.134 379.384 260.749 378.29 263.039 379.228C264.871 379.978 265.747 382.074 264.997 383.904C264.397 385.37 262.721 386.071 261.255 385.468C260.083 384.99 259.523 383.648 260.003 382.476C260.387 381.538 261.458 381.09 262.398 381.475C263.147 381.782 263.507 382.639 263.199 383.39C262.954 383.99 262.267 384.278 261.666 384.031C261.187 383.835 260.958 383.286 261.154 382.806" stroke="#E0C38F" stroke-width="1.33333" stroke-miterlimit="10"/>
<path d="M286.037 376.853C280.546 373.787 273.608 375.755 270.542 381.247C268.089 385.642 269.664 391.191 274.058 393.645C277.572 395.606 282.012 394.347 283.974 390.831C285.544 388.019 284.536 384.467 281.725 382.898C279.476 381.643 276.633 382.449 275.377 384.698C274.373 386.497 275.017 388.771 276.817 389.775" stroke="#E0C38F" stroke-width="1.33333" stroke-miterlimit="10"/>
<path d="M286.037 376.853C291.402 379.375 292.744 386.731 291.509 391.886C291.29 392.805 290.99 393.653 290.616 394.39C289.497 396.597 287.885 397.282 286.277 396.495C284.989 395.866 284.457 394.313 285.086 393.025C285.59 391.994 286.833 391.569 287.864 392.073C288.686 392.475 289.028 393.47 288.624 394.294C288.302 394.953 287.508 395.226 286.848 394.903" stroke="#E0C38F" stroke-width="1.33333" stroke-miterlimit="10"/>
<path d="M546.538 34.4088C546.538 34.4088 536.256 33.6421 531.778 29.1608C527.912 25.2981 527.683 20.8101 530.311 18.1834C532.939 15.5541 537.428 15.7834 541.29 19.6474C545.772 24.1274 546.538 34.4088 546.538 34.4088Z" stroke="#E0C38F" stroke-width="1.33333" stroke-miterlimit="10"/>
<path d="M546.538 34.4088C546.538 34.4088 556.816 35.1728 561.298 39.6541C565.16 43.5168 565.39 48.0048 562.762 50.6341C560.134 53.2608 555.647 53.0314 551.783 49.1674C547.303 44.6874 546.538 34.4088 546.538 34.4088Z" stroke="#E0C38F" stroke-width="1.33333" stroke-miterlimit="10"/>
<path d="M552.309 28.638C552.309 28.638 553.29 22.9407 555.999 20.2313C558.333 17.8967 560.814 17.526 562.115 18.8287C563.418 20.13 563.049 22.6113 560.713 24.946C558.003 27.6567 552.309 28.638 552.309 28.638Z" stroke="#E0C38F" stroke-width="1.33333" stroke-miterlimit="10"/>
<path d="M540.767 40.1783C540.767 40.1783 539.786 45.8743 537.074 48.585C534.74 50.9196 532.259 51.2903 530.958 49.9876C529.655 48.685 530.024 46.2036 532.36 43.869C535.07 41.1583 540.767 40.1783 540.767 40.1783Z" stroke="#E0C38F" stroke-width="1.33333" stroke-miterlimit="10"/>
<path d="M536.572 24.444C536.572 24.444 531.202 22.7333 528.329 19.86C525.853 17.3853 525.162 15.0533 526.17 14.044C527.184 13.0306 529.514 13.7253 531.988 16.2C534.864 19.0733 536.572 24.444 536.572 24.444Z" stroke="#E0C38F" stroke-width="1.33333" stroke-miterlimit="10"/>
<path d="M556.501 44.3724C556.501 44.3724 561.871 46.0817 564.744 48.955C567.22 51.431 567.913 53.7617 566.903 54.7737C565.892 55.7844 563.559 55.091 561.083 52.615C558.209 49.7417 556.501 44.3724 556.501 44.3724Z" stroke="#E0C38F" stroke-width="1.33333" stroke-miterlimit="10"/>
<path d="M536.41 24.2825C539.91 27.7812 549.438 31.5052 552.342 28.6025" stroke="#E0C38F" stroke-width="1.33333" stroke-miterlimit="10"/>
<path d="M556.663 44.5338C553.163 41.0351 549.439 31.5058 552.343 28.6031" stroke="#E0C38F" stroke-width="1.33333" stroke-miterlimit="10"/>
<path d="M556.663 44.5338C553.163 41.0351 543.635 37.3111 540.733 40.2138" stroke="#E0C38F" stroke-width="1.33333" stroke-miterlimit="10"/>
<path d="M536.41 24.2825C539.91 27.7812 543.634 37.3105 540.733 40.2132" stroke="#E0C38F" stroke-width="1.33333" stroke-miterlimit="10"/>
<path d="M35.1764 34.4088C35.1764 34.4088 45.4577 33.6421 49.9364 29.1608C53.8017 25.2981 54.0311 20.8101 51.4031 18.1834C48.7751 15.5541 44.2857 15.7834 40.4244 19.6474C35.9417 24.1274 35.1764 34.4088 35.1764 34.4088Z" stroke="#E0C38F" stroke-width="1.33333" stroke-miterlimit="10"/>
<path d="M35.1764 34.4088C35.1764 34.4088 24.8978 35.1728 20.4164 39.6541C16.5538 43.5168 16.3244 48.0048 18.9524 50.6341C21.5804 53.2608 26.0671 53.0314 29.9311 49.1674C34.4111 44.6874 35.1764 34.4088 35.1764 34.4088Z" stroke="#E0C38F" stroke-width="1.33333" stroke-miterlimit="10"/>
<path d="M29.4056 28.638C29.4056 28.638 28.4242 22.9407 25.7149 20.2313C23.3816 17.8967 20.9003 17.526 19.5989 18.8287C18.2963 20.13 18.6656 22.6113 21.0016 24.946C23.7109 27.6567 29.4056 28.638 29.4056 28.638Z" stroke="#E0C38F" stroke-width="1.33333" stroke-miterlimit="10"/>
<path d="M40.9471 40.1783C40.9471 40.1783 41.9285 45.8743 44.6405 48.585C46.9738 50.9196 49.4551 51.2903 50.7565 49.9876C52.0591 48.685 51.6898 46.2036 49.3538 43.869C46.6445 41.1583 40.9471 40.1783 40.9471 40.1783Z" stroke="#E0C38F" stroke-width="1.33333" stroke-miterlimit="10"/>
<path d="M45.1425 24.444C45.1425 24.444 50.5118 22.7333 53.3851 19.86C55.8611 17.3853 56.5518 15.0533 55.5438 14.044C54.5305 13.0306 52.1998 13.7253 49.7265 16.2C46.8505 19.0733 45.1425 24.444 45.1425 24.444Z" stroke="#E0C38F" stroke-width="1.33333" stroke-miterlimit="10"/>
<path d="M25.213 44.3724C25.213 44.3724 19.8436 46.0817 16.9703 48.955C14.4943 51.431 13.801 53.7617 14.8116 54.7737C15.8223 55.7844 18.1556 55.091 20.6316 52.615C23.505 49.7417 25.213 44.3724 25.213 44.3724Z" stroke="#E0C38F" stroke-width="1.33333" stroke-miterlimit="10"/>
<path d="M45.3041 24.2825C41.8041 27.7812 32.2761 31.5052 29.3721 28.6025" stroke="#E0C38F" stroke-width="1.33333" stroke-miterlimit="10"/>
<path d="M25.0514 44.5338C28.5514 41.0351 32.2754 31.5058 29.3714 28.6031" stroke="#E0C38F" stroke-width="1.33333" stroke-miterlimit="10"/>
<path d="M25.0514 44.5338C28.5514 41.0351 38.0794 37.3111 40.9807 40.2138" stroke="#E0C38F" stroke-width="1.33333" stroke-miterlimit="10"/>
<path d="M45.304 24.2825C41.804 27.7812 38.08 37.3105 40.9814 40.2132" stroke="#E0C38F" stroke-width="1.33333" stroke-miterlimit="10"/>
<path d="M35.1764 376.394C35.1764 376.394 45.4577 377.161 49.9364 381.642C53.8017 385.505 54.0311 389.993 51.4031 392.62C48.7751 395.249 44.2857 395.02 40.4244 391.156C35.9417 386.676 35.1764 376.394 35.1764 376.394Z" stroke="#E0C38F" stroke-width="1.33333" stroke-miterlimit="10"/>
<path d="M35.1764 376.394C35.1764 376.394 24.8978 375.63 20.4164 371.149C16.5538 367.286 16.3244 362.798 18.9524 360.169C21.5804 357.542 26.0671 357.772 29.9311 361.636C34.4111 366.116 35.1764 376.394 35.1764 376.394Z" stroke="#E0C38F" stroke-width="1.33333" stroke-miterlimit="10"/>
<path d="M29.4056 382.165C29.4056 382.165 28.4242 387.863 25.7149 390.572C23.3816 392.907 20.9003 393.277 19.5989 391.975C18.2963 390.673 18.6656 388.192 21.0016 385.857C23.7109 383.147 29.4056 382.165 29.4056 382.165Z" stroke="#E0C38F" stroke-width="1.33333" stroke-miterlimit="10"/>
<path d="M40.9471 370.625C40.9471 370.625 41.9285 364.929 44.6405 362.218C46.9738 359.884 49.4551 359.513 50.7565 360.816C52.0591 362.118 51.6898 364.6 49.3538 366.934C46.6445 369.645 40.9471 370.625 40.9471 370.625Z" stroke="#E0C38F" stroke-width="1.33333" stroke-miterlimit="10"/>
<path d="M45.1425 386.359C45.1425 386.359 50.5118 388.07 53.3851 390.943C55.8611 393.418 56.5518 395.75 55.5438 396.759C54.5305 397.773 52.1998 397.078 49.7265 394.603C46.8505 391.73 45.1425 386.359 45.1425 386.359Z" stroke="#E0C38F" stroke-width="1.33333" stroke-miterlimit="10"/>
<path d="M25.213 366.431C25.213 366.431 19.8436 364.722 16.9703 361.848C14.4943 359.372 13.801 357.042 14.8116 356.03C15.8223 355.019 18.1556 355.712 20.6316 358.188C23.505 361.062 25.213 366.431 25.213 366.431Z" stroke="#E0C38F" stroke-width="1.33333" stroke-miterlimit="10"/>
<path d="M45.3041 386.521C41.8041 383.022 32.2761 379.298 29.3721 382.201" stroke="#E0C38F" stroke-width="1.33333" stroke-miterlimit="10"/>
<path d="M25.0514 366.269C28.5514 369.768 32.2754 379.297 29.3714 382.2" stroke="#E0C38F" stroke-width="1.33333" stroke-miterlimit="10"/>
<path d="M25.0514 366.269C28.5514 369.768 38.0794 373.492 40.9807 370.589" stroke="#E0C38F" stroke-width="1.33333" stroke-miterlimit="10"/>
<path d="M45.304 386.521C41.804 383.022 38.08 373.493 40.9814 370.59" stroke="#E0C38F" stroke-width="1.33333" stroke-miterlimit="10"/>
<path d="M546.538 376.394C546.538 376.394 536.256 377.161 531.778 381.642C527.912 385.505 527.683 389.993 530.311 392.62C532.939 395.249 537.428 395.02 541.29 391.156C545.772 386.676 546.538 376.394 546.538 376.394Z" stroke="#E0C38F" stroke-width="1.33333" stroke-miterlimit="10"/>
<path d="M546.538 376.394C546.538 376.394 556.816 375.63 561.298 371.149C565.16 367.286 565.39 362.798 562.762 360.169C560.134 357.542 555.647 357.772 551.783 361.636C547.303 366.116 546.538 376.394 546.538 376.394Z" stroke="#E0C38F" stroke-width="1.33333" stroke-miterlimit="10"/>
<path d="M552.309 382.165C552.309 382.165 553.29 387.863 555.999 390.572C558.333 392.907 560.814 393.277 562.115 391.975C563.418 390.673 563.049 388.192 560.713 385.857C558.003 383.147 552.309 382.165 552.309 382.165Z" stroke="#E0C38F" stroke-width="1.33333" stroke-miterlimit="10"/>
<path d="M540.767 370.625C540.767 370.625 539.786 364.929 537.074 362.218C534.74 359.884 532.259 359.513 530.958 360.816C529.655 362.118 530.024 364.6 532.36 366.934C535.07 369.645 540.767 370.625 540.767 370.625Z" stroke="#E0C38F" stroke-width="1.33333" stroke-miterlimit="10"/>
<path d="M536.572 386.359C536.572 386.359 531.202 388.07 528.329 390.943C525.853 393.418 525.162 395.75 526.17 396.759C527.184 397.773 529.514 397.078 531.988 394.603C534.864 391.73 536.572 386.359 536.572 386.359Z" stroke="#E0C38F" stroke-width="1.33333" stroke-miterlimit="10"/>
<path d="M556.501 366.431C556.501 366.431 561.871 364.722 564.744 361.848C567.22 359.372 567.913 357.042 566.903 356.03C565.892 355.019 563.559 355.712 561.083 358.188C558.209 361.062 556.501 366.431 556.501 366.431Z" stroke="#E0C38F" stroke-width="1.33333" stroke-miterlimit="10"/>
<path d="M536.41 386.521C539.91 383.022 549.438 379.298 552.342 382.201" stroke="#E0C38F" stroke-width="1.33333" stroke-miterlimit="10"/>
<path d="M556.663 366.269C553.163 369.768 549.439 379.297 552.343 382.2" stroke="#E0C38F" stroke-width="1.33333" stroke-miterlimit="10"/>
<path d="M556.663 366.269C553.163 369.768 543.635 373.492 540.733 370.589" stroke="#E0C38F" stroke-width="1.33333" stroke-miterlimit="10"/>
<path d="M536.41 386.521C539.91 383.022 543.634 373.493 540.733 370.59" stroke="#E0C38F" stroke-width="1.33333" stroke-miterlimit="10"/>
<path d="M431.034 153.353H150.68L157.347 143.309L150.68 133.265H431.034L424.367 143.309L431.034 153.353Z" fill="#DDB983"/>
<path d="M132.178 351.055H245.624" stroke="#E0C38F" stroke-width="1.33333" stroke-miterlimit="10"/>
<path d="M336.84 351.055H450.285" stroke="#E0C38F" stroke-width="1.33333" stroke-miterlimit="10"/>
<path d="M312.844 357.686H268.871L275.167 351.054L268.871 344.423H312.844L306.547 351.054L312.844 357.686Z" fill="#0C3254"/>
<path d="M348.897 321.614L356.796 317.053V326.174L348.897 321.614Z" fill="#50CB88"/>
<path d="M356.817 335.25L364.717 330.689V339.81L356.817 335.25Z" fill="#B6E9CD"/>
<path d="M348.897 339.822L356.796 335.26V344.383L348.897 339.822Z" fill="#B6E9CD"/>
<path d="M364.736 330.717L356.838 335.279V326.157L364.736 330.717Z" fill="#50CB88"/>
<path d="M356.777 326.186L348.877 330.747V321.626L356.777 326.186Z" fill="#B6E9CD"/>
<path d="M356.777 335.29L348.877 339.852V330.729L356.777 335.29Z" fill="#50CB88"/>
<path d="M364.736 339.822L356.838 344.383V335.26L364.736 339.822Z" fill="#50CB88"/>
<path d="M374.064 336.746C374.064 336.117 373.585 335.818 372.689 335.818H370.673V337.666H372.689C373.585 337.666 374.064 337.387 374.064 336.749V336.746ZM370.673 332.799V334.558H372.393C373.234 334.558 373.694 334.261 373.694 333.674C373.694 333.087 373.232 332.799 372.393 332.799H370.673ZM375.804 336.93C375.804 338.219 374.778 338.967 372.817 338.967H368.956V331.501H372.604C374.47 331.501 375.429 332.279 375.429 333.442C375.444 334.135 375.057 334.774 374.437 335.085C375.269 335.351 375.804 335.991 375.804 336.93" fill="#50CB88"/>
<path d="M380.57 332.909H379.162V335.511H380.57C381.625 335.511 382.158 335.021 382.158 334.21C382.158 333.389 381.626 332.909 380.57 332.909ZM382.192 338.967L380.752 336.886H379.162V338.967H377.436V331.501H380.668C382.661 331.501 383.91 332.537 383.91 334.21C383.91 335.33 383.344 336.151 382.374 336.566L384.048 338.967H382.192Z" fill="#50CB88"/>
<path d="M389.969 336.056L388.785 333.196L387.599 336.056H389.969ZM390.513 337.367H387.045L386.383 338.968H384.611L387.941 331.501H389.646L392.985 338.968H391.171L390.513 337.367Z" fill="#50CB88"/>
<path d="M394.083 331.501H395.811V338.968H394.083V331.501Z" fill="#50CB88"/>
<path d="M404.749 331.501V338.968H403.33L399.609 334.433V338.968H397.902V331.501H399.331L403.043 336.033V331.501H404.749Z" fill="#50CB88"/>
<path d="M406.839 331.501H408.567V337.559H412.311V338.967H406.839V331.501Z" fill="#50CB88"/>
<path d="M416.415 336.322V338.967H414.687V336.3L411.799 331.502H413.634L415.627 334.818L417.622 331.502H419.318L416.415 336.322Z" fill="#50CB88"/>
<path d="M422.09 332.909H419.7V331.501H426.207V332.909H423.818V338.967H422.09V332.909Z" fill="#50CB88"/>
<path d="M427.775 331.501H429.503V338.968H427.775V331.501Z" fill="#50CB88"/>
<path d="M431.124 335.234C431.124 332.985 432.85 331.373 435.176 331.373C436.466 331.373 437.544 331.842 438.248 332.696L437.14 333.718C436.637 333.144 436.008 332.845 435.262 332.845C433.865 332.845 432.873 333.825 432.873 335.234C432.873 336.642 433.865 337.624 435.262 337.624C436.009 337.624 436.638 337.324 437.14 336.738L438.248 337.762C437.544 338.626 436.466 339.096 435.165 339.096C432.853 339.096 431.124 337.484 431.124 335.234Z" fill="#50CB88"/>
</svg>
