<svg width="12" height="16" viewBox="0 0 12 16" fill="none" xmlns="http://www.w3.org/2000/svg">
<path d="M7.80968 15.0679C9.5273 12.1176 8.80817 8.40483 6.09966 6.24033C6.09808 6.23911 6.0965 6.23758 6.09523 6.23666L6.10694 6.26482L6.10504 6.28594C6.63276 7.63466 6.55873 9.11531 5.91047 10.3857L5.45362 11.2813L5.31347 10.2917C5.21824 9.62039 4.95659 8.98001 4.55353 8.43177H4.48994L4.4564 8.33993C4.46115 9.3657 4.23778 10.3762 3.7996 11.3294C3.22474 12.5768 3.30922 14.0152 4.02581 15.1778L4.52031 15.9804L3.63066 15.6168C2.16361 15.0171 0.990804 13.8618 0.412783 12.4473C-0.234842 10.8678 -0.114934 9.03633 0.733906 7.54925C1.17652 6.77572 1.48657 5.95443 1.65583 5.10773L1.82129 4.27787L2.24334 5.01804C2.44487 5.37098 2.59326 5.75301 2.68532 6.15432L2.69481 6.16381L2.70462 6.22809L2.71379 6.22533C3.97804 4.6002 4.73545 2.57805 4.84586 0.530486L4.87434 0L5.33435 0.290191C7.21173 1.47391 8.51552 3.37301 8.91827 5.5069L8.92744 5.55067L8.93219 5.5574L8.95275 5.52924C9.3207 5.05906 9.51496 4.4998 9.51496 3.91115V2.99956L10.0835 3.72626C11.4053 5.41537 12.083 7.51068 11.9919 9.62651C11.8799 12.117 10.4761 14.3029 8.23648 15.4873L7.26678 16L7.80968 15.0679Z" fill="#1F4068"/>
</svg>
